<?xml version="1.0" encoding="iso-8859-1"?>
<!-- Generator: Adobe Illustrator 19.0.0, SVG Export Plug-In . SVG Version: 6.00 Build 0)  -->
<svg xmlns="http://www.w3.org/2000/svg" xmlns:xlink="http://www.w3.org/1999/xlink" version="1.1" id="Layer_1" x="0px" y="0px" viewBox="0 0 512.001 512.001" style="enable-background:new 0 0 512.001 512.001;" xml:space="preserve">
<path style="fill:#F29F26;" d="M193.167,400.246c-1.725-5.309-6.311-9.176-11.834-9.979l-46.784-6.797l-20.923-42.394  c-2.469-5.001-7.565-8.17-13.144-8.17c-5.581,0-10.676,3.168-13.145,8.17L66.417,383.47l-46.784,6.797  c-5.522,0.803-10.108,4.671-11.834,9.979c-1.724,5.306-0.287,11.13,3.71,15.026l33.853,32.996l-7.992,46.593  c-0.942,5.499,1.319,11.058,5.833,14.338c4.514,3.28,10.5,3.712,15.437,1.117l41.845-22.001l41.843,22.001  c2.144,1.126,4.486,1.683,6.82,1.683c3.038,0,6.063-0.946,8.616-2.801c4.514-3.279,6.774-8.837,5.833-14.338l-0.651-3.793  l-4.781-27.876l-2.56-14.925l33.852-32.996C193.454,411.376,194.891,405.552,193.167,400.246z"/>
<g>
	<path style="fill:#EF8229;" d="M87.89,379.051l21.473-43.139c-2.506-1.91-5.607-3.005-8.879-3.005   c-5.581,0-10.676,3.168-13.145,8.17L66.418,383.47L87.89,379.051z"/>
	<path style="fill:#EF8229;" d="M120.009,478.369l-19.525,9.948l41.843,22.001c2.144,1.126,4.486,1.683,6.82,1.683   c3.038,0,6.063-0.946,8.616-2.801c2.745-1.993,4.65-4.832,5.515-7.986L120.009,478.369z"/>
	<path style="fill:#EF8229;" d="M66.549,501.357c-4.514-3.279-6.774-8.837-5.833-14.338l7.992-46.593L34.855,407.43   c-3.996-3.897-5.433-9.722-3.71-15.026c0.487-1.502,1.212-2.882,2.113-4.115l-13.626,1.98c-5.522,0.803-10.108,4.671-11.834,9.979   c-1.724,5.306-0.287,11.13,3.71,15.026l33.853,32.996l-7.992,46.593c-0.942,5.499,1.319,11.058,5.833,14.338   s10.5,3.712,15.437,1.117l12.697-6.676C69.643,503.184,68.017,502.423,66.549,501.357z"/>
</g>
<g>
	<path style="fill:#EDE21B;" d="M123.281,298.724c-2.143,0-4.289-0.781-5.978-2.36c-3.533-3.302-3.719-8.842-0.417-12.374   L308.072,79.471c6.719-7.187,10.236-16.561,9.904-26.393c-0.333-9.833-4.473-18.949-11.659-25.667   c-14.838-13.867-38.191-13.083-52.06,1.753c-3.302,3.534-8.842,3.72-12.376,0.417c-3.533-3.302-3.719-8.842-0.417-12.374   c20.461-21.889,54.918-23.049,76.81-2.588c10.605,9.913,16.714,23.361,17.202,37.869c0.489,14.509-4.701,28.337-14.614,38.941   L129.678,295.947C127.954,297.792,125.62,298.724,123.281,298.724z"/>
	<path style="fill:#EDE21B;" d="M250.123,96.371c-2.142,0-4.289-0.781-5.977-2.358c-10.593-9.901-16.695-23.333-17.183-37.824   c-0.488-14.49,4.695-28.304,14.596-38.895c3.302-3.534,8.843-3.719,12.374-0.417c3.533,3.302,3.719,8.842,0.417,12.374   c-6.707,7.176-10.218,16.532-9.887,26.348c0.331,9.816,4.464,18.914,11.639,25.62c3.533,3.302,3.721,8.843,0.418,12.376   C254.796,95.439,252.462,96.371,250.123,96.371z"/>
	<path style="fill:#EDE21B;" d="M226.111,394.85c-2.142,0-4.288-0.781-5.977-2.36c-3.533-3.302-3.719-8.842-0.417-12.374   l191.186-204.52c20.462-21.888,54.919-23.049,76.81-2.587c21.889,20.463,23.051,54.921,2.588,76.809   c-3.302,3.534-8.842,3.719-12.374,0.417c-3.533-3.302-3.719-8.842-0.417-12.374c13.868-14.836,13.08-38.189-1.754-52.059   c-14.839-13.87-38.193-13.083-52.059,1.753L232.51,392.073C230.785,393.918,228.452,394.85,226.111,394.85z"/>
	<path style="fill:#EDE21B;" d="M450.51,266.943c-13.804,0-26.886-5.155-37.02-14.627c-3.533-3.303-3.719-8.843-0.417-12.376   c3.302-3.534,8.842-3.718,12.374-0.418c7.175,6.708,16.532,10.223,26.347,9.888c9.817-0.331,18.915-4.464,25.621-11.639   c3.302-3.534,8.842-3.719,12.376-0.418c3.533,3.303,3.719,8.843,0.418,12.376c-9.901,10.592-23.333,16.694-37.825,17.182   C451.759,266.933,451.134,266.943,450.51,266.943z"/>
	<path style="fill:#EDE21B;" d="M171,350.743c-2.143,0-4.289-0.781-5.978-2.36c-3.532-3.302-3.719-8.842-0.417-12.374l9.239-9.883   c3.302-3.534,8.842-3.719,12.374-0.417c3.533,3.302,3.719,8.842,0.416,12.374l-9.238,9.882   C175.674,349.811,173.34,350.743,171,350.743z"/>
	<path style="fill:#EDE21B;" d="M200.942,318.713c-2.143,0-4.289-0.781-5.978-2.36c-3.533-3.302-3.719-8.842-0.417-12.374   L436.389,45.267c3.303-3.534,8.843-3.72,12.376-0.417c3.533,3.302,3.719,8.842,0.418,12.374L207.341,315.936   C205.616,317.782,203.282,318.713,200.942,318.713z"/>
	<path style="fill:#EDE21B;" d="M46.674,281.287c-2.143,0-4.289-0.781-5.978-2.36c-3.533-3.302-3.719-8.842-0.417-12.374   l90.523-96.837c3.302-3.534,8.843-3.72,12.374-0.417c3.533,3.302,3.719,8.842,0.417,12.374L53.07,278.51   C51.347,280.354,49.012,281.287,46.674,281.287z"/>
	<path style="fill:#EDE21B;" d="M238.037,479.185c-2.142,0-4.288-0.781-5.977-2.36c-3.533-3.302-3.719-8.842-0.417-12.374   l64.889-69.417c3.303-3.534,8.843-3.719,12.376-0.417c3.533,3.302,3.719,8.842,0.418,12.374l-64.889,69.417   C242.711,478.252,240.377,479.185,238.037,479.185z"/>
	<path style="fill:#EDE21B;" d="M323.471,387.79c-2.142,0-4.289-0.781-5.978-2.36c-3.533-3.303-3.718-8.843-0.416-12.376   l5.089-5.444c3.302-3.533,8.843-3.718,12.376-0.416c3.533,3.302,3.718,8.843,0.416,12.376l-5.089,5.444   C328.145,386.858,325.81,387.79,323.471,387.79z"/>
</g>
<g>
</g>
<g>
</g>
<g>
</g>
<g>
</g>
<g>
</g>
<g>
</g>
<g>
</g>
<g>
</g>
<g>
</g>
<g>
</g>
<g>
</g>
<g>
</g>
<g>
</g>
<g>
</g>
<g>
</g>
</svg>
