<?xml version="1.0" encoding="iso-8859-1"?>
<!-- Generator: Adobe Illustrator 19.0.0, SVG Export Plug-In . SVG Version: 6.00 Build 0)  -->
<svg xmlns="http://www.w3.org/2000/svg" xmlns:xlink="http://www.w3.org/1999/xlink" version="1.1" id="Layer_1" x="0px" y="0px" viewBox="0 0 512.001 512.001" style="enable-background:new 0 0 512.001 512.001;" xml:space="preserve">
<path style="fill:#5ABCE2;" d="M505.144,334.075l-0.076-8.393c0,0-4.485,4.626-13.164,8.393H477.21v4.126  c-0.801,0.115-1.616,0.221-2.45,0.308c-7.139-0.053-15.214-1.389-23.752-5.065c-8.915-5.551-16.847-14.104-27.854-19.424  c-13.391-9.49-25.065-7.86-36.794-2.308c-8.917,3.054-15.555,8.438-22.882,13.459c-5.691,3.455-11.631,6.764-17.982,9.254  c-5.075,1.59-10.9,2.571-17.883,2.571c-36.362,0-31.472-26.551-69.037-27.733c-0.251-0.008-0.494-0.019-0.749-0.024  c-0.121-0.002-0.251-0.002-0.374-0.004c-0.462-0.008-0.924-0.016-1.401-0.016c-0.016,0-0.032,0-0.049,0c-0.018,0-0.033,0-0.05,0  c-0.477,0-0.938,0.009-1.4,0.016c-0.124,0.002-0.252,0.002-0.374,0.004c-0.254,0.007-0.499,0.017-0.749,0.024  c-37.566,1.182-32.676,27.733-69.037,27.733c-6.983,0-12.808-0.98-17.883-2.571c-6.35-2.49-12.29-5.799-17.982-9.254  c-7.327-5.022-13.966-10.406-22.882-13.459c-11.729-5.55-23.403-7.181-36.794,2.308c-11.009,5.32-18.941,13.873-27.854,19.424  c-8.538,3.676-16.612,5.013-23.752,5.065c-0.835-0.086-1.648-0.193-2.45-0.308v-4.126H20.1c-8.679-3.766-13.164-8.393-13.164-8.393  l-0.076,8.393H5.347v167.031C6.413,507.29,11.788,512,18.276,512h0.101h475.249h0.101c6.489,0,11.865-4.71,12.929-10.894V334.075  H505.144z"/>
<path style="fill:#67CFEF;" d="M505.067,325.683c0,0-4.485,4.626-13.164,8.393h-14.695v4.126c-0.801,0.115-1.616,0.221-2.45,0.308  c-7.139-0.053-15.214-1.389-23.752-5.065c-8.915-5.551-16.847-14.104-27.854-19.424c-13.391-9.49-25.065-7.86-36.794-2.308  c-8.917,3.054-15.555,8.438-22.882,13.459c-5.691,3.455-11.631,6.764-17.982,9.254c-5.075,1.59-10.9,2.571-17.883,2.571  c-36.362,0-31.472-26.551-69.037-27.733c-0.251-0.008-0.494-0.019-0.749-0.024c-0.121-0.002-0.251-0.002-0.374-0.004  c-0.462-0.008-0.924-0.016-1.401-0.016c-0.016,0-0.032,0-0.049,0c-0.018,0-0.033,0-0.05,0c-0.477,0-0.938,0.009-1.4,0.016  c-0.124,0.002-0.252,0.002-0.374,0.004c-0.254,0.007-0.499,0.017-0.749,0.024c-37.566,1.182-32.676,27.733-69.037,27.733  c-6.983,0-12.808-0.98-17.883-2.571c-0.835-0.327-1.661-0.67-2.482-1.026c17.276,79.516,71.351,145.292,143.506,178.602h186.094  h0.101c6.489,0,11.865-4.71,12.929-10.894V334.075h-1.513L505.067,325.683z"/>
<g>
	<path style="fill:#AEE4FF;" d="M381.012,135.994H117.605c-4.837,0-8.756-3.921-8.756-8.756c0-4.836,3.919-8.756,8.756-8.756   h263.406c4.836,0,8.756,3.921,8.756,8.756C389.768,132.073,385.848,135.994,381.012,135.994z"/>
	<path style="fill:#AEE4FF;" d="M114.698,176.34h-7.32c-4.837,0-8.756-3.921-8.756-8.756c0-4.837,3.919-8.756,8.756-8.756h7.32   c4.837,0,8.756,3.919,8.756,8.756C123.454,172.42,119.535,176.34,114.698,176.34z"/>
	<path style="fill:#AEE4FF;" d="M243.379,250.857c-4.837,0-8.756-3.921-8.756-8.756c0-4.836,3.919-8.756,8.756-8.756   c15.715,0,28.501-12.786,28.501-28.502s-12.786-28.502-28.501-28.502H142.885c-4.837,0-8.756-3.921-8.756-8.756   c0-4.837,3.919-8.756,8.756-8.756h100.494c25.372,0,46.013,20.641,46.013,46.014C289.392,230.215,268.749,250.857,243.379,250.857z   "/>
	<path style="fill:#AEE4FF;" d="M243.379,250.752c-25.343,0-45.961-20.618-45.961-45.963c0-4.836,3.919-8.756,8.756-8.756   c4.837,0,8.756,3.921,8.756,8.756c0,15.688,12.762,28.451,28.449,28.451c4.837,0,8.756,3.919,8.756,8.756   C252.135,246.833,248.214,250.752,243.379,250.752z"/>
	<path style="fill:#AEE4FF;" d="M336.813,92.03h-87.359c-4.836,0-8.756-3.921-8.756-8.756c0-4.836,3.921-8.756,8.756-8.756h87.359   c15.715,0,28.501-12.786,28.501-28.502s-12.786-28.503-28.501-28.503c-4.836,0-8.756-3.921-8.756-8.756S331.977,0,336.813,0   c25.373,0,46.013,20.642,46.013,46.015C382.826,71.387,362.184,92.03,336.813,92.03z"/>
	<path style="fill:#AEE4FF;" d="M299.608,54.823c-4.836,0-8.756-3.919-8.756-8.756c0-25.343,20.618-45.963,45.961-45.963   c4.836,0,8.756,3.921,8.756,8.756s-3.921,8.756-8.756,8.756c-15.687,0-28.449,12.763-28.449,28.451   C308.364,50.903,304.444,54.823,299.608,54.823z"/>
	<path style="fill:#AEE4FF;" d="M419.89,135.994h-9.575c-4.836,0-8.756-3.921-8.756-8.756c0-4.836,3.921-8.756,8.756-8.756h9.575   c4.836,0,8.756,3.921,8.756,8.756C428.646,132.073,424.726,135.994,419.89,135.994z"/>
</g>
<g>
	<path style="fill:#3CA5C6;" d="M506.655,440.994c-16.736,15.805-43.481,15.642-59.996-0.512c-0.003-0.003-0.007-0.008-0.01-0.011   c-11.475-11.234-26.724-17.419-42.934-17.419c-16.213,0-31.461,6.185-42.937,17.419c-0.004,0.003-0.007,0.008-0.011,0.011   c-16.696,16.33-43.849,16.33-60.544,0c-0.003-0.003-0.007-0.008-0.01-0.011c-11.477-11.234-26.726-17.419-42.938-17.419   s-31.458,6.185-42.937,17.419c-0.004,0.005-0.009,0.011-0.014,0.015c-8.094,7.914-18.842,12.275-30.266,12.275   c-11.428,0-22.178-4.361-30.273-12.278c-0.004-0.004-0.007-0.009-0.011-0.012c-11.475-11.234-26.724-17.419-42.934-17.419   c-16.212,0-31.458,6.185-42.937,17.418c-0.007,0.007-0.012,0.013-0.019,0.02c-8.094,7.912-18.84,12.272-30.263,12.272   c-11.431,0-22.187-4.364-30.283-12.288c-0.606-0.593-1.281-1.076-1.994-1.463v22.168c9.584,5.914,20.681,9.095,32.277,9.095   c16.211,0,31.458-6.185,42.935-17.418c0.003-0.003,0.007-0.008,0.01-0.012c8.096-7.918,18.847-12.279,30.273-12.279   c11.425,0,22.17,4.358,30.265,12.273c0.007,0.007,0.011,0.013,0.018,0.02c11.475,11.232,26.725,17.417,42.937,17.417   c16.211,0,31.458-6.185,42.934-17.418c0.004-0.005,0.009-0.011,0.014-0.015c8.094-7.915,18.843-12.276,30.268-12.276   s22.173,4.358,30.265,12.273c0.007,0.007,0.013,0.013,0.019,0.02c11.837,11.584,27.387,17.378,42.935,17.378   c15.549,0,31.097-5.793,42.934-17.378c0.007-0.007,0.012-0.013,0.019-0.02c8.094-7.913,18.842-12.273,30.265-12.273   s22.169,4.358,30.263,12.273c0.007,0.007,0.011,0.013,0.017,0.02c11.838,11.586,27.385,17.378,42.935,17.378   c10.264,0,20.525-2.543,29.724-7.592v-21.648H506.655z"/>
	<path style="fill:#3CA5C6;" d="M506.655,379.699c-16.736,15.805-43.481,15.642-59.996-0.512c-0.003-0.003-0.007-0.008-0.01-0.011   c-11.475-11.234-26.724-17.419-42.934-17.419c-16.213,0-31.461,6.185-42.937,17.419c-0.004,0.003-0.007,0.008-0.011,0.011   c-16.696,16.33-43.849,16.33-60.544,0c-0.003-0.003-0.007-0.008-0.01-0.011c-11.477-11.234-26.726-17.419-42.938-17.419   s-31.458,6.185-42.937,17.419c-0.004,0.005-0.009,0.011-0.014,0.015c-8.094,7.915-18.842,12.275-30.266,12.275   c-11.428,0-22.178-4.361-30.273-12.278c-0.004-0.004-0.007-0.009-0.011-0.012c-11.475-11.234-26.724-17.419-42.934-17.419   c-16.212,0-31.458,6.185-42.937,17.418c-0.007,0.007-0.012,0.013-0.019,0.02c-8.094,7.912-18.84,12.272-30.263,12.272   c-11.431,0-22.187-4.364-30.283-12.289c-0.606-0.593-1.281-1.076-1.994-1.463v22.168c9.584,5.914,20.681,9.096,32.277,9.096   c16.211,0,31.458-6.185,42.935-17.418c0.003-0.003,0.007-0.008,0.01-0.012c8.096-7.918,18.847-12.279,30.273-12.279   c11.425,0,22.17,4.358,30.265,12.273c0.007,0.007,0.011,0.013,0.018,0.02c11.475,11.232,26.725,17.417,42.937,17.417   c16.211,0,31.458-6.185,42.934-17.418c0.004-0.005,0.009-0.011,0.014-0.015c8.094-7.915,18.843-12.276,30.268-12.276   s22.173,4.358,30.265,12.273c0.007,0.007,0.013,0.013,0.019,0.02c11.837,11.584,27.387,17.378,42.935,17.378   c15.549,0,31.097-5.793,42.934-17.378c0.007-0.007,0.012-0.013,0.019-0.02c8.094-7.913,18.842-12.273,30.265-12.273   s22.169,4.358,30.263,12.273c0.007,0.007,0.011,0.013,0.017,0.02c11.838,11.586,27.385,17.378,42.935,17.378   c10.264,0,20.525-2.543,29.724-7.592v-21.648H506.655z"/>
	<path style="fill:#3CA5C6;" d="M506.655,318.404c-16.736,15.805-43.481,15.642-59.996-0.512c-0.003-0.003-0.007-0.008-0.01-0.011   c-11.475-11.234-26.724-17.419-42.934-17.419c-16.213,0-31.461,6.185-42.937,17.419c-0.004,0.003-0.007,0.008-0.011,0.011   c-16.696,16.33-43.849,16.33-60.544,0c-0.003-0.003-0.007-0.008-0.01-0.011c-11.477-11.234-26.726-17.419-42.938-17.419   s-31.458,6.185-42.937,17.419c-0.004,0.005-0.009,0.011-0.014,0.015c-8.094,7.914-18.842,12.275-30.266,12.275   c-11.428,0-22.178-4.361-30.273-12.278c-0.004-0.004-0.007-0.009-0.011-0.012c-11.475-11.234-26.724-17.419-42.934-17.419   c-16.212,0-31.458,6.185-42.937,17.418c-0.007,0.007-0.012,0.013-0.019,0.02c-8.094,7.912-18.84,12.272-30.263,12.272   c-11.431,0-22.187-4.364-30.283-12.289c-0.606-0.593-1.281-1.076-1.994-1.463v22.168c9.584,5.914,20.681,9.096,32.277,9.096   c16.211,0,31.458-6.185,42.935-17.418c0.003-0.003,0.007-0.008,0.01-0.012c8.096-7.918,18.847-12.279,30.273-12.279   c11.425,0,22.17,4.358,30.265,12.273c0.007,0.007,0.011,0.013,0.018,0.019c11.475,11.232,26.725,17.417,42.937,17.417   c16.211,0,31.458-6.185,42.934-17.418c0.004-0.005,0.009-0.011,0.014-0.015c8.094-7.915,18.843-12.276,30.268-12.276   s22.173,4.358,30.265,12.273c0.007,0.007,0.013,0.013,0.019,0.019c11.837,11.584,27.387,17.378,42.935,17.378   c15.549,0,31.097-5.793,42.934-17.378c0.007-0.007,0.012-0.013,0.019-0.019c8.094-7.913,18.842-12.273,30.265-12.273   s22.169,4.358,30.263,12.273c0.007,0.007,0.011,0.013,0.017,0.019c11.838,11.586,27.385,17.378,42.935,17.378   c10.264,0,20.525-2.543,29.724-7.593v-21.645H506.655z"/>
</g>
<g>
</g>
<g>
</g>
<g>
</g>
<g>
</g>
<g>
</g>
<g>
</g>
<g>
</g>
<g>
</g>
<g>
</g>
<g>
</g>
<g>
</g>
<g>
</g>
<g>
</g>
<g>
</g>
<g>
</g>
</svg>
