<?xml version="1.0" encoding="iso-8859-1"?>
<!-- Generator: Adobe Illustrator 19.0.0, SVG Export Plug-In . SVG Version: 6.00 Build 0)  -->
<svg xmlns="http://www.w3.org/2000/svg" xmlns:xlink="http://www.w3.org/1999/xlink" version="1.1" id="Layer_1" x="0px" y="0px" viewBox="0 0 512 512" style="enable-background:new 0 0 512 512;" xml:space="preserve">
<path style="fill:#ED5145;" d="M93.934,225.941c0,0,41.13-37.379,87.625,5.192c0.106-39.825,32.417-72.078,72.269-72.078  c38.592,0,70.116,30.25,72.163,68.332c27.572-13.904,65.405-23.189,97.667,3.944h15.902c0-102.579-83.155-185.733-185.733-185.733  c-102.233,0-185.163,82.599-185.72,184.701L93.934,225.941z"/>
<path style="fill:#F75C54;" d="M253.828,45.597c-32.343,0-62.747,8.276-89.228,22.811c8.194,38.389,26.605,72.987,52.257,100.817  c10.817-6.453,23.458-10.171,36.971-10.171c38.592,0,70.116,30.25,72.163,68.332c27.572-13.904,65.405-23.189,97.667,3.944h7.866  c2.688-0.724,5.361-1.483,8.006-2.308C438.293,127.51,355.634,45.597,253.828,45.597z"/>
<path style="fill:#F29F26;" d="M177.92,229.701c0.614,0.557,1.232,1.094,1.848,1.629h1.785c0-39.914,32.357-72.276,72.274-72.276  c39.914,0,72.274,32.36,72.274,72.276h2.341c6.655-7.221,32.892-31.37,73.092-14.443c-2.771-28.678-13.694-54.971-30.436-76.523  l-14.486-16.087c-26.669-25.612-62.89-41.355-102.785-41.355c-77.605,0-141.286,59.569-147.842,135.476  C122.903,209.81,149.678,204.194,177.92,229.701z"/>
<path style="fill:#F9A83D;" d="M371.098,140.363l-14.486-16.087c-26.669-25.612-62.89-41.355-102.785-41.355  c-28.579,0-55.264,8.086-77.91,22.084c9.793,23.854,23.736,45.559,40.94,64.222c10.817-6.453,23.457-10.172,36.97-10.172  c39.914,0,72.274,32.36,72.274,72.276h2.341c6.655-7.221,32.892-31.37,73.092-14.443  C398.763,188.208,387.841,161.916,371.098,140.363z"/>
<path style="fill:#58C445;" d="M168.323,220.799h14.003c5.099-34.921,35.162-61.745,71.502-61.745  c36.337,0,66.402,26.823,71.502,61.745h16.391l7.549-3.503c3.969-3.091,8.355-5.379,12.944-6.87  c-9.771-50.962-54.579-89.468-108.386-89.468c-53.561,0-98.206,38.153-108.253,88.766c6.251,1.633,12.205,4.708,17.333,9.234  C164.631,219.547,166.455,220.166,168.323,220.799z"/>
<path style="fill:#6AD354;" d="M253.828,120.957c-22.267,0-42.991,6.599-60.331,17.942c6.887,10.804,14.713,20.946,23.359,30.327  c10.818-6.455,23.459-10.171,36.973-10.171c36.337,0,66.402,26.823,71.502,61.745h16.391l7.549-3.503  c3.969-3.091,8.355-5.379,12.944-6.87C352.443,159.463,307.634,120.957,253.828,120.957z"/>
<g>
	<path style="fill:#9FDEF7;" d="M464.551,224.239c-4.141,0-8.133,0.635-11.884,1.811c0.021-0.601,0.045-1.203,0.045-1.811   c0-29.487-23.903-53.389-53.387-53.389c-25.424,0-46.683,17.777-52.06,41.575c-3.189-1.064-6.599-1.648-10.147-1.648   c-10.923,0-20.563,5.468-26.344,13.814c-3.226-0.834-6.611-1.282-10.098-1.282c-22.179,0-40.157,17.979-40.157,40.156   c0,22.179,17.978,40.158,40.157,40.158h131.391h22.478h10.007c21.921,0,39.692-17.773,39.692-39.692   C504.243,242.008,486.473,224.239,464.551,224.239z"/>
	<path style="fill:#9FDEF7;" d="M130.013,259.753h-65.04H47.154h-7.933c-17.379,0-31.465-14.088-31.465-31.466   c0-17.379,14.087-31.464,31.465-31.464c3.282,0,6.447,0.504,9.42,1.436c-0.017-0.476-0.037-0.953-0.037-1.436   c0-23.374,18.949-42.321,42.322-42.321c20.153,0,37.004,14.093,41.269,32.957c2.528-0.843,5.23-1.307,8.042-1.307   c8.659,0,16.302,4.337,20.885,10.951c2.557-0.662,5.24-1.016,8.006-1.016c17.581,0,31.832,14.252,31.832,31.833   s-14.251,31.833-31.832,31.833h-9.617"/>
</g>
<g>
	<path style="fill:#83D4ED;" d="M80.974,170.851c0-5.229,0.37-10.371,1.067-15.407c-19.106,4.083-33.436,21.054-33.436,41.379   c0,0.482,0.021,0.96,0.037,1.436c-2.975-0.931-6.139-1.436-9.42-1.436c-17.379,0-31.465,14.086-31.465,31.464   c0,17.379,14.087,31.466,31.465,31.466h7.933h17.818h60.384C98.405,239.456,80.974,207.189,80.974,170.851z"/>
	<path style="fill:#83D4ED;" d="M345.407,228.055c0-5.379,0.424-10.658,1.233-15.81c-3.01-0.938-6.202-1.467-9.522-1.467   c-10.923,0-20.563,5.468-26.344,13.814c-3.226-0.834-6.611-1.282-10.098-1.282c-22.179,0-40.157,17.979-40.157,40.156   c0,22.179,17.978,40.158,40.157,40.158h78.651C358.519,285.095,345.407,258.108,345.407,228.055z"/>
</g>
<g>
	<path style="fill:#5ABCE2;" d="M503.365,313.337H8.635c-4.768,0-8.635-3.866-8.635-8.635s3.866-8.635,8.635-8.635h494.731   c4.77,0,8.635,3.866,8.635,8.635S508.135,313.337,503.365,313.337z"/>
	<path style="fill:#5ABCE2;" d="M473.043,364.361h-29.117c-4.77,0-8.635-3.866-8.635-8.635s3.865-8.635,8.635-8.635h29.117   c4.77,0,8.635,3.866,8.635,8.635S477.813,364.361,473.043,364.361z"/>
	<path style="fill:#5ABCE2;" d="M415.863,364.361H38.957c-4.768,0-8.635-3.866-8.635-8.635s3.866-8.635,8.635-8.635h376.906   c4.77,0,8.635,3.866,8.635,8.635S420.632,364.361,415.863,364.361z"/>
	<path style="fill:#5ABCE2;" d="M432.658,415.379H192.439c-4.768,0-8.635-3.866-8.635-8.635s3.866-8.635,8.635-8.635h240.22   c4.768,0,8.635,3.866,8.635,8.635C441.293,411.514,437.427,415.379,432.658,415.379z"/>
	<path style="fill:#5ABCE2;" d="M163.3,415.379H79.342c-4.768,0-8.635-3.866-8.635-8.635s3.866-8.635,8.635-8.635H163.3   c4.768,0,8.635,3.866,8.635,8.635C171.935,411.514,168.068,415.379,163.3,415.379z"/>
	<path style="fill:#5ABCE2;" d="M389.118,466.403h-97.377c-4.77,0-8.635-3.866-8.635-8.635s3.865-8.635,8.635-8.635h97.377   c4.77,0,8.635,3.866,8.635,8.635S393.887,466.403,389.118,466.403z"/>
	<path style="fill:#5ABCE2;" d="M261.516,466.403H122.885c-4.768,0-8.635-3.866-8.635-8.635s3.866-8.635,8.635-8.635h138.631   c4.768,0,8.635,3.866,8.635,8.635S266.284,466.403,261.516,466.403z"/>
</g>
<g>
</g>
<g>
</g>
<g>
</g>
<g>
</g>
<g>
</g>
<g>
</g>
<g>
</g>
<g>
</g>
<g>
</g>
<g>
</g>
<g>
</g>
<g>
</g>
<g>
</g>
<g>
</g>
<g>
</g>
</svg>
