<?xml version="1.0" encoding="iso-8859-1"?>
<!-- Generator: Adobe Illustrator 19.0.0, SVG Export Plug-In . SVG Version: 6.00 Build 0)  -->
<svg xmlns="http://www.w3.org/2000/svg" xmlns:xlink="http://www.w3.org/1999/xlink" version="1.1" id="Layer_1" x="0px" y="0px" viewBox="0 0 512 512" style="enable-background:new 0 0 512 512;" xml:space="preserve">
<path style="fill:#9FDEF7;" d="M472.091,7.931C469.626,2.594,462.786,0,451.183,0H62.503C53.402,0,46.81,2.297,42.909,6.824  c-3.308,3.841-4.556,9.201-3.612,15.502c0.014,0.095,0.033,0.187,0.057,0.279c12.372,48.071,54.148,165.168,174.54,214.165  c28.069,11.424,44.722,24.174,50.914,38.979c7.775,18.595-0.86,39.469-10.858,63.64c-18.678,45.157-41.923,101.357,32.873,171.861  c0.525,0.493,1.203,0.75,1.888,0.75c0.483,0,0.968-0.127,1.404-0.387c1.056-0.625,1.57-1.876,1.259-3.064  c-0.067-0.257-6.688-26.029-3.809-56.155c3.822-39.983,21.69-68.313,53.109-84.203c71.717-36.268,95.824-91.426,69.717-159.508  c-27.117-70.712,23.606-144.71,56.284-182.552c0.01-0.011,0.021-0.023,0.029-0.033l0.165-0.192  C468.927,23.491,475.381,15.054,472.091,7.931z"/>
<path style="fill:#83D4ED;" d="M283.712,337.998c9.998-26.93,18.632-50.187,10.857-70.905  c-6.191-16.494-23.238-29.868-50.914-43.429C106.031,156.225,80.625,58.213,71.339,0h-8.835C53.402,0,46.81,2.297,42.909,6.824  c-3.308,3.841-4.556,9.201-3.612,15.502c0.014,0.095,0.033,0.187,0.057,0.279c12.372,48.071,54.148,165.168,174.54,214.165  c28.069,11.424,44.722,24.174,50.914,38.979c7.775,18.595-0.86,39.469-10.858,63.64c-18.678,45.157-41.923,101.357,32.873,171.861  c0.397,0.375,0.886,0.611,1.398,0.705C249.343,445.561,268.009,380.292,283.712,337.998z"/>
<path style="fill:#E4F2F9;" d="M287.393,454.394h-31.1h-8.352h-3.54c2.506,5.758,5.598,11.631,9.348,17.617h2.543h30.596  C286.763,466.463,286.887,460.531,287.393,454.394z"/>
<path style="fill:#D7EDF9;" d="M267.344,454.394h-11.051h-8.352h-3.54c1.253,2.877,2.651,5.785,4.206,8.721  c0.001,0.001,0.002,0.002,0.002,0.002c1.554,2.934,3.262,5.897,5.135,8.886c0.001,0.003,0.002,0.007,0.004,0.009h2.543h14.909  C269.554,466.086,268.285,460.209,267.344,454.394z"/>
<path style="fill:#E4F2F9;" d="M291.984,408.349h-14.139h-11.643h-3.213h-27.706c-0.155,5.739,0.137,11.611,0.983,17.617h26.723  h3.213h11.643h14.139h0.664c1.903-6.266,4.266-12.14,7.088-17.617H291.984z"/>
<path style="fill:#D7EDF9;" d="M262.989,425.966h2.188c0.034-5.984,0.359-11.862,0.923-17.617h-3.111h-27.706v0.02  c-0.075,2.82-0.041,5.671,0.112,8.555c0.004,0.091,0.01,0.183,0.015,0.274c0.161,2.89,0.438,5.813,0.856,8.769h26.723V425.966z"/>
<path style="fill:#E4F2F9;" d="M302.094,362.304h-19.698h-37.475c-2.041,5.713-3.919,11.583-5.464,17.617h42.939h19.698h20.501  c5.421-4.457,11.445-8.373,18.079-11.729c3.777-1.909,7.412-3.874,10.924-5.889H302.094z"/>
<path style="fill:#D7EDF9;" d="M275.489,362.304h-30.568c-0.51,1.427-1.011,2.865-1.496,4.312c-0.001,0.002-0.002,0.004-0.002,0.004  c-1.461,4.345-2.807,8.777-3.965,13.301h31.356C272.215,373.824,273.802,367.941,275.489,362.304z"/>
<path style="fill:#E4F2F9;" d="M389.204,333.877c5.489-5.621,10.262-11.497,14.321-17.617h-40.212h-62.196H262.94  c-1.904,5.672-4.227,11.538-6.718,17.617h44.892h62.196H389.204z"/>
<path style="fill:#D7EDF9;" d="M262.94,316.26c-0.002,0.007-0.006,0.014-0.008,0.021c-0.471,1.405-0.969,2.823-1.489,4.252  c-0.007,0.015-0.011,0.029-0.018,0.044c-0.516,1.419-1.053,2.85-1.609,4.292c-0.014,0.039-0.029,0.076-0.043,0.113  c-0.548,1.421-1.112,2.854-1.69,4.299c-0.024,0.062-0.05,0.121-0.073,0.183c-0.579,1.446-1.172,2.905-1.774,4.376  c-0.006,0.012-0.011,0.024-0.015,0.036h29.017c2.238-6.055,4.367-11.925,6.205-17.617H262.94V316.26z"/>
<path style="fill:#E4F2F9;" d="M391.738,270.214h-44.379h-40.798h-19.439h-25.179c1.124,1.812,2.08,3.657,2.865,5.535  c1.639,3.922,2.542,7.948,2.864,12.082h19.452h19.439h40.798h44.379h24.981c1.63-5.713,2.745-11.589,3.352-17.617H391.738z"/>
<path style="fill:#D7EDF9;" d="M261.942,270.214c0.276,0.445,0.542,0.893,0.797,1.341c0.005,0.009,0.011,0.018,0.017,0.025  c0.239,0.421,0.466,0.843,0.686,1.266c0.021,0.039,0.043,0.076,0.063,0.116c0.196,0.377,0.379,0.755,0.559,1.133  c0.041,0.087,0.086,0.173,0.127,0.259c0.216,0.462,0.422,0.928,0.618,1.395c0.225,0.537,0.433,1.078,0.63,1.619  c0.073,0.199,0.138,0.397,0.207,0.597c0.116,0.339,0.232,0.677,0.339,1.017c0.079,0.252,0.154,0.507,0.228,0.761  c0.08,0.279,0.161,0.557,0.235,0.837c0.078,0.294,0.154,0.587,0.225,0.882c0.054,0.225,0.105,0.449,0.155,0.674  c0.075,0.342,0.151,0.682,0.217,1.024c0.023,0.12,0.043,0.24,0.065,0.359c0.264,1.425,0.451,2.862,0.565,4.313h19.452h10.354  c0.324-6.078-0.206-11.942-1.876-17.617h-8.478L261.942,270.214L261.942,270.214z"/>
<path style="fill:#E4F2F9;" d="M419.29,241.786c-0.848-5.76-2.099-11.633-3.765-17.617h-24.351h-141.81h-60.238  c-0.554,0-1.093,0.057-1.62,0.155c8.347,4.509,17.133,8.681,26.386,12.447c4.039,1.643,7.832,3.316,11.402,5.016h24.07h141.81  h28.116V241.786z"/>
<path style="fill:#D7EDF9;" d="M217.33,238.203c0.772,0.328,1.536,0.658,2.289,0.989c0.137,0.061,0.272,0.12,0.41,0.181  c0.835,0.369,1.658,0.739,2.469,1.11c0.054,0.023,0.106,0.047,0.159,0.072c0.89,0.407,1.766,0.816,2.628,1.227  c0.003,0.002,0.008,0.004,0.011,0.006h24.07h24.691c-7.825-6.02-17.628-11.806-29.381-17.617h-55.547  c-0.554,0-1.093,0.057-1.62,0.155c1.926,1.039,3.88,2.058,5.853,3.061c0.48,0.246,0.969,0.484,1.452,0.727  c1.508,0.758,3.032,1.501,4.568,2.235c0.622,0.297,1.246,0.592,1.872,0.886c1.482,0.694,2.978,1.373,4.486,2.044  c0.61,0.272,1.213,0.548,1.828,0.816c2.085,0.912,4.19,1.808,6.325,2.677c0.963,0.391,1.909,0.786,2.846,1.18  C216.938,238.035,217.132,238.12,217.33,238.203z"/>
<path style="fill:#E4F2F9;" d="M392.505,178.123h-15.307h-33.095h-11.835H181.564h-55.982c6.08,6.06,12.55,11.954,19.434,17.617  h36.547h150.703h11.835h33.095h15.307h11.835h1.948c-1.49-5.874-2.483-11.754-3.04-17.617H392.505z"/>
<path style="fill:#D7EDF9;" d="M171.345,178.123h-45.764c0.003,0.002,0.004,0.003,0.007,0.006c2.965,2.958,6.028,5.871,9.183,8.741  c0.203,0.184,0.406,0.367,0.61,0.551c1.363,1.233,2.745,2.456,4.146,3.672c0.236,0.205,0.471,0.41,0.708,0.614  c1.569,1.353,3.157,2.695,4.772,4.024c0.003,0.003,0.007,0.007,0.011,0.01h36.547h13.584  C186.63,189.985,178.709,184.103,171.345,178.123z"/>
<path style="fill:#E4F2F9;" d="M377.196,132.078H133.752h-45.82c3.934,5.895,8.146,11.783,12.651,17.617h33.168h243.446h26.585  c0.752-5.937,1.877-11.817,3.318-17.617C407.099,132.078,377.196,132.078,377.196,132.078z"/>
<path style="fill:#D7EDF9;" d="M87.932,132.078c3.934,5.895,8.146,11.783,12.651,17.617h33.168h7.103  c-5.422-5.842-10.406-11.723-15.004-17.617C125.849,132.078,87.932,132.078,87.932,132.078z"/>
<path style="fill:#E4F2F9;" d="M394.478,86.034H292.952h-14.959h-45.278h-14.959H106.223H62.145  c2.68,5.758,5.603,11.646,8.791,17.617h35.286h111.532h14.959h45.278h14.959h101.526h22.242c2.568-6.033,5.394-11.916,8.402-17.617  H394.478z"/>
<path style="fill:#D7EDF9;" d="M97.13,86.034H62.145c0.003,0.006,0.007,0.011,0.009,0.017c2.673,5.747,5.591,11.624,8.772,17.583  c0.004,0.006,0.007,0.012,0.011,0.019h35.286h0.323C103.084,97.737,99.952,91.854,97.13,86.034z"/>
<path style="fill:#E4F2F9;" d="M429.252,39.989H83.211H44.319c1.712,5.469,3.703,11.374,6.004,17.617h32.888h346.039h13.109  c4.302-6.284,8.663-12.179,12.918-17.617H429.252z"/>
<path style="fill:#D7EDF9;" d="M79.849,39.989H44.319c0.001,0.004,0.002,0.008,0.004,0.011c0.849,2.719,1.769,5.543,2.761,8.464  c0.009,0.025,0.018,0.048,0.025,0.073c0.995,2.932,2.066,5.959,3.213,9.071h32.888h2.14C83.258,51.595,81.438,45.711,79.849,39.989z  "/>
<g>
</g>
<g>
</g>
<g>
</g>
<g>
</g>
<g>
</g>
<g>
</g>
<g>
</g>
<g>
</g>
<g>
</g>
<g>
</g>
<g>
</g>
<g>
</g>
<g>
</g>
<g>
</g>
<g>
</g>
</svg>
