<?xml version="1.0" encoding="iso-8859-1"?>
<!-- Generator: Adobe Illustrator 19.0.0, SVG Export Plug-In . SVG Version: 6.00 Build 0)  -->
<svg xmlns="http://www.w3.org/2000/svg" xmlns:xlink="http://www.w3.org/1999/xlink" version="1.1" id="Layer_1" x="0px" y="0px" viewBox="0 0 512 512" style="enable-background:new 0 0 512 512;" xml:space="preserve">
<path style="fill:#664E30;" d="M405.084,435.647v-3.581v-25.271h-40.537v25.271v3.581v14.821v54.123c0,1.701,1.378,3.08,3.081,3.08  h34.379c1.699,0,3.078-1.378,3.078-3.08v-41.133"/>
<path style="fill:#564228;" d="M384.816,504.59v-54.123v-14.821v-3.581v-25.271h-20.269v25.271v3.581v14.821v54.123  c0,1.701,1.378,3.08,3.081,3.08h20.269C386.194,507.67,384.816,506.291,384.816,504.59z"/>
<g>
	<path style="fill:#C7E6F9;" d="M279.277,212.589H18.774c-4.782,0-8.66,3.877-8.66,8.66c0,4.782,3.877,8.66,8.66,8.66h260.503   c4.782,0,8.66-3.877,8.66-8.66C287.937,216.466,284.059,212.589,279.277,212.589z"/>
	<path style="fill:#C7E6F9;" d="M15.899,252.493H8.66c-4.782,0-8.66,3.877-8.66,8.66c0,4.782,3.877,8.66,8.66,8.66h7.239   c4.782,0,8.66-3.877,8.66-8.66C24.559,256.37,20.68,252.493,15.899,252.493z"/>
	<path style="fill:#C7E6F9;" d="M143.161,252.493H43.773c-4.782,0-8.66,3.877-8.66,8.66c0,4.782,3.877,8.66,8.66,8.66h99.388   c15.541,0,28.186,12.645,28.186,28.188c0,15.177-12.059,27.585-27.096,28.161c-0.358-0.045-0.72-0.076-1.09-0.076   c-15.514,0-28.135-12.622-28.135-28.137c0-4.782-3.877-8.66-8.66-8.66s-8.66,3.877-8.66,8.66c0,24.553,19.571,44.609,43.93,45.418   c0.496,0.088,1.003,0.142,1.524,0.142c25.092,0,45.505-20.414,45.505-45.507S168.252,252.493,143.161,252.493z"/>
	<path style="fill:#C7E6F9;" d="M118.859,186.428h116.706c25.093,0,45.507-20.414,45.507-45.507s-20.414-45.507-45.507-45.507   c-0.521,0-1.028,0.054-1.524,0.142c-24.36,0.809-43.93,20.864-43.93,45.418c0,4.782,3.877,8.66,8.66,8.66s8.66-3.877,8.66-8.66   c0-15.515,12.621-28.136,28.135-28.136c0.37,0,0.732-0.031,1.09-0.076c15.04,0.576,27.098,12.983,27.098,28.161   c0,15.543-12.645,28.188-28.188,28.188H118.859c-4.782,0-8.66,3.877-8.66,8.66S114.076,186.428,118.859,186.428z"/>
</g>
<path style="fill:#58C445;" d="M511.43,404.375l-60.683-121.363h29.522c0.008,0,0.015,0,0.022,0c2.99,0,5.412-2.423,5.412-5.412  c0-1.037-0.292-2.006-0.797-2.828l-55.118-110.238h29.719c0.008,0,0.014,0,0.022,0c2.99,0,5.412-2.423,5.412-5.412  c0-1.037-0.29-2.006-0.797-2.828L389.657,7.32c-0.917-1.833-2.792-2.991-4.841-2.991c-2.05,0-3.924,1.158-4.842,2.992L305.285,156.7  c-0.838,1.678-0.748,3.671,0.238,5.266c0.986,1.596,2.729,2.566,4.604,2.566h29.719l-55.323,110.646  c-0.838,1.678-0.748,3.671,0.238,5.266c0.986,1.596,2.729,2.566,4.604,2.566h29.522l-60.683,121.363  c-0.838,1.678-0.748,3.671,0.238,5.266c0.986,1.596,2.729,2.566,4.604,2.566h243.543c1.875,0,3.618-0.971,4.604-2.566  C512.177,408.045,512.266,406.053,511.43,404.375z"/>
<g>
	<path style="fill:#45AA30;" d="M310.127,164.533h26.764c-1.875,0-3.618-0.971-4.604-2.566c-0.986-1.597-1.076-3.588-0.238-5.266   l66.149-132.297l-8.542-17.081c-0.916-1.834-2.791-2.992-4.84-2.992c-2.05,0-3.924,1.158-4.842,2.992L305.285,156.7   c-0.838,1.678-0.748,3.671,0.238,5.266C306.509,163.561,308.251,164.533,310.127,164.533z"/>
	<path style="fill:#45AA30;" d="M311.523,280.445c-0.986-1.597-1.076-3.588-0.238-5.266l50.169-100.337   c4.401-8.804-4.248-10.308-4.248-10.308h-17.361l-55.323,110.645c-0.838,1.678-0.748,3.671,0.238,5.266   c0.986,1.596,2.729,2.566,4.604,2.566h26.764C314.251,283.011,312.509,282.039,311.523,280.445z"/>
	<path style="fill:#45AA30;" d="M285.203,409.641c-0.986-1.597-1.076-3.588-0.238-5.266l55.955-111.909   c4.31-8.643-5.364-9.454-5.364-9.454h-16.672l-60.683,121.363c-0.838,1.678-0.748,3.671,0.238,5.266   c0.986,1.596,2.729,2.566,4.604,2.566h26.764C287.932,412.207,286.191,411.236,285.203,409.641z"/>
</g>
<g>
</g>
<g>
</g>
<g>
</g>
<g>
</g>
<g>
</g>
<g>
</g>
<g>
</g>
<g>
</g>
<g>
</g>
<g>
</g>
<g>
</g>
<g>
</g>
<g>
</g>
<g>
</g>
<g>
</g>
</svg>
