<?xml version="1.0" encoding="iso-8859-1"?>
<!-- Generator: Adobe Illustrator 19.0.0, SVG Export Plug-In . SVG Version: 6.00 Build 0)  -->
<svg xmlns="http://www.w3.org/2000/svg" xmlns:xlink="http://www.w3.org/1999/xlink" version="1.1" id="Layer_1" x="0px" y="0px" viewBox="0 0 512.011 512.011" style="enable-background:new 0 0 512.011 512.011;" xml:space="preserve">
<path style="fill:#EAC71C;" d="M163.37,367.826c31.6,30.877,62.131-24.828,92.637-24.828s36.467,29.907,77.745,29.907  c31.285,0,34.339-26.237,60.146-27.488c13.756-23.58,21.645-51.001,21.645-80.27c0-88.109-71.428-159.536-159.537-159.536  c-88.11,0-159.537,71.428-159.537,159.536c0,28.299,7.378,54.872,20.301,77.917C126.099,343.584,142.919,347.842,163.37,367.826z"/>
<path style="fill:#EDE21B;" d="M256.004,105.61c-30.292,0-58.612,8.442-82.735,23.103c-6.596,20.137-10.177,41.639-10.177,63.981  c0,62.896,28.283,119.178,72.812,156.851c6.708-3.863,13.405-6.547,20.101-6.547c30.505,0,36.467,29.907,77.745,29.907  c31.284,0,34.339-26.237,60.146-27.488c13.756-23.58,21.645-51.001,21.645-80.27C415.541,177.038,344.113,105.61,256.004,105.61z"/>
<path style="fill:#EF8229;" d="M200.285,372.7c18.737-9.248,37.234-29.702,55.721-29.702c25.345,0,33.765,20.63,59.558,27.616  c36.569-20.766,61.242-60.059,61.242-105.116c0-66.715-54.085-120.801-120.801-120.801s-120.802,54.085-120.802,120.801  C135.202,312.116,161.613,352.559,200.285,372.7z"/>
<g>
	<path style="fill:#EDE21B;" d="M256.004,76.4c-4.758,0-8.616-3.857-8.616-8.616V18.192c0-4.758,3.858-8.616,8.616-8.616   s8.616,3.858,8.616,8.616v49.593C264.62,72.542,260.762,76.4,256.004,76.4z"/>
	<path style="fill:#EDE21B;" d="M157.248,102.865c-2.979,0-5.874-1.545-7.47-4.309l-24.795-42.948   c-2.38-4.122-0.967-9.39,3.153-11.769c4.12-2.38,9.391-0.966,11.769,3.153l24.795,42.948c2.38,4.122,0.967,9.39-3.153,11.769   C160.191,102.493,158.709,102.865,157.248,102.865z"/>
	<path style="fill:#EDE21B;" d="M84.931,175.167c-1.461,0-2.942-0.373-4.299-1.156l-42.948-24.796   c-4.12-2.379-5.533-7.649-3.153-11.769c2.378-4.12,7.646-5.534,11.769-3.153l42.948,24.796c4.12,2.379,5.533,7.649,3.153,11.769   C90.805,173.621,87.909,175.167,84.931,175.167z"/>
	<path style="fill:#EDE21B;" d="M58.473,273.931H8.88c-4.758,0-8.616-3.858-8.616-8.616c0-4.758,3.858-8.616,8.616-8.616h49.593   c4.758,0,8.616,3.858,8.616,8.616C67.089,270.073,63.231,273.931,58.473,273.931z"/>
	<path style="fill:#EDE21B;" d="M503.128,273.931h-49.593c-4.758,0-8.616-3.858-8.616-8.616c0-4.758,3.858-8.616,8.616-8.616h49.593   c4.758,0,8.616,3.858,8.616,8.616C511.744,270.073,507.886,273.931,503.128,273.931z"/>
	<path style="fill:#EDE21B;" d="M427.081,175.167c-2.979,0-5.874-1.545-7.47-4.309c-2.379-4.12-0.967-9.39,3.153-11.769   l42.946-24.796c4.12-2.377,9.39-0.968,11.769,3.153c2.379,4.12,0.968,9.39-3.153,11.769l-42.946,24.796   C430.023,174.794,428.542,175.167,427.081,175.167z"/>
	<path style="fill:#EDE21B;" d="M354.76,102.865c-1.461,0-2.942-0.373-4.299-1.156c-4.12-2.379-5.532-7.649-3.153-11.769   l24.797-42.948c2.379-4.122,7.649-5.533,11.769-3.153c4.12,2.379,5.532,7.649,3.153,11.769L362.23,98.556   C360.634,101.32,357.739,102.865,354.76,102.865z"/>
</g>
<path style="fill:#F29F26;" d="M256.004,144.696c-37.327,0-70.697,16.934-92.856,43.535c-0.031,1.484-0.057,2.97-0.057,4.462  c0,62.897,28.284,119.181,72.815,156.854c6.708-3.862,13.404-6.55,20.098-6.55c25.345,0,33.765,20.63,59.558,27.616  c36.569-20.766,61.242-60.059,61.242-105.116C376.805,198.781,322.721,144.696,256.004,144.696z"/>
<g>
	<path style="fill:#5ABCE2;" d="M43.962,381.521c15.643,0,30.357-6.099,41.433-17.174c0.005-0.005,0.009-0.011,0.014-0.015   c7.819-7.812,18.199-12.115,29.235-12.115c11.033,0,21.414,4.301,29.232,12.114c0.005,0.005,0.01,0.012,0.016,0.017   c11.423,11.421,26.43,17.133,41.435,17.133c15.005,0,30.01-5.712,41.433-17.133c0.006-0.006,0.012-0.013,0.018-0.019   c7.818-7.81,18.197-12.111,29.231-12.111c11.034,0,21.417,4.302,29.235,12.115c0.005,0.004,0.009,0.01,0.014,0.015   c11.074,11.075,25.789,17.174,41.433,17.174s30.358-6.099,41.434-17.173c0.007-0.006,0.012-0.013,0.018-0.019   c7.818-7.81,18.197-12.111,29.231-12.111c11.034,0,21.417,4.302,29.236,12.115c0.004,0.004,0.009,0.01,0.014,0.015   c11.073,11.075,25.789,17.174,41.433,17.174c15.643,0,30.358-6.099,41.433-17.174c3.364-3.364,3.364-8.819-0.001-12.184   c-3.363-3.363-8.818-3.364-12.184,0.001c-7.82,7.82-18.206,12.127-29.247,12.127c-11.035,0-21.415-4.302-29.234-12.114   c-0.004-0.004-0.009-0.01-0.014-0.015c-11.075-11.077-25.79-17.175-41.435-17.175c-15.643,0-30.358,6.1-41.433,17.175   c-0.003,0.003-0.006,0.008-0.01,0.012c-7.821,7.813-18.203,12.117-29.239,12.117c-11.034,0-21.416-4.302-29.234-12.114   c-0.005-0.004-0.009-0.01-0.014-0.015c-11.075-11.077-25.79-17.175-41.435-17.175c-15.644,0-30.358,6.1-41.433,17.175   c-0.004,0.003-0.006,0.008-0.01,0.012c-16.125,16.112-42.35,16.112-58.478,0.001c-0.004-0.004-0.008-0.009-0.012-0.013   c-11.073-11.075-25.788-17.175-41.432-17.175c-15.643,0-30.357,6.099-41.434,17.175c-0.005,0.005-0.009,0.011-0.014,0.015   c-7.818,7.811-18.198,12.114-29.234,12.114c-11.042,0-21.429-4.307-29.25-12.128c-3.364-3.363-8.819-3.364-12.184,0.001   c-3.364,3.364-3.364,8.82,0.001,12.185C13.603,375.422,28.317,381.521,43.962,381.521z"/>
	<path style="fill:#5ABCE2;" d="M497.296,412.622c-7.82,7.82-18.206,12.127-29.247,12.127c-11.034,0-21.415-4.302-29.234-12.114   c-0.004-0.004-0.009-0.01-0.014-0.015c-11.075-11.076-25.79-17.175-41.435-17.175c-15.643,0-30.358,6.1-41.433,17.175   c-0.003,0.003-0.006,0.008-0.01,0.012c-7.821,7.813-18.203,12.117-29.239,12.117c-11.035,0-21.416-4.302-29.234-12.114   c-0.005-0.004-0.009-0.01-0.014-0.015c-11.075-11.076-25.79-17.175-41.435-17.175c-15.644,0-30.358,6.1-41.433,17.175   c-0.004,0.003-0.006,0.008-0.01,0.011c-16.125,16.113-42.35,16.113-58.478,0.002c-0.004-0.004-0.008-0.009-0.012-0.013   c-11.073-11.075-25.788-17.175-41.432-17.175c-15.643,0-30.357,6.099-41.434,17.175c-0.005,0.005-0.009,0.011-0.014,0.015   c-7.818,7.811-18.198,12.114-29.234,12.114c-11.042,0-21.429-4.307-29.25-12.128c-3.364-3.363-8.819-3.364-12.184,0.001   c-3.364,3.364-3.364,8.82,0.001,12.185c11.074,11.074,25.789,17.173,41.434,17.173c15.643,0,30.357-6.099,41.433-17.174   c0.005-0.005,0.009-0.011,0.014-0.015c7.819-7.812,18.199-12.115,29.235-12.115c11.033,0,21.414,4.301,29.232,12.114   c0.005,0.005,0.01,0.012,0.016,0.017c11.423,11.421,26.43,17.133,41.435,17.133s30.01-5.712,41.433-17.133   c0.006-0.006,0.012-0.013,0.018-0.019c7.818-7.81,18.197-12.111,29.231-12.111c11.035,0,21.417,4.302,29.235,12.115   c0.005,0.004,0.009,0.01,0.014,0.015c11.074,11.075,25.789,17.174,41.433,17.174s30.358-6.099,41.434-17.173   c0.007-0.006,0.012-0.013,0.018-0.019c7.818-7.81,18.197-12.111,29.231-12.111c11.034,0,21.417,4.302,29.236,12.115   c0.004,0.004,0.009,0.01,0.014,0.015c11.073,11.075,25.789,17.174,41.433,17.174c15.643,0,30.358-6.099,41.433-17.174   c3.364-3.364,3.364-8.819-0.001-12.184C506.116,409.257,500.662,409.256,497.296,412.622z"/>
	<path style="fill:#5ABCE2;" d="M497.296,473.079c-7.82,7.82-18.206,12.127-29.247,12.127c-11.034,0-21.415-4.302-29.234-12.114   c-0.004-0.004-0.009-0.01-0.014-0.015c-11.075-11.077-25.79-17.175-41.435-17.175c-15.643,0-30.358,6.1-41.433,17.175   c-0.003,0.003-0.006,0.008-0.01,0.012c-7.821,7.813-18.203,12.117-29.239,12.117c-11.035,0-21.416-4.302-29.234-12.114   c-0.005-0.004-0.009-0.01-0.014-0.015c-11.075-11.077-25.79-17.175-41.435-17.175c-15.644,0-30.358,6.1-41.433,17.175   c-0.004,0.003-0.006,0.008-0.01,0.012c-16.125,16.112-42.35,16.112-58.478,0.001c-0.004-0.004-0.008-0.009-0.012-0.013   c-11.073-11.075-25.788-17.175-41.432-17.175c-15.643,0-30.357,6.099-41.434,17.175c-0.005,0.005-0.009,0.011-0.014,0.015   c-7.818,7.811-18.198,12.114-29.234,12.114c-11.042,0-21.429-4.307-29.25-12.128c-3.364-3.363-8.819-3.364-12.184,0.001   c-3.364,3.364-3.364,8.819,0.001,12.184c11.074,11.074,25.789,17.173,41.434,17.173c15.643,0,30.357-6.099,41.433-17.174   c0.005-0.005,0.009-0.011,0.014-0.015c7.819-7.812,18.199-12.115,29.235-12.115c11.033,0,21.414,4.301,29.232,12.114   c0.005,0.005,0.01,0.012,0.016,0.017c11.423,11.421,26.43,17.133,41.435,17.133s30.01-5.712,41.433-17.133   c0.006-0.006,0.012-0.013,0.018-0.019c7.818-7.81,18.197-12.111,29.231-12.111c11.035,0,21.417,4.302,29.235,12.115   c0.005,0.004,0.009,0.01,0.014,0.015c11.074,11.075,25.789,17.174,41.433,17.174s30.358-6.099,41.434-17.173   c0.007-0.006,0.012-0.013,0.018-0.019c7.818-7.81,18.197-12.111,29.231-12.111c11.034,0,21.417,4.302,29.236,12.115   c0.004,0.004,0.009,0.01,0.014,0.015c11.073,11.075,25.789,17.174,41.433,17.174c15.643,0,30.358-6.099,41.433-17.174   c3.364-3.364,3.364-8.819-0.001-12.185C506.116,469.714,500.662,469.713,497.296,473.079z"/>
</g>
<g>
</g>
<g>
</g>
<g>
</g>
<g>
</g>
<g>
</g>
<g>
</g>
<g>
</g>
<g>
</g>
<g>
</g>
<g>
</g>
<g>
</g>
<g>
</g>
<g>
</g>
<g>
</g>
<g>
</g>
</svg>
