<?xml version="1.0" encoding="iso-8859-1"?>
<!-- Generator: Adobe Illustrator 19.0.0, SVG Export Plug-In . SVG Version: 6.00 Build 0)  -->
<svg xmlns="http://www.w3.org/2000/svg" xmlns:xlink="http://www.w3.org/1999/xlink" version="1.1" id="Layer_1" x="0px" y="0px" viewBox="0 0 512.007 512.007" style="enable-background:new 0 0 512.007 512.007;" xml:space="preserve">
<path style="fill:#ED5145;" d="M66.605,292.911c0,0,48.339-43.93,102.982,6.103c0.125-46.806,38.101-84.712,84.936-84.712  c45.356,0,82.404,35.554,84.812,80.308c32.406-16.342,76.868-27.255,114.784,4.635h18.688c0-120.557-97.729-218.287-218.285-218.287  c-120.152,0-217.616,97.077-218.271,217.075L66.605,292.911z"/>
<path style="fill:#F75C54;" d="M254.523,80.958c-38.011,0-73.746,9.726-104.869,26.81c9.631,45.117,31.269,85.781,61.418,118.489  c12.713-7.586,27.57-11.955,43.451-11.955c45.356,0,82.404,35.554,84.812,80.308c32.406-16.342,76.868-27.255,114.784,4.635h9.245  c3.16-0.851,6.302-1.743,9.41-2.712C471.321,177.228,374.173,80.958,254.523,80.958z"/>
<path style="fill:#F29F26;" d="M165.31,297.331c0.724,0.652,1.447,1.285,2.173,1.913h2.097c0-46.912,38.031-84.943,84.943-84.943  c46.911,0,84.943,38.032,84.943,84.943h2.752c7.821-8.488,38.656-36.87,85.902-16.975c-3.256-33.704-16.095-64.606-35.771-89.936  l-17.026-18.907c-31.344-30.102-73.91-48.604-120.8-48.604c-91.206,0-166.052,70.011-173.754,159.221  C100.651,273.954,132.119,267.352,165.31,297.331z"/>
<path style="fill:#F9A83D;" d="M392.349,192.334l-17.026-18.908c-31.344-30.102-73.91-48.604-120.8-48.604  c-33.588,0-64.951,9.503-91.564,25.956c11.511,28.033,27.896,53.545,48.114,75.478c12.715-7.585,27.57-11.955,43.451-11.955  c46.911,0,84.943,38.032,84.943,84.943h2.752c7.821-8.488,38.656-36.87,85.902-16.975  C424.863,248.566,412.024,217.664,392.349,192.334z"/>
<path style="fill:#58C445;" d="M154.032,286.869L170.023,291c5.992-41.044,41.793-76.699,84.501-76.699  c42.706,0,78.042,31.524,84.034,72.567h19.265l8.871-4.119c4.664-3.632,9.821-6.322,15.214-8.074  c-11.484-59.893-64.146-105.149-127.383-105.149c-62.949,0-115.42,44.841-127.226,104.325c7.347,1.919,14.343,5.536,20.37,10.852  C149.692,285.396,151.837,286.125,154.032,286.869z"/>
<path style="fill:#6AD354;" d="M254.523,169.527c-26.171,0-50.526,7.756-70.906,21.087c8.093,12.696,17.68,25.55,27.84,36.573  c12.712-7.587,27.183-12.886,43.065-12.886c42.706,0,82.876,37.972,84.67,80.154l18.628-7.586l8.871-4.119  c4.664-3.632,9.821-6.322,15.214-8.074C370.423,214.783,317.762,169.527,254.523,169.527z"/>
<g>
	<path style="fill:#5ABCE2;" d="M43.962,310.135c15.643,0,30.358-6.099,41.433-17.174c0.004-0.004,0.009-0.01,0.013-0.014   c7.819-7.812,18.201-12.115,29.235-12.115c11.033,0,21.415,4.302,29.233,12.114c0.005,0.005,0.009,0.011,0.014,0.015   c11.423,11.422,26.428,17.133,41.435,17.133c15.005,0,30.01-5.711,41.433-17.133c0.005-0.004,0.009-0.011,0.014-0.015   c7.818-7.812,18.199-12.115,29.235-12.115c11.034,0,21.416,4.302,29.236,12.114c0.004,0.004,0.009,0.01,0.013,0.015   c11.073,11.075,25.789,17.174,41.433,17.174c15.644,0,30.358-6.099,41.434-17.173c0.005-0.005,0.009-0.011,0.014-0.015   c7.819-7.811,18.199-12.114,29.234-12.114c11.033,0,21.416,4.301,29.235,12.113c0.005,0.005,0.01,0.011,0.014,0.016   c11.074,11.075,25.788,17.174,41.433,17.174c15.645,0,30.357-6.099,41.433-17.174c3.364-3.364,3.364-8.819-0.001-12.184   c-3.364-3.363-8.819-3.364-12.184,0.001c-7.82,7.82-18.206,12.127-29.247,12.127c-11.035,0-21.415-4.302-29.233-12.114   c-0.005-0.005-0.01-0.011-0.015-0.016c-11.074-11.074-25.789-17.173-41.434-17.173c-15.643,0-30.358,6.099-41.433,17.174   c-0.004,0.004-0.009,0.01-0.013,0.014c-7.819,7.812-18.202,12.115-29.236,12.115c-11.036,0-21.416-4.302-29.235-12.115   c-0.005-0.004-0.009-0.011-0.014-0.015c-11.074-11.074-25.789-17.173-41.434-17.173c-15.643,0-30.358,6.099-41.433,17.174   c-0.004,0.004-0.009,0.01-0.013,0.014c-16.124,16.11-42.346,16.109-58.472,0c-0.004-0.004-0.009-0.01-0.013-0.014   c-11.074-11.075-25.788-17.174-41.432-17.174s-30.357,6.099-41.433,17.173c-0.004,0.004-0.009,0.011-0.014,0.015   c-7.818,7.812-18.199,12.115-29.235,12.115c-11.041,0-21.429-4.307-29.25-12.128c-3.363-3.363-8.819-3.363-12.184,0   c-3.365,3.365-3.365,8.819,0,12.185C13.603,304.036,28.317,310.135,43.962,310.135z"/>
	<path style="fill:#5ABCE2;" d="M43.962,370.553c15.005,0,30.009-5.712,41.432-17.133c0.005-0.005,0.01-0.012,0.015-0.017   c7.819-7.811,18.199-12.115,29.234-12.115c11.033,0,21.415,4.302,29.233,12.116c0.005,0.005,0.01,0.011,0.014,0.016   c11.423,11.421,26.43,17.132,41.435,17.132c15.005,0,30.009-5.711,41.433-17.132c0.005-0.005,0.009-0.011,0.014-0.015   c7.818-7.813,18.199-12.116,29.234-12.116c11.034,0,21.416,4.303,29.235,12.116c0.005,0.005,0.01,0.011,0.015,0.016   c11.423,11.423,26.425,17.133,41.432,17.133c15.004,0,30.012-5.713,41.434-17.133c0.005-0.005,0.01-0.011,0.014-0.016   c7.818-7.813,18.199-12.116,29.234-12.116c11.034,0,21.417,4.303,29.236,12.116c0.005,0.005,0.009,0.011,0.014,0.015   c11.421,11.422,26.426,17.133,41.432,17.133s30.009-5.711,41.432-17.133c3.366-3.365,3.366-8.819,0-12.185   c-3.363-3.363-8.819-3.363-12.184,0c-16.123,16.122-42.353,16.126-58.483,0.013c-0.004-0.004-0.009-0.01-0.013-0.014   c-11.075-11.077-25.79-17.176-41.435-17.176s-30.358,6.1-41.433,17.176c-0.004,0.004-0.009,0.01-0.014,0.015   c-16.125,16.108-42.345,16.108-58.469,0c-0.005-0.004-0.009-0.011-0.014-0.015c-11.075-11.077-25.79-17.176-41.435-17.176   s-30.358,6.1-41.433,17.176c-0.004,0.004-0.009,0.01-0.014,0.015c-16.124,16.108-42.346,16.106-58.471,0   c-0.005-0.004-0.009-0.011-0.014-0.015c-11.073-11.077-25.788-17.176-41.432-17.176s-30.357,6.1-41.434,17.176   c-0.005,0.005-0.009,0.011-0.014,0.015c-16.128,16.112-42.36,16.108-58.483-0.014c-3.364-3.363-8.819-3.364-12.184,0.001   c-3.364,3.364-3.364,8.819,0.001,12.184C13.952,364.843,28.957,370.553,43.962,370.553z"/>
	<path style="fill:#5ABCE2;" d="M497.296,401.693c-7.82,7.82-18.206,12.127-29.247,12.127c-11.034,0-21.415-4.302-29.233-12.114   c-0.005-0.005-0.01-0.011-0.015-0.016c-11.074-11.074-25.789-17.173-41.434-17.173c-15.643,0-30.358,6.099-41.433,17.174   c-0.004,0.004-0.009,0.01-0.013,0.014c-7.819,7.812-18.202,12.115-29.237,12.115s-21.416-4.302-29.235-12.115   c-0.005-0.004-0.009-0.011-0.014-0.015c-11.074-11.074-25.789-17.173-41.434-17.173c-15.643,0-30.358,6.099-41.433,17.174   c-0.004,0.004-0.008,0.01-0.012,0.014c-16.124,16.111-42.347,16.109-58.473,0c-0.004-0.004-0.009-0.01-0.013-0.014   c-11.074-11.075-25.788-17.174-41.432-17.174s-30.357,6.099-41.433,17.173c-0.004,0.004-0.009,0.011-0.014,0.015   c-7.818,7.812-18.199,12.115-29.235,12.115c-11.041,0-21.429-4.307-29.25-12.128c-3.363-3.363-8.819-3.363-12.184,0   c-3.365,3.365-3.365,8.819,0,12.185c11.074,11.074,25.789,17.173,41.434,17.173c15.643,0,30.358-6.099,41.433-17.174   c0.004-0.004,0.009-0.01,0.013-0.014c7.819-7.812,18.201-12.115,29.235-12.115s21.415,4.302,29.234,12.115   c0.005,0.004,0.009,0.011,0.014,0.015c11.423,11.422,26.428,17.133,41.435,17.133c15.005,0,30.01-5.711,41.433-17.133   c0.004-0.004,0.009-0.01,0.013-0.015c7.819-7.812,18.199-12.115,29.235-12.115c11.034,0,21.416,4.302,29.236,12.114   c0.004,0.004,0.009,0.01,0.013,0.015c11.073,11.075,25.789,17.174,41.433,17.174c15.644,0,30.358-6.099,41.434-17.173   c0.004-0.004,0.009-0.01,0.014-0.015c7.819-7.812,18.199-12.115,29.235-12.115c11.033,0,21.416,4.301,29.235,12.113   c0.005,0.005,0.01,0.011,0.014,0.016c11.074,11.075,25.788,17.174,41.433,17.174c15.645,0,30.357-6.099,41.433-17.174   c3.364-3.364,3.364-8.819-0.001-12.184C506.115,398.328,500.66,398.327,497.296,401.693z"/>
</g>
<g>
</g>
<g>
</g>
<g>
</g>
<g>
</g>
<g>
</g>
<g>
</g>
<g>
</g>
<g>
</g>
<g>
</g>
<g>
</g>
<g>
</g>
<g>
</g>
<g>
</g>
<g>
</g>
<g>
</g>
</svg>
