<?xml version="1.0" encoding="UTF-8" standalone="no"?><!DOCTYPE svg PUBLIC "-//W3C//DTD SVG 1.1//EN" "http://www.w3.org/Graphics/SVG/1.1/DTD/svg11.dtd"><svg width="100%" height="100%" viewBox="0 0 512 512" version="1.1" xmlns="http://www.w3.org/2000/svg" xmlns:xlink="http://www.w3.org/1999/xlink" xml:space="preserve" xmlns:serif="http://www.serif.com/" style="fill-rule:evenodd;clip-rule:evenodd;stroke-linejoin:round;stroke-miterlimit:1.41421;"><ellipse cx="255.999" cy="256.006" rx="250.261" ry="250.398" style="fill:#ccc;"/><path d="M476.906,138.255c-21.231,-39.972 -53.556,-74.669 -95.619,-98.999c-119.63,-69.188 -272.696,-28.301 -341.887,91.322c-69.189,119.631 -28.302,272.7 91.323,341.891c24.202,13.998 49.777,23.489 75.75,28.734c20.348,-14.901 45.431,-23.708 72.589,-23.708c13.637,0 26.735,2.252 38.993,6.342c19.116,-84.599 90.476,-149.349 178.4,-158.575c12.851,-44.402 12.847,-90.728 1.297,-133.978" style="fill:#ccc;fill-rule:nonzero;"/><path d="M171.567,472.469c-119.627,-69.191 -160.511,-222.26 -91.326,-341.891c42.712,-73.846 117.386,-117.668 196.427,-124.134c-93.375,-7.667 -187.243,37.648 -237.268,124.134c-69.189,119.631 -28.302,272.7 91.323,341.891c24.202,13.998 49.777,23.489 75.75,28.734c3.799,-2.782 7.768,-5.353 11.879,-7.694c-15.973,-5.292 -31.644,-12.284 -46.785,-21.04Z" style="fill:#bcbab7;fill-rule:nonzero;"/><g><circle cx="154.016" cy="154.956" r="39.526" style="fill:#eae6e1;"/><circle cx="300.934" cy="262.46" r="47.68" style="fill:#eae6e1;"/><path d="M159.174,374.922c5.81,-34.859 -10.183,-71.168 -42.797,-89.396c-35.834,-20.034 -79.832,-11.622 -106.037,17.833c10.439,53.838 38.414,103.978 81.362,141.279c15.682,-3.219 30.408,-10.773 42.245,-22.133c0,0 20.797,-20.986 25.227,-47.583Z" style="fill:#eae6e1;fill-rule:nonzero;"/></g><path d="M120.224,433.181c-42.048,-41.828 -67.188,-96.789 -72.555,-154.251c-14.127,4.641 -27.09,12.919 -37.329,24.431c1.299,6.698 2.87,13.339 4.71,19.904c0.017,0.06 0.033,0.124 0.05,0.182c6.456,23.021 16.194,45.121 28.988,65.537c0.04,0.06 0.081,0.124 0.117,0.183c5.443,8.666 11.441,17.027 17.976,25.029c0.095,0.12 0.194,0.239 0.293,0.358c2.125,2.596 4.309,5.151 6.549,7.667c0.107,0.121 0.213,0.235 0.317,0.353c4.514,5.056 9.255,9.943 14.215,14.655c0.147,0.137 0.293,0.28 0.436,0.417c2.401,2.266 4.854,4.486 7.354,6.669c0.125,0.107 0.249,0.214 0.373,0.323c10.071,-2.074 19.736,-5.951 28.506,-11.457Z" style="fill:#d8d1ca;fill-rule:nonzero;"/><circle cx="309.161" cy="109.813" r="20.476" style="fill:#eae6e1;"/></svg>