<?xml version="1.0" encoding="iso-8859-1"?>
<!-- Generator: Adobe Illustrator 19.0.0, SVG Export Plug-In . SVG Version: 6.00 Build 0)  -->
<svg xmlns="http://www.w3.org/2000/svg" xmlns:xlink="http://www.w3.org/1999/xlink" version="1.1" id="Layer_1" x="0px" y="0px" viewBox="0 0 512 512" style="enable-background:new 0 0 512 512;" xml:space="preserve">
<path style="fill:#CCCCCC;" d="M282.207,320.004l21.977-38.063c-4.321-2.084-8.597-4.335-12.817-6.769v-0.002h-0.003  c-4.22-2.437-8.306-5.015-12.271-7.713l-68.323,118.34l25.09,14.484l30.979-53.652"/>
<path style="fill:#F29F26;" d="M492.4,226.674c0.49,0.254,0.983,0.503,1.479,0.745c0.151,0.073,0.305,0.147,0.457,0.217  c0.553,0.261,1.105,0.514,1.66,0.758c0.084,0.035,0.168,0.072,0.252,0.11c3.539,1.526,7.162,2.686,10.824,3.485  c2.189,0.512,3.952,2.138,4.631,4.285c0.688,2.177,0.16,4.553-1.384,6.235c-54.983,59.911-145.44,74.611-216.518,35.683  c-1.15-0.632-2.297-1.274-3.44-1.933v-0.001l83.001-143.764c0,0,0.001,0,0.001,0.001c1.58,0.912,2.694,2.457,3.061,4.245  c0.025,0.124,0.06,0.247,0.086,0.371c0.181,0.852,0.375,1.705,0.593,2.547c0.047,0.183,0.099,0.363,0.148,0.544  c0.214,0.801,0.443,1.598,0.692,2.389c0.036,0.117,0.069,0.239,0.109,0.355c0.282,0.881,0.59,1.753,0.913,2.62  c0.052,0.137,0.1,0.275,0.154,0.411c0.336,0.887,0.696,1.763,1.074,2.632c0.035,0.077,0.069,0.156,0.103,0.232  c4.099,9.29,10.605,17.598,19.242,23.897c0.029,0.022,0.058,0.044,0.088,0.064c0.793,0.576,1.602,1.135,2.431,1.677  c0.113,0.072,0.225,0.146,0.339,0.217c0.816,0.525,1.643,1.038,2.491,1.53c0.849,0.49,1.708,0.949,2.569,1.394  c0.121,0.064,0.24,0.124,0.36,0.185c0.884,0.446,1.771,0.869,2.667,1.267c0.032,0.016,0.067,0.03,0.101,0.044  c9.773,4.33,20.22,5.811,30.315,4.715c0.084-0.009,0.168-0.02,0.252-0.027c0.942-0.106,1.881-0.232,2.816-0.383  c0.146-0.023,0.288-0.05,0.433-0.075c0.912-0.155,1.823-0.322,2.726-0.52c0.12-0.025,0.24-0.058,0.359-0.083  c0.809-0.18,1.615-0.381,2.416-0.595c0.181-0.047,0.364-0.094,0.545-0.144c0.84-0.234,1.67-0.489,2.497-0.758  c0.123-0.041,0.247-0.071,0.37-0.113c1.734-0.577,3.629-0.386,5.208,0.527c1.58,0.912,2.694,2.457,3.059,4.246  c0.024,0.122,0.06,0.242,0.084,0.364c0.182,0.858,0.378,1.712,0.598,2.562c0.045,0.173,0.094,0.347,0.141,0.522  c0.218,0.811,0.45,1.62,0.703,2.423c0.033,0.111,0.066,0.219,0.101,0.328c0.283,0.888,0.593,1.767,0.918,2.641  c0.049,0.128,0.097,0.261,0.147,0.389c0.338,0.893,0.701,1.772,1.08,2.648c0.033,0.07,0.064,0.144,0.095,0.215  c4.099,9.293,10.605,17.605,19.244,23.903c0.03,0.023,0.058,0.045,0.088,0.065c0.793,0.576,1.602,1.134,2.431,1.677  c0.113,0.072,0.226,0.146,0.341,0.218c0.814,0.524,1.64,1.037,2.49,1.529c0.62,0.359,1.247,0.702,1.874,1.035  C492.075,226.508,492.237,226.589,492.4,226.674z"/>
<path style="fill:#F9A83D;" d="M507.073,231.988c-3.663-0.799-7.287-1.958-10.824-3.485c-0.084-0.036-0.168-0.073-0.252-0.11  c-0.555-0.245-1.108-0.497-1.66-0.758c-0.152-0.07-0.306-0.144-0.457-0.217c-0.496-0.241-0.988-0.489-1.479-0.745  c-0.163-0.084-0.325-0.166-0.486-0.25c-0.627-0.334-1.253-0.677-1.874-1.035c-0.85-0.49-1.677-1.004-2.49-1.529  c-0.114-0.072-0.227-0.146-0.341-0.218c-0.829-0.543-1.638-1.101-2.431-1.677c-0.03-0.02-0.058-0.042-0.088-0.065  c-8.639-6.299-15.145-14.611-19.244-23.903c-0.032-0.071-0.063-0.145-0.095-0.215c-0.381-0.876-0.743-1.756-1.08-2.648  c-0.05-0.128-0.098-0.261-0.147-0.389c-0.325-0.874-0.635-1.753-0.918-2.641c-0.035-0.109-0.067-0.217-0.101-0.328  c-0.252-0.803-0.484-1.612-0.703-2.423c-0.047-0.174-0.097-0.348-0.141-0.522c-0.219-0.85-0.416-1.704-0.598-2.562  c-0.024-0.122-0.06-0.242-0.084-0.364c-0.365-1.789-1.479-3.334-3.06-4.246c-1.579-0.912-3.474-1.104-5.208-0.527  c-0.123,0.041-0.247,0.071-0.37,0.113c-0.827,0.269-1.658,0.525-2.497,0.758c-0.181,0.049-0.364,0.096-0.545,0.144  c-0.801,0.215-1.607,0.416-2.416,0.595c-0.118,0.025-0.239,0.058-0.359,0.083c-0.904,0.197-1.814,0.365-2.726,0.52  c-0.145,0.024-0.287,0.052-0.433,0.075c-0.935,0.15-1.874,0.276-2.816,0.383c-0.084,0.009-0.168,0.02-0.252,0.027  c-10.094,1.095-20.541-0.385-30.315-4.715c-0.034-0.014-0.069-0.027-0.101-0.044c-0.895-0.398-1.783-0.82-2.667-1.267  c-0.12-0.061-0.239-0.122-0.36-0.185c-0.861-0.444-1.719-0.902-2.569-1.394c-0.849-0.49-1.676-1.004-2.491-1.53  c-0.114-0.071-0.226-0.145-0.339-0.217c-0.829-0.542-1.638-1.101-2.431-1.677c-0.03-0.02-0.059-0.042-0.088-0.064  c-8.637-6.299-15.143-14.607-19.242-23.897c-0.033-0.077-0.067-0.156-0.103-0.232c-0.378-0.869-0.739-1.746-1.074-2.632  c-0.054-0.136-0.102-0.274-0.154-0.411c-0.324-0.866-0.632-1.739-0.913-2.62c-0.038-0.116-0.071-0.238-0.109-0.355  c-0.249-0.792-0.478-1.588-0.692-2.389c-0.049-0.181-0.101-0.361-0.148-0.544c-0.218-0.843-0.412-1.695-0.593-2.547  c-0.025-0.124-0.061-0.247-0.086-0.371c-0.366-1.787-1.48-3.333-3.061-4.245c0-0.001,0-0.001,0-0.001l-66.706,115.536  c16.402,22.107,38.225,39.948,63.506,51.559c51.654,2.479,103.701-17.359,140.156-57.081c1.543-1.681,2.071-4.057,1.384-6.235  C511.025,234.126,509.262,232.5,507.073,231.988z"/>
<path style="fill:#ED5145;" d="M194.237,414.454c-2.414,4.181-7.775,5.618-11.955,3.204c-4.18-2.414-5.618-7.777-3.204-11.955  c3.969-6.876,1.615-15.667-5.26-19.636s-15.667-1.615-19.636,5.26c-10.341,17.91-4.181,40.889,13.727,51.227  c17.907,10.341,40.886,4.184,51.225-13.726l23.095-40l-24.896-14.373L194.237,414.454z"/>
<path style="fill:#ACB7BC;" d="M262.142,384.198c-1.488,0-2.996-0.379-4.378-1.176l-10.159-5.865  c-4.196-2.422-5.633-7.788-3.211-11.985c2.422-4.197,7.788-5.632,11.984-3.212l10.159,5.865c4.196,2.422,5.633,7.788,3.211,11.985  C268.124,382.624,265.174,384.198,262.142,384.198z"/>
<g>
	<path style="fill:#C7E6F9;" d="M179.494,267.289H8.773c-4.846,0-8.773,3.928-8.773,8.773s3.927,8.773,8.773,8.773h170.721   c4.846,0,8.773-3.928,8.773-8.773S184.34,267.289,179.494,267.289z"/>
	<path style="fill:#C7E6F9;" d="M14.157,296.965H8.773c-4.846,0-8.773,3.928-8.773,8.773s3.927,8.773,8.773,8.773h5.384   c4.846,0,8.773-3.928,8.773-8.773S19.003,296.965,14.157,296.965z"/>
	<path style="fill:#C7E6F9;" d="M115.388,296.965H41.469c-4.846,0-8.773,3.928-8.773,8.773s3.927,8.773,8.773,8.773h73.918   c10.274,0,18.632,8.359,18.632,18.633c0,10.017-7.951,18.189-17.87,18.594c-0.251-0.022-0.504-0.038-0.762-0.038   c-10.253,0-18.594-8.341-18.594-18.595c0-4.845-3.927-8.773-8.773-8.773c-4.846,0-8.773,3.928-8.773,8.773   c0,19.483,15.499,35.406,34.813,36.106c0.433,0.066,0.874,0.111,1.326,0.111c19.948,0,36.178-16.23,36.178-36.178   C151.565,313.195,135.336,296.965,115.388,296.965z"/>
	<path style="fill:#C7E6F9;" d="M85.797,252.495h64.258c19.947,0,36.177-16.23,36.177-36.179c0-19.948-16.23-36.178-36.177-36.178   c-0.452,0-0.893,0.045-1.326,0.111c-19.314,0.701-34.813,16.623-34.813,36.105c0,4.845,3.928,8.773,8.773,8.773   c4.845,0,8.773-3.928,8.773-8.773c0-10.253,8.341-18.594,18.594-18.594c0.258,0,0.511-0.016,0.762-0.038   c9.919,0.405,17.869,8.578,17.869,18.594c0,10.274-8.358,18.633-18.631,18.633H85.797c-4.846,0-8.773,3.928-8.773,8.773   C77.024,248.567,80.951,252.495,85.797,252.495z"/>
	<path style="fill:#C7E6F9;" d="M213.575,267.289h-7.043c-4.846,0-8.773,3.928-8.773,8.773s3.927,8.773,8.773,8.773h7.043   c4.845,0,8.773-3.928,8.773-8.773S218.42,267.289,213.575,267.289z"/>
</g>
<path style="fill:#ED5145;" d="M373.364,132.494c0,0,0.001,0,0.001,0.001c1.58,0.912,2.694,2.457,3.061,4.245  c0.027,0.134,0.065,0.265,0.092,0.399c0.178,0.838,0.368,1.673,0.583,2.501c0.05,0.201,0.109,0.398,0.161,0.598  c0.207,0.774,0.431,1.544,0.668,2.311c0.044,0.136,0.082,0.275,0.126,0.413c0.277,0.865,0.581,1.723,0.898,2.577  c0.055,0.154,0.111,0.305,0.169,0.456c0.332,0.872,0.686,1.738,1.061,2.597c0.038,0.089,0.079,0.179,0.117,0.27  c4.099,9.28,10.6,17.581,19.23,23.876c0.031,0.022,0.061,0.046,0.093,0.067c0.791,0.575,1.6,1.133,2.428,1.673  c0.114,0.073,0.228,0.147,0.342,0.22c0.816,0.524,1.641,1.036,2.489,1.528h0.001c0,0,0,0,0.001,0.001l0,0  c0.849,0.49,1.708,0.949,2.57,1.393c0.118,0.063,0.238,0.123,0.355,0.184c0.886,0.446,1.774,0.87,2.671,1.268  c0.031,0.016,0.064,0.027,0.095,0.042c9.78,4.334,20.236,5.814,30.338,4.715c0.07-0.008,0.141-0.015,0.211-0.023  c0.955-0.107,1.908-0.237,2.856-0.389c0.128-0.02,0.257-0.044,0.388-0.066c0.928-0.157,1.851-0.329,2.768-0.527  c0.1-0.022,0.201-0.048,0.3-0.07c0.837-0.189,1.668-0.393,2.497-0.615c0.163-0.044,0.328-0.084,0.492-0.132  c0.852-0.235,1.7-0.495,2.541-0.77c0.113-0.037,0.229-0.067,0.341-0.104c1.68-0.559,3.511-0.389,5.062,0.453  c-21.161,27.567-43.596,50.537-65.528,67.572l-19.878,13.899c-31.787,19.702-61.259,25.525-82.604,13.202h-0.002v-0.001  L373.364,132.494z"/>
<path style="fill:#F75F57;" d="M453.312,181.132c-0.113,0.037-0.228,0.067-0.341,0.104c-0.841,0.275-1.688,0.535-2.541,0.77  c-0.164,0.047-0.329,0.088-0.492,0.132c-0.829,0.223-1.661,0.428-2.497,0.615c-0.101,0.022-0.202,0.047-0.3,0.07  c-0.918,0.2-1.841,0.371-2.768,0.527c-0.13,0.022-0.259,0.045-0.388,0.066c-0.946,0.154-1.899,0.283-2.856,0.389  c-0.07,0.008-0.14,0.015-0.211,0.023c-10.102,1.099-20.558-0.382-30.338-4.715c-0.032-0.014-0.065-0.025-0.095-0.042  c-0.896-0.398-1.785-0.821-2.671-1.268c-0.117-0.061-0.237-0.122-0.355-0.184c-0.862-0.444-1.721-0.902-2.57-1.393  c-0.001-0.001-0.001-0.001-0.001-0.001h-0.001c-0.848-0.49-1.672-1.003-2.489-1.528c-0.114-0.073-0.228-0.147-0.342-0.22  c-0.828-0.541-1.637-1.099-2.428-1.673c-0.032-0.022-0.063-0.045-0.093-0.067c-8.63-6.294-15.131-14.596-19.23-23.876  c-0.038-0.091-0.079-0.181-0.117-0.27c-0.375-0.859-0.729-1.725-1.061-2.597c-0.059-0.151-0.114-0.303-0.169-0.456  c-0.317-0.853-0.621-1.711-0.898-2.577c-0.044-0.138-0.082-0.277-0.126-0.413c-0.238-0.765-0.461-1.535-0.668-2.311  c-0.054-0.2-0.112-0.397-0.161-0.598c-0.215-0.828-0.406-1.665-0.583-2.501c-0.027-0.134-0.065-0.265-0.092-0.399  c-0.366-1.787-1.48-3.333-3.061-4.245c0-0.001-0.001-0.001-0.001-0.001L306.66,248.03c8.754,11.8,19.049,22.389,30.595,31.46  c11.326-3.212,23.343-8.766,35.714-16.434l19.878-13.899c21.932-17.034,44.367-40.005,65.528-67.572  C456.823,180.743,454.992,180.573,453.312,181.132z"/>
<path style="fill:#ED5145;" d="M322.661,128.641c0.884,0.445,1.771,0.868,2.667,1.267c0.033,0.016,0.068,0.03,0.101,0.044  c9.772,4.329,20.218,5.81,30.31,4.714c0.088-0.009,0.173-0.019,0.261-0.027c0.94-0.107,1.876-0.232,2.808-0.384  c0.147-0.023,0.295-0.049,0.44-0.073c0.912-0.156,1.818-0.323,2.72-0.519c0.122-0.026,0.242-0.058,0.364-0.084  c0.809-0.182,1.614-0.381,2.415-0.595c0.181-0.048,0.363-0.093,0.543-0.144c0.84-0.234,1.674-0.491,2.504-0.761  c0.12-0.038,0.243-0.07,0.364-0.111c1.73-0.577,3.626-0.386,5.206,0.526l-83.001,143.764c-0.011-0.005-0.021-0.012-0.03-0.018  c-1.131-0.655-2.251-1.319-3.363-1.992c-69.254-42.095-101.751-127.782-77.358-205.353c0.684-2.177,2.48-3.823,4.707-4.317  c2.201-0.485,4.492,0.228,6.03,1.869c2.522,2.771,5.336,5.328,8.427,7.631c0.075,0.055,0.15,0.11,0.225,0.164  c0.487,0.359,0.981,0.709,1.483,1.056c0.139,0.099,0.279,0.195,0.42,0.291c0.456,0.308,0.917,0.611,1.383,0.908  c0.155,0.098,0.307,0.198,0.459,0.297c0.604,0.376,1.214,0.747,1.833,1.105c0.85,0.49,1.71,0.949,2.57,1.394  c0.12,0.063,0.24,0.123,0.359,0.184c0.884,0.446,1.772,0.87,2.668,1.268c0.032,0.016,0.067,0.029,0.099,0.043  c9.771,4.329,20.219,5.809,30.311,4.715c0.088-0.009,0.175-0.019,0.262-0.027c0.94-0.107,1.875-0.232,2.807-0.383  c0.149-0.024,0.297-0.05,0.446-0.077c0.907-0.154,1.812-0.321,2.713-0.516c0.126-0.027,0.252-0.061,0.379-0.089  c0.801-0.179,1.6-0.376,2.393-0.589c0.186-0.05,0.373-0.097,0.559-0.148c0.838-0.232,1.666-0.487,2.49-0.757  c0.124-0.039,0.249-0.07,0.372-0.113c1.732-0.576,3.626-0.385,5.208,0.527c1.579,0.912,2.693,2.457,3.059,4.245  c0.024,0.124,0.059,0.247,0.086,0.37c0.181,0.854,0.376,1.706,0.594,2.548c0.047,0.183,0.099,0.363,0.148,0.544  c0.214,0.802,0.443,1.598,0.692,2.389c0.036,0.117,0.069,0.239,0.109,0.355c0.282,0.881,0.589,1.753,0.911,2.62  c0.052,0.137,0.101,0.275,0.155,0.411c0.337,0.887,0.696,1.762,1.074,2.632c0.035,0.077,0.069,0.155,0.104,0.232  c4.098,9.29,10.604,17.598,19.242,23.897c0.027,0.021,0.057,0.044,0.086,0.064c0.793,0.576,1.604,1.135,2.432,1.677  c0.113,0.072,0.226,0.146,0.34,0.218c0.816,0.524,1.642,1.037,2.491,1.529c0.849,0.49,1.71,0.95,2.57,1.394  C322.422,128.518,322.542,128.579,322.661,128.641z"/>
<path style="fill:#F29F26;" d="M290.33,276.238c-0.64-0.37-1.268-0.754-1.888-1.154c-0.226-0.147-0.444-0.303-0.668-0.452  c-0.397-0.268-0.796-0.532-1.185-0.809c-0.259-0.185-0.511-0.384-0.765-0.575c-0.343-0.255-0.689-0.508-1.023-0.773  c-0.269-0.213-0.529-0.434-0.793-0.655c-0.313-0.257-0.625-0.513-0.932-0.78c-0.268-0.235-0.531-0.478-0.795-0.719  c-0.29-0.263-0.58-0.526-0.864-0.801c-0.264-0.252-0.524-0.515-0.783-0.774c-0.273-0.273-0.546-0.545-0.813-0.826  c-0.259-0.273-0.512-0.553-0.765-0.832c-0.257-0.282-0.514-0.564-0.763-0.851c-0.252-0.29-0.5-0.586-0.748-0.884  c-0.242-0.291-0.483-0.582-0.719-0.882c-0.246-0.306-0.484-0.62-0.723-0.934c-0.229-0.299-0.455-0.603-0.679-0.909  c-0.236-0.323-0.468-0.652-0.699-0.983c-0.215-0.31-0.43-0.621-0.64-0.938c-0.227-0.342-0.452-0.684-0.673-1.032  c-0.203-0.319-0.401-0.64-0.6-0.963c-0.218-0.36-0.436-0.719-0.648-1.086c-0.191-0.326-0.377-0.654-0.561-0.984  c-0.211-0.377-0.421-0.756-0.625-1.139c-0.175-0.331-0.347-0.666-0.52-1c-0.202-0.398-0.404-0.793-0.599-1.197  c-0.164-0.336-0.323-0.675-0.481-1.017c-0.195-0.417-0.388-0.832-0.577-1.253c-0.149-0.339-0.294-0.68-0.44-1.023  c-0.186-0.436-0.373-0.874-0.553-1.32c-0.136-0.336-0.265-0.677-0.396-1.015c-0.18-0.464-0.362-0.927-0.533-1.398  c-0.12-0.325-0.231-0.656-0.347-0.981c-0.177-0.498-0.353-0.996-0.522-1.501c-0.098-0.297-0.191-0.601-0.286-0.9  c-0.175-0.546-0.352-1.092-0.519-1.65c-0.065-0.215-0.122-0.435-0.186-0.652c-0.87-2.993-1.615-6.117-2.238-9.366  c-0.043-0.224-0.091-0.442-0.133-0.668c-0.117-0.646-0.228-1.303-0.339-1.96c-0.052-0.302-0.106-0.6-0.155-0.904  c-0.101-0.632-0.193-1.272-0.285-1.912c-0.049-0.337-0.101-0.669-0.148-1.009c-0.083-0.627-0.161-1.26-0.238-1.895  c-0.044-0.364-0.09-0.726-0.133-1.092c-0.07-0.626-0.134-1.259-0.197-1.895c-0.037-0.382-0.077-0.761-0.112-1.145  c-0.057-0.632-0.109-1.268-0.158-1.906c-0.031-0.398-0.063-0.796-0.09-1.196c-0.045-0.635-0.083-1.276-0.12-1.919  c-0.023-0.41-0.047-0.82-0.068-1.234c-0.033-0.645-0.059-1.293-0.082-1.944c-0.018-0.419-0.032-0.839-0.045-1.259  c-0.02-0.656-0.034-1.314-0.045-1.976c-0.009-0.428-0.016-0.853-0.021-1.283c-0.008-0.666-0.011-1.337-0.012-2.008  c0.001-0.432,0.002-0.863,0.007-1.299c0.004-0.678,0.013-1.36,0.025-2.045c0.007-0.434,0.018-0.872,0.027-1.308  c0.013-0.468,0.026-0.938,0.043-1.409l2.071-23.851c0.041-0.305,0.081-0.611,0.124-0.917c0.191-1.356,0.39-2.72,0.606-4.092  c0.053-0.343,0.107-0.689,0.162-1.035c0.221-1.39,0.458-2.791,0.707-4.199c0.092-0.531,0.186-1.064,0.284-1.597  c0.235-1.298,0.478-2.598,0.734-3.908c0.065-0.333,0.124-0.662,0.19-0.996c0.309-1.565,0.639-3.141,0.976-4.722  c0.115-0.532,0.231-1.067,0.349-1.601c0.28-1.278,0.568-2.561,0.867-3.85c0.094-0.409,0.185-0.817,0.283-1.228  c0.378-1.608,0.773-3.225,1.18-4.847c0.128-0.515,0.261-1.032,0.394-1.547c0.332-1.298,0.672-2.601,1.022-3.907  c0.122-0.455,0.24-0.907,0.364-1.362c0.447-1.649,0.912-3.311,1.39-4.976c0.138-0.485,0.281-0.972,0.423-1.457  c0.387-1.332,0.785-2.671,1.19-4.014c0.148-0.485,0.291-0.966,0.439-1.45c0.521-1.7,1.056-3.402,1.604-5.112  c0.137-0.428,0.281-0.859,0.421-1.288c0.455-1.401,0.92-2.808,1.395-4.219c0.166-0.492,0.332-0.985,0.499-1.479  c0.595-1.748,1.204-3.497,1.827-5.254c0.122-0.341,0.247-0.684,0.368-1.024c0.54-1.501,1.087-3.006,1.646-4.512  c0.183-0.496,0.366-0.989,0.552-1.486c0.672-1.794,1.355-3.591,2.058-5.396c0.079-0.205,0.161-0.411,0.243-0.617  c0.642-1.643,1.299-3.291,1.967-4.941c0.195-0.487,0.394-0.975,0.593-1.462c0.297-0.731,0.608-1.467,0.91-2.198  c1.508,0.92,2.57,2.423,2.927,4.157c0.014,0.069,0.034,0.138,0.048,0.209c0.197,0.938,0.412,1.873,0.652,2.804  c0.023,0.08,0.045,0.161,0.066,0.243c0.252,0.952,0.525,1.9,0.825,2.84c0.004,0.01,0.005,0.021,0.01,0.029  c0.304,0.96,0.639,1.909,0.991,2.851c0.022,0.059,0.042,0.117,0.066,0.175c0.36,0.949,0.745,1.888,1.152,2.817  c0.005,0.012,0.01,0.023,0.016,0.033c4.099,9.336,10.626,17.685,19.302,24.009c0.02,0.015,0.038,0.031,0.058,0.043  c0.798,0.581,1.615,1.144,2.449,1.689c0.11,0.069,0.217,0.14,0.327,0.209c0.817,0.525,1.645,1.041,2.495,1.531l0.002,0.001  l0.002,0.001c0.849,0.49,1.71,0.95,2.57,1.394c0.12,0.063,0.24,0.124,0.359,0.185c0.884,0.445,1.772,0.868,2.668,1.267  c0.032,0.016,0.066,0.029,0.099,0.044c9.772,4.329,20.219,5.809,30.311,4.714c0.088-0.009,0.173-0.019,0.261-0.027  c0.94-0.106,1.876-0.232,2.811-0.384c0.146-0.023,0.293-0.049,0.439-0.073c0.91-0.155,1.818-0.324,2.72-0.52  c0.122-0.025,0.242-0.057,0.363-0.083c0.81-0.182,1.615-0.381,2.416-0.595c0.181-0.048,0.363-0.093,0.543-0.144  c0.84-0.234,1.676-0.49,2.506-0.762c0.118-0.037,0.242-0.069,0.362-0.11c1.73-0.576,3.626-0.385,5.207,0.527l-83.002,143.764v-0.001  C290.35,276.25,290.341,276.245,290.33,276.238z"/>
<path style="fill:#F9A83D;" d="M306.659,248.031l66.704-115.536c-1.58-0.912-3.476-1.104-5.207-0.527  c-0.12,0.041-0.243,0.071-0.362,0.11c-0.83,0.272-1.667,0.529-2.506,0.762c-0.18,0.05-0.362,0.095-0.543,0.144  c-0.801,0.215-1.605,0.413-2.416,0.595c-0.121,0.026-0.241,0.058-0.363,0.083c-0.901,0.196-1.809,0.365-2.72,0.52  c-0.147,0.024-0.294,0.05-0.439,0.073c-0.934,0.151-1.87,0.277-2.811,0.384c-0.088,0.01-0.173,0.02-0.261,0.027  c-10.092,1.094-20.539-0.385-30.311-4.714c-0.033-0.015-0.067-0.027-0.099-0.044c-0.895-0.398-1.784-0.821-2.668-1.267  c-0.118-0.061-0.239-0.123-0.359-0.185c-0.861-0.443-1.721-0.902-2.57-1.394h-0.001l-0.003-0.002  c-0.85-0.49-1.678-1.006-2.495-1.531c-0.11-0.069-0.217-0.14-0.327-0.209c-0.835-0.545-1.65-1.108-2.449-1.689  c-0.02-0.012-0.038-0.027-0.058-0.043c-8.676-6.324-15.203-14.672-19.302-24.009c-0.007-0.01-0.011-0.022-0.016-0.033  c-0.408-0.93-0.793-1.869-1.153-2.817c-0.024-0.058-0.043-0.116-0.066-0.175c-0.352-0.941-0.688-1.892-0.991-2.851  c-0.004-0.009-0.005-0.02-0.01-0.029c-0.298-0.939-0.571-1.888-0.825-2.84c-0.021-0.081-0.043-0.162-0.066-0.243  c-0.24-0.931-0.455-1.865-0.652-2.804c-0.014-0.071-0.034-0.14-0.048-0.209c-0.34-1.659-1.333-3.101-2.738-4.029  c-9.078,20.39-14.132,42.968-14.132,66.726C274.401,186.897,286.394,220.717,306.659,248.031z"/>
<g>
</g>
<g>
</g>
<g>
</g>
<g>
</g>
<g>
</g>
<g>
</g>
<g>
</g>
<g>
</g>
<g>
</g>
<g>
</g>
<g>
</g>
<g>
</g>
<g>
</g>
<g>
</g>
<g>
</g>
</svg>
