<?xml version="1.0" encoding="iso-8859-1"?>
<!-- Generator: Adobe Illustrator 19.0.0, SVG Export Plug-In . SVG Version: 6.00 Build 0)  -->
<svg xmlns="http://www.w3.org/2000/svg" xmlns:xlink="http://www.w3.org/1999/xlink" version="1.1" id="Layer_1" x="0px" y="0px" viewBox="0 0 512.001 512.001" style="enable-background:new 0 0 512.001 512.001;" xml:space="preserve">
<path style="fill:#EAC71C;" d="M433.059,126.494c-5.02-17.674-15.767-32.941-30.106-43.665  c-13.808-10.327-30.95-16.443-49.518-16.443h-0.001c-18.569,0-35.71,6.116-49.518,16.443c-14.34,10.724-25.087,25.991-30.106,43.665  c-2.044,7.201-3.139,14.8-3.139,22.657c0,0.751,0.012,1.498,0.03,2.243c0.006,0.248,0.02,0.493,0.028,0.74  c0.019,0.496,0.036,0.995,0.062,1.492c0.016,0.292,0.037,0.583,0.055,0.874c0.029,0.448,0.059,0.897,0.095,1.341  c0.025,0.31,0.054,0.615,0.083,0.923c0.037,0.426,0.076,0.855,0.123,1.281c0.033,0.314,0.07,0.627,0.108,0.939  c0.05,0.417,0.1,0.834,0.156,1.249c0.043,0.316,0.088,0.627,0.132,0.94c0.061,0.411,0.124,0.825,0.191,1.234  c0.05,0.31,0.1,0.62,0.154,0.932c0.071,0.411,0.146,0.822,0.224,1.233c0.057,0.302,0.115,0.607,0.174,0.909  c0.082,0.421,0.173,0.837,0.263,1.256c0.012,0.054,0.023,0.108,0.036,0.16c12.831,1.76,23.944,8.892,30.993,19.065  c4.554-1.178,9.33-1.809,14.253-1.809c27.419,0,50.288,19.47,55.542,45.34c0.6-0.148,1.199-0.304,1.793-0.465  c0.211-0.058,0.421-0.113,0.631-0.17c0.789-0.222,1.577-0.453,2.357-0.696c0.122-0.038,0.24-0.08,0.362-0.117  c0.666-0.211,1.326-0.43,1.987-0.659c0.23-0.079,0.46-0.16,0.69-0.244c0.594-0.21,1.184-0.429,1.771-0.652  c0.192-0.073,0.381-0.144,0.57-0.219c0.756-0.294,1.508-0.599,2.254-0.918c0.14-0.059,0.276-0.12,0.414-0.18  c0.615-0.264,1.226-0.537,1.832-0.815c0.221-0.103,0.442-0.206,0.66-0.31c0.574-0.271,1.145-0.548,1.709-0.832  c0.17-0.083,0.339-0.165,0.508-0.25c0.718-0.366,1.43-0.741,2.137-1.128c0.149-0.081,0.296-0.167,0.447-0.248  c0.563-0.314,1.122-0.632,1.68-0.957c0.104-0.062,0.212-0.12,0.316-0.181l0.056-0.04c4.231-2.505,8.223-5.373,11.924-8.568  l0.014-0.008c0.013-0.013,0.025-0.024,0.04-0.037c0.536-0.461,1.066-0.933,1.589-1.409c0.002-0.001,0.004-0.002,0.005-0.004  c0.514-0.467,1.02-0.939,1.52-1.419c0.151-0.142,0.294-0.288,0.443-0.431c0.35-0.339,0.701-0.682,1.047-1.028  c0.183-0.183,0.36-0.369,0.54-0.555c0.307-0.314,0.613-0.629,0.915-0.948c0.19-0.202,0.38-0.406,0.568-0.611  c0.284-0.307,0.568-0.613,0.846-0.925c0.195-0.213,0.386-0.432,0.576-0.65c0.27-0.306,0.54-0.615,0.806-0.925  c0.191-0.222,0.379-0.447,0.569-0.674c0.258-0.309,0.517-0.625,0.774-0.94c0.185-0.228,0.372-0.457,0.555-0.687  c0.254-0.322,0.507-0.646,0.756-0.97c0.178-0.227,0.353-0.456,0.528-0.686c0.254-0.338,0.505-0.682,0.755-1.023  c0.162-0.222,0.325-0.443,0.485-0.664c0.267-0.374,0.528-0.75,0.786-1.129c0.138-0.197,0.277-0.392,0.41-0.591  c0.339-0.498,0.67-1.002,0.996-1.506c0.054-0.082,0.108-0.162,0.16-0.242c0.376-0.589,0.744-1.184,1.108-1.78  c0.111-0.183,0.218-0.369,0.327-0.554c0.249-0.418,0.496-0.834,0.738-1.256c0.135-0.235,0.264-0.474,0.397-0.71  c0.208-0.377,0.419-0.751,0.622-1.129c0.139-0.258,0.276-0.52,0.411-0.781c0.191-0.362,0.379-0.725,0.564-1.089  c0.136-0.27,0.269-0.542,0.404-0.815c0.177-0.36,0.353-0.722,0.526-1.086c0.131-0.279,0.263-0.558,0.391-0.836  c0.167-0.363,0.332-0.727,0.493-1.094c0.125-0.282,0.25-0.564,0.37-0.846c0.159-0.37,0.314-0.744,0.472-1.117  c0.114-0.283,0.23-0.562,0.344-0.845c0.156-0.384,0.3-0.772,0.45-1.159c0.103-0.276,0.211-0.551,0.316-0.827  c0.152-0.412,0.296-0.826,0.443-1.242c0.09-0.253,0.183-0.509,0.27-0.764c0.164-0.484,0.321-0.969,0.476-1.458  c0.062-0.192,0.127-0.382,0.186-0.574c0.213-0.68,0.415-1.362,0.61-2.047c0.044-0.157,0.084-0.316,0.128-0.473  c0.148-0.532,0.292-1.065,0.429-1.601c0.066-0.255,0.126-0.514,0.188-0.769c0.109-0.44,0.216-0.883,0.318-1.327  c0.066-0.289,0.125-0.577,0.188-0.865c0.09-0.419,0.181-0.835,0.264-1.256c0.06-0.3,0.116-0.606,0.173-0.909  c0.078-0.411,0.154-0.822,0.225-1.233c0.054-0.311,0.104-0.621,0.156-0.932c0.065-0.41,0.127-0.824,0.19-1.234  c0.044-0.313,0.087-0.625,0.13-0.94c0.056-0.416,0.108-0.832,0.156-1.249c0.037-0.312,0.072-0.625,0.108-0.939  c0.046-0.425,0.085-0.853,0.125-1.281c0.029-0.308,0.056-0.613,0.082-0.923c0.036-0.444,0.065-0.893,0.094-1.341  c0.018-0.292,0.039-0.583,0.054-0.874c0.027-0.496,0.044-0.995,0.064-1.492c0.009-0.247,0.022-0.492,0.027-0.74  c0.02-0.745,0.031-1.493,0.031-2.243C436.198,141.294,435.105,133.695,433.059,126.494z"/>
<path style="fill:#EDE21B;" d="M402.953,82.829c-13.808-10.327-30.95-16.443-49.518-16.443h-0.001  c-7.383,0-14.535,0.981-21.347,2.796c-6.438,15.169-10.002,31.854-10.002,49.372c0,26.973,8.45,51.97,22.839,72.497  c10.669,5.82,19.258,14.964,24.377,26.049c4.266,3.433,8.753,6.602,13.447,9.466c0.071-0.027,0.143-0.053,0.214-0.079  c0.192-0.073,0.381-0.144,0.57-0.219c0.756-0.294,1.508-0.599,2.254-0.918c0.14-0.059,0.276-0.12,0.414-0.18  c0.615-0.264,1.226-0.537,1.832-0.815c0.221-0.103,0.442-0.206,0.66-0.31c0.574-0.271,1.145-0.548,1.709-0.832  c0.17-0.083,0.339-0.165,0.508-0.25c0.718-0.366,1.43-0.741,2.137-1.128c0.149-0.081,0.296-0.167,0.447-0.248  c0.563-0.314,1.122-0.632,1.68-0.957c0.104-0.062,0.212-0.12,0.316-0.181l0.056-0.04c4.231-2.505,8.223-5.373,11.924-8.568  l0.014-0.008c0.013-0.013,0.025-0.024,0.04-0.037c0.536-0.461,1.066-0.933,1.589-1.409c0.002-0.001,0.004-0.002,0.005-0.004  c0.514-0.467,1.02-0.939,1.52-1.419c0.151-0.142,0.294-0.288,0.443-0.431c0.35-0.339,0.701-0.682,1.047-1.029  c0.183-0.183,0.36-0.369,0.54-0.555c0.307-0.314,0.613-0.629,0.915-0.948c0.19-0.202,0.38-0.406,0.568-0.611  c0.284-0.307,0.568-0.613,0.846-0.925c0.195-0.213,0.386-0.432,0.576-0.65c0.27-0.306,0.54-0.615,0.806-0.925  c0.191-0.222,0.379-0.447,0.569-0.674c0.258-0.309,0.517-0.625,0.774-0.94c0.185-0.228,0.372-0.457,0.555-0.687  c0.254-0.322,0.507-0.646,0.756-0.97c0.178-0.227,0.353-0.456,0.528-0.686c0.254-0.338,0.505-0.682,0.755-1.023  c0.162-0.222,0.325-0.443,0.485-0.664c0.267-0.374,0.528-0.75,0.786-1.129c0.138-0.197,0.277-0.392,0.41-0.591  c0.339-0.498,0.67-1.002,0.996-1.506c0.054-0.082,0.108-0.162,0.16-0.242c0.376-0.589,0.744-1.184,1.108-1.78  c0.111-0.183,0.218-0.369,0.327-0.554c0.249-0.418,0.496-0.834,0.738-1.256c0.135-0.235,0.264-0.474,0.397-0.71  c0.208-0.377,0.419-0.751,0.622-1.129c0.139-0.258,0.276-0.52,0.411-0.781c0.191-0.362,0.379-0.725,0.564-1.089  c0.136-0.27,0.269-0.542,0.404-0.815c0.177-0.36,0.353-0.722,0.526-1.086c0.131-0.279,0.263-0.558,0.391-0.836  c0.167-0.363,0.332-0.727,0.493-1.094c0.125-0.282,0.25-0.564,0.37-0.846c0.159-0.37,0.314-0.744,0.472-1.117  c0.114-0.283,0.23-0.562,0.344-0.845c0.156-0.384,0.3-0.772,0.45-1.159c0.103-0.276,0.211-0.551,0.316-0.827  c0.152-0.412,0.296-0.826,0.443-1.242c0.09-0.253,0.183-0.509,0.27-0.764c0.164-0.484,0.321-0.969,0.476-1.458  c0.062-0.192,0.127-0.382,0.186-0.574c0.213-0.68,0.415-1.362,0.61-2.047c0.044-0.157,0.084-0.316,0.128-0.473  c0.148-0.532,0.292-1.065,0.429-1.601c0.066-0.255,0.126-0.514,0.188-0.769c0.109-0.44,0.216-0.883,0.318-1.327  c0.066-0.289,0.125-0.577,0.188-0.865c0.09-0.419,0.181-0.835,0.264-1.256c0.06-0.3,0.116-0.606,0.173-0.909  c0.078-0.411,0.154-0.822,0.225-1.233c0.054-0.311,0.104-0.621,0.156-0.932c0.065-0.41,0.127-0.824,0.19-1.234  c0.044-0.313,0.087-0.625,0.13-0.94c0.056-0.416,0.108-0.832,0.156-1.249c0.037-0.312,0.072-0.625,0.108-0.939  c0.046-0.425,0.085-0.853,0.125-1.28c0.029-0.308,0.056-0.613,0.082-0.923c0.036-0.444,0.065-0.893,0.094-1.341  c0.018-0.292,0.039-0.583,0.054-0.874c0.027-0.496,0.044-0.995,0.064-1.492c0.009-0.247,0.022-0.492,0.027-0.74  c0.02-0.745,0.031-1.493,0.031-2.243c0-7.857-1.094-15.458-3.139-22.657C428.039,108.82,417.293,93.553,402.953,82.829z"/>
<path style="fill:#EF8229;" d="M404.623,147.387c-0.005-0.146-0.01-0.294-0.017-0.44c-0.024-0.583-0.057-1.166-0.1-1.746  c-0.045-0.579-0.102-1.156-0.164-1.73c-0.016-0.143-0.033-0.286-0.051-0.428c-0.135-1.146-0.309-2.28-0.518-3.402  c-0.025-0.139-0.052-0.279-0.081-0.417c-0.218-1.119-0.475-2.225-0.764-3.316c-0.038-0.135-0.072-0.268-0.111-0.403  c-0.299-1.09-0.634-2.164-1-3.222c-0.045-0.128-0.093-0.258-0.137-0.388c-0.379-1.054-0.788-2.095-1.231-3.117  c-0.054-0.124-0.108-0.248-0.16-0.372c-0.451-1.018-0.935-2.02-1.45-3.005c-0.06-0.118-0.123-0.236-0.186-0.353  c-0.52-0.978-1.073-1.94-1.655-2.881c-0.07-0.112-0.139-0.224-0.21-0.337c-0.617-0.979-1.268-1.939-1.948-2.872  c-2.041-2.804-4.358-5.396-6.914-7.73l-0.008-0.006c-0.012-0.011-0.023-0.023-0.034-0.031c-0.141-0.127-0.282-0.25-0.422-0.377  c-0.157-0.139-0.311-0.279-0.47-0.418c-0.073-0.065-0.15-0.127-0.226-0.193c-0.074-0.062-0.148-0.126-0.223-0.192  c-0.076-0.066-0.156-0.128-0.233-0.195c-0.075-0.066-0.153-0.131-0.229-0.196c-0.154-0.128-0.31-0.251-0.464-0.378  c-0.154-0.126-0.31-0.25-0.465-0.374c-0.158-0.126-0.32-0.25-0.48-0.376c-0.156-0.118-0.309-0.238-0.467-0.358  c-0.16-0.121-0.326-0.242-0.49-0.365c-0.157-0.114-0.316-0.23-0.473-0.344c-0.166-0.12-0.334-0.238-0.502-0.353  c-0.158-0.114-0.319-0.225-0.479-0.335c-0.169-0.115-0.339-0.229-0.507-0.342c-0.165-0.11-0.33-0.216-0.493-0.324  c-0.169-0.112-0.341-0.223-0.514-0.331c-0.168-0.107-0.335-0.21-0.504-0.314c-0.172-0.106-0.346-0.213-0.517-0.318  c-0.172-0.101-0.345-0.202-0.515-0.303c-0.174-0.102-0.348-0.205-0.522-0.304c-0.174-0.1-0.351-0.197-0.526-0.292  c-0.177-0.098-0.351-0.196-0.528-0.292c-0.179-0.096-0.359-0.191-0.54-0.284c-0.174-0.093-0.351-0.185-0.529-0.277  c-0.183-0.093-0.37-0.183-0.555-0.275c0,0-0.001,0-0.002-0.001c-0.003-0.002-0.01-0.005-0.014-0.006  c-0.17-0.085-0.34-0.17-0.513-0.254c-0.097-0.045-0.196-0.09-0.293-0.136c-0.098-0.044-0.195-0.092-0.292-0.137  c-0.169-0.079-0.34-0.158-0.513-0.237c-0.116-0.053-0.237-0.104-0.355-0.156c-0.117-0.051-0.236-0.103-0.354-0.156  c-0.181-0.078-0.361-0.157-0.543-0.233c-0.321-0.134-0.641-0.265-0.962-0.393c-0.158-0.062-0.316-0.121-0.473-0.18  c-0.223-0.086-0.443-0.17-0.668-0.254c-0.168-0.062-0.339-0.121-0.51-0.181c-0.212-0.075-0.426-0.153-0.642-0.226  c-0.087-0.029-0.177-0.059-0.266-0.087c-0.089-0.03-0.177-0.059-0.265-0.088c-0.106-0.033-0.212-0.069-0.317-0.103  c-0.107-0.033-0.209-0.069-0.317-0.104c-0.182-0.055-0.364-0.11-0.547-0.165c-0.208-0.064-0.419-0.126-0.629-0.186  c-0.185-0.054-0.373-0.104-0.558-0.157c-0.209-0.058-0.42-0.113-0.631-0.17c-0.188-0.051-0.376-0.097-0.562-0.142  c-0.213-0.054-0.425-0.107-0.639-0.157c-0.19-0.043-0.38-0.086-0.568-0.129c-0.214-0.05-0.429-0.095-0.644-0.141  c-0.193-0.04-0.382-0.079-0.574-0.116c-0.215-0.041-0.433-0.084-0.65-0.125c-0.097-0.018-0.191-0.032-0.288-0.052  c-0.095-0.016-0.191-0.034-0.285-0.051c-0.221-0.037-0.443-0.074-0.663-0.111c-0.192-0.031-0.381-0.061-0.573-0.088  c-0.223-0.033-0.45-0.066-0.676-0.095c-0.095-0.014-0.19-0.025-0.284-0.037c-0.094-0.014-0.188-0.026-0.284-0.037  c-0.232-0.029-0.461-0.055-0.693-0.08c-0.187-0.022-0.375-0.044-0.561-0.062c-0.117-0.011-0.238-0.02-0.358-0.031  c-0.12-0.01-0.239-0.022-0.356-0.031c-0.184-0.016-0.366-0.03-0.547-0.044c-0.252-0.019-0.505-0.034-0.756-0.048  c-0.172-0.011-0.344-0.023-0.516-0.031c-0.187-0.009-0.375-0.016-0.563-0.023c-0.095-0.002-0.187-0.008-0.28-0.011  c-0.148-0.003-0.292-0.011-0.435-0.014c-0.425-0.011-0.852-0.016-1.279-0.018c-0.002,0-0.006,0-0.008,0h-0.001  c-0.003,0-0.004,0-0.009,0c-0.426,0.002-0.852,0.008-1.279,0.018c-0.144,0.003-0.289,0.011-0.434,0.014  c-0.094,0.003-0.186,0.009-0.28,0.011c-0.19,0.006-0.378,0.014-0.563,0.023c-0.172,0.009-0.345,0.022-0.516,0.031  c-0.251,0.014-0.505,0.029-0.755,0.048c-0.183,0.014-0.365,0.028-0.548,0.044c-0.118,0.011-0.238,0.023-0.358,0.031  c-0.118,0.012-0.239,0.022-0.359,0.031c-0.186,0.018-0.373,0.041-0.561,0.062c-0.232,0.025-0.463,0.051-0.693,0.08  c-0.096,0.011-0.191,0.023-0.284,0.037c-0.096,0.012-0.191,0.023-0.284,0.037c-0.226,0.029-0.453,0.061-0.677,0.095  c-0.193,0.027-0.381,0.057-0.573,0.088c-0.22,0.036-0.442,0.073-0.663,0.111c-0.095,0.016-0.191,0.034-0.285,0.051  c-0.096,0.019-0.191,0.033-0.286,0.052c-0.22,0.041-0.436,0.084-0.652,0.125c-0.192,0.038-0.381,0.076-0.573,0.116  c-0.214,0.046-0.429,0.092-0.644,0.141c-0.19,0.043-0.378,0.086-0.568,0.129c-0.212,0.052-0.426,0.104-0.64,0.157  c-0.186,0.045-0.375,0.092-0.562,0.142c-0.211,0.057-0.422,0.112-0.632,0.17c-0.185,0.053-0.372,0.103-0.558,0.157  c-0.21,0.06-0.421,0.123-0.629,0.186c-0.183,0.056-0.364,0.111-0.547,0.165c-0.107,0.034-0.21,0.07-0.318,0.104  c-0.102,0.033-0.209,0.069-0.314,0.103c-0.089,0.029-0.178,0.058-0.266,0.088c-0.088,0.028-0.177,0.058-0.266,0.087  c-0.213,0.073-0.429,0.151-0.642,0.226c-0.169,0.06-0.34,0.118-0.51,0.181c-0.224,0.084-0.444,0.168-0.667,0.254  c-0.158,0.059-0.316,0.117-0.474,0.18c-0.322,0.128-0.643,0.26-0.962,0.393c-0.181,0.075-0.361,0.155-0.543,0.233  c-0.118,0.053-0.236,0.106-0.353,0.156c-0.118,0.052-0.239,0.103-0.356,0.156c-0.17,0.078-0.341,0.157-0.513,0.237  c-0.097,0.045-0.194,0.093-0.292,0.137c-0.098,0.045-0.196,0.09-0.293,0.136c-0.171,0.084-0.341,0.169-0.512,0.254  c-0.004,0.001-0.011,0.004-0.014,0.006c-0.001,0.001-0.003,0.001-0.003,0.001c-0.184,0.092-0.372,0.182-0.555,0.275  c-0.178,0.092-0.353,0.184-0.528,0.277c-0.181,0.094-0.361,0.188-0.541,0.284c-0.177,0.096-0.352,0.194-0.528,0.292  c-0.174,0.096-0.35,0.193-0.524,0.292c-0.174,0.099-0.348,0.202-0.522,0.304c-0.171,0.1-0.342,0.202-0.516,0.303  c-0.172,0.104-0.346,0.212-0.517,0.318c-0.167,0.104-0.335,0.208-0.504,0.314c-0.171,0.108-0.342,0.219-0.513,0.331  c-0.164,0.108-0.328,0.214-0.492,0.324c-0.169,0.113-0.339,0.227-0.507,0.342c-0.162,0.11-0.321,0.22-0.48,0.335  c-0.168,0.115-0.335,0.234-0.502,0.353c-0.157,0.114-0.314,0.229-0.473,0.344c-0.162,0.123-0.328,0.244-0.49,0.365  c-0.157,0.12-0.312,0.239-0.466,0.358c-0.162,0.125-0.323,0.249-0.48,0.376c-0.156,0.123-0.311,0.247-0.466,0.374  c-0.155,0.126-0.308,0.249-0.462,0.378c-0.078,0.065-0.155,0.13-0.23,0.196c-0.078,0.067-0.156,0.129-0.233,0.195  c-0.075,0.065-0.151,0.129-0.225,0.192c-0.075,0.066-0.152,0.128-0.224,0.193c-0.158,0.139-0.313,0.279-0.471,0.418  c-0.141,0.126-0.282,0.249-0.423,0.377c-0.012,0.01-0.024,0.022-0.034,0.031l-0.008,0.006c-2.556,2.335-4.872,4.925-6.914,7.73  c-0.681,0.934-1.329,1.893-1.948,2.872c-0.069,0.112-0.141,0.225-0.209,0.337c-0.583,0.941-1.136,1.903-1.656,2.881  c-0.064,0.117-0.124,0.235-0.186,0.353c-0.515,0.984-0.998,1.987-1.448,3.005c-0.055,0.123-0.109,0.247-0.16,0.372  c-0.443,1.021-0.853,2.062-1.231,3.117c-0.046,0.129-0.092,0.26-0.137,0.388c-0.367,1.059-0.7,2.132-1.003,3.222  c-0.037,0.135-0.071,0.268-0.11,0.403c-0.291,1.091-0.545,2.197-0.764,3.316c-0.029,0.138-0.055,0.278-0.08,0.417  c-0.211,1.122-0.383,2.256-0.519,3.402c-0.017,0.142-0.034,0.285-0.05,0.428c-0.064,0.574-0.118,1.15-0.164,1.73  c-0.044,0.579-0.075,1.163-0.101,1.746c-0.005,0.146-0.012,0.294-0.016,0.44c-0.019,0.585-0.033,1.174-0.033,1.765  c0,1.773,0.089,3.524,0.263,5.25c0.041,0.382,0.085,0.766,0.132,1.146c0.059,0.476,0.123,0.951,0.196,1.423  c0.324,2.126,0.781,4.208,1.357,6.237c0.171,0.602,0.356,1.195,0.548,1.787c0.054,0.166,0.109,0.33,0.164,0.494  c0.157,0.472,0.322,0.941,0.494,1.409c0.047,0.127,0.093,0.257,0.14,0.383c0.195,0.515,0.393,1.024,0.604,1.529l0.017,0.027  c2.024,4.871,4.777,9.357,8.122,13.334l0.034,0.058c0.152,0.181,0.307,0.356,0.463,0.533c0.087,0.102,0.174,0.206,0.263,0.306  c0.341,0.389,0.694,0.771,1.048,1.15c0.674-0.024,1.345-0.066,2.026-0.066c15.431,0,29.413,6.173,39.634,16.177  c0.052-0.004,0.106-0.006,0.157-0.011c0.019-0.002,0.037-0.002,0.055-0.003c0.64-0.054,1.273-0.124,1.905-0.2  c0.159-0.019,0.317-0.039,0.474-0.06c0.598-0.079,1.192-0.164,1.781-0.263c0.037-0.008,0.072-0.012,0.108-0.018  c0.621-0.106,1.237-0.225,1.851-0.351c0.155-0.031,0.306-0.066,0.459-0.099c0.568-0.122,1.134-0.254,1.693-0.394  c0.051-0.014,0.099-0.025,0.149-0.037c0.603-0.154,1.199-0.322,1.792-0.496c0.148-0.045,0.293-0.088,0.44-0.136  c0.54-0.163,1.076-0.335,1.608-0.516c0.061-0.022,0.12-0.04,0.18-0.059c0.58-0.202,1.154-0.416,1.726-0.638  c0.141-0.055,0.281-0.11,0.42-0.166c0.513-0.202,1.022-0.412,1.525-0.632c0.066-0.028,0.135-0.058,0.2-0.087  c0.559-0.244,1.109-0.504,1.657-0.767c0.132-0.065,0.265-0.13,0.396-0.196c0.486-0.241,0.967-0.487,1.445-0.741  c0.071-0.038,0.143-0.074,0.214-0.113c0.533-0.288,1.06-0.589,1.58-0.895c0.126-0.072,0.249-0.145,0.372-0.221  c0.461-0.275,0.914-0.557,1.363-0.844c0.074-0.047,0.149-0.094,0.222-0.14c0.507-0.33,1.007-0.669,1.499-1.014  c0.116-0.079,0.229-0.164,0.342-0.244c0.431-0.306,0.856-0.619,1.276-0.938c0.075-0.058,0.154-0.114,0.229-0.171  c0.476-0.367,0.946-0.744,1.41-1.126c0.107-0.089,0.211-0.178,0.318-0.267c0.4-0.335,0.794-0.678,1.186-1.026  c0.074-0.067,0.154-0.136,0.23-0.204c0.446-0.403,0.881-0.814,1.314-1.232c0.097-0.095,0.193-0.19,0.289-0.285  c0.369-0.364,0.736-0.733,1.094-1.108c0.076-0.078,0.153-0.156,0.227-0.235c0.411-0.436,0.815-0.88,1.212-1.329  c0.088-0.101,0.174-0.204,0.263-0.306c0.155-0.177,0.311-0.352,0.462-0.533l0.036-0.058c3.343-3.977,6.099-8.462,8.121-13.334  l0.017-0.027c0.21-0.505,0.41-1.014,0.602-1.529c0.05-0.126,0.095-0.256,0.141-0.383c0.173-0.467,0.337-0.936,0.495-1.409  c0.055-0.165,0.109-0.328,0.164-0.494c0.192-0.591,0.377-1.186,0.548-1.787c0.575-2.029,1.032-4.111,1.356-6.237  c0.072-0.472,0.137-0.947,0.196-1.423c0.048-0.381,0.093-0.764,0.131-1.146c0.174-1.726,0.265-3.477,0.265-5.25  C404.656,148.56,404.643,147.972,404.623,147.387z"/>
<g>
	<path style="fill:#EDE21B;" d="M353.433,55.398c-4.758,0-8.616-3.858-8.616-8.616V21.083c0-4.758,3.858-8.616,8.616-8.616   c4.758,0,8.616,3.858,8.616,8.616v25.698C362.049,51.54,358.191,55.398,353.433,55.398z"/>
	<path style="fill:#EDE21B;" d="M302.258,69.115c-2.979,0-5.874-1.545-7.47-4.309l-12.852-22.259   c-2.379-4.12-0.966-9.39,3.154-11.769c4.122-2.381,9.39-0.967,11.77,3.153l12.85,22.259c2.38,4.12,0.968,9.39-3.153,11.769   C305.202,68.743,303.72,69.115,302.258,69.115z"/>
	<path style="fill:#EDE21B;" d="M417.476,268.679c-2.979,0-5.874-1.545-7.47-4.309l-12.852-22.259   c-2.38-4.12-0.967-9.39,3.153-11.769c4.122-2.379,9.39-0.967,11.769,3.153l12.852,22.259c2.38,4.12,0.967,9.39-3.153,11.769   C420.419,268.307,418.937,268.679,417.476,268.679z"/>
	<path style="fill:#EDE21B;" d="M264.771,106.584c-1.461,0-2.942-0.373-4.299-1.156l-22.255-12.85   c-4.12-2.379-5.533-7.647-3.153-11.769c2.379-4.12,7.647-5.536,11.769-3.153l22.255,12.85c4.12,2.379,5.533,7.649,3.153,11.769   C270.644,105.038,267.747,106.584,264.771,106.584z"/>
	<path style="fill:#EDE21B;" d="M464.336,221.803c-1.461,0-2.942-0.373-4.299-1.155l-22.259-12.85   c-4.12-2.379-5.533-7.647-3.154-11.77c2.379-4.122,7.649-5.532,11.77-3.154l22.259,12.85c4.12,2.379,5.533,7.649,3.154,11.77   C470.211,220.258,467.315,221.803,464.336,221.803z"/>
	<path style="fill:#EDE21B;" d="M481.503,157.767h-25.7c-4.758,0-8.616-3.858-8.616-8.616c0-4.758,3.858-8.616,8.616-8.616h25.7   c4.758,0,8.616,3.858,8.616,8.616C490.118,153.909,486.261,157.767,481.503,157.767z"/>
	<path style="fill:#EDE21B;" d="M442.095,106.584c-2.979,0-5.874-1.545-7.47-4.309c-2.379-4.122-0.966-9.391,3.154-11.77   l22.259-12.85c4.122-2.377,9.391-0.966,11.77,3.154c2.379,4.122,0.966,9.391-3.154,11.77l-22.259,12.85   C445.037,106.211,443.555,106.584,442.095,106.584z"/>
	<path style="fill:#EDE21B;" d="M404.607,69.115c-1.461,0-2.942-0.373-4.299-1.156c-4.12-2.379-5.533-7.647-3.153-11.769   l12.852-22.259c2.379-4.122,7.647-5.534,11.769-3.153c4.12,2.379,5.533,7.649,3.153,11.769l-12.852,22.259   C410.482,67.57,407.586,69.115,404.607,69.115z"/>
</g>
<path style="fill:#F29F26;" d="M404.606,146.946c-0.024-0.583-0.057-1.166-0.1-1.746c-0.045-0.579-0.102-1.156-0.164-1.73  c-0.016-0.143-0.033-0.286-0.051-0.428c-0.135-1.146-0.309-2.28-0.518-3.402c-0.025-0.139-0.052-0.279-0.081-0.417  c-0.218-1.119-0.475-2.225-0.764-3.316c-0.038-0.135-0.072-0.268-0.111-0.403c-0.299-1.09-0.634-2.164-1-3.222  c-0.045-0.128-0.093-0.258-0.137-0.388c-0.379-1.054-0.788-2.095-1.231-3.117c-0.054-0.124-0.108-0.248-0.16-0.372  c-0.451-1.018-0.935-2.02-1.45-3.005c-0.06-0.118-0.123-0.236-0.186-0.353c-0.52-0.978-1.073-1.94-1.655-2.881  c-0.07-0.112-0.139-0.224-0.21-0.337c-0.617-0.979-1.268-1.939-1.948-2.872c-2.041-2.804-4.358-5.396-6.914-7.73l-0.008-0.006  c-0.012-0.011-0.023-0.023-0.034-0.031c-0.141-0.127-0.282-0.25-0.422-0.377c-0.157-0.139-0.311-0.279-0.47-0.418  c-0.073-0.065-0.15-0.127-0.226-0.193c-0.074-0.062-0.148-0.126-0.223-0.192c-0.076-0.066-0.156-0.128-0.233-0.195  c-0.075-0.066-0.153-0.131-0.229-0.196c-0.154-0.128-0.31-0.251-0.464-0.378c-0.154-0.126-0.31-0.25-0.465-0.374  c-0.158-0.126-0.32-0.25-0.48-0.376c-0.156-0.118-0.309-0.238-0.467-0.358c-0.16-0.121-0.326-0.242-0.49-0.365  c-0.157-0.114-0.316-0.23-0.473-0.344c-0.166-0.12-0.334-0.238-0.502-0.353c-0.158-0.114-0.319-0.225-0.479-0.335  c-0.169-0.115-0.339-0.229-0.507-0.342c-0.165-0.11-0.33-0.216-0.493-0.324c-0.169-0.112-0.341-0.223-0.514-0.331  c-0.168-0.107-0.335-0.21-0.504-0.314c-0.172-0.106-0.346-0.213-0.517-0.318c-0.172-0.101-0.345-0.202-0.515-0.303  c-0.174-0.102-0.348-0.205-0.522-0.304c-0.174-0.1-0.351-0.197-0.526-0.292c-0.177-0.098-0.351-0.196-0.528-0.292  c-0.179-0.096-0.359-0.191-0.54-0.284c-0.174-0.093-0.351-0.185-0.529-0.277c-0.183-0.093-0.37-0.183-0.555-0.275  c0,0-0.001,0-0.002-0.001c-0.003-0.002-0.01-0.005-0.014-0.006c-0.17-0.085-0.34-0.17-0.513-0.254  c-0.097-0.045-0.196-0.09-0.293-0.136c-0.098-0.044-0.195-0.092-0.292-0.137c-0.169-0.079-0.34-0.158-0.513-0.237  c-0.116-0.053-0.237-0.104-0.355-0.156c-0.117-0.051-0.236-0.103-0.354-0.156c-0.181-0.078-0.361-0.157-0.543-0.233  c-0.321-0.134-0.641-0.265-0.962-0.393c-0.158-0.062-0.316-0.121-0.473-0.18c-0.223-0.086-0.443-0.17-0.668-0.254  c-0.168-0.062-0.339-0.121-0.51-0.181c-0.212-0.075-0.426-0.153-0.642-0.226c-0.087-0.029-0.177-0.059-0.266-0.087  c-0.089-0.03-0.177-0.059-0.265-0.088c-0.106-0.033-0.212-0.069-0.317-0.103c-0.107-0.033-0.209-0.069-0.317-0.104  c-0.182-0.055-0.364-0.11-0.547-0.165c-0.208-0.064-0.419-0.126-0.629-0.186c-0.185-0.054-0.373-0.104-0.558-0.157  c-0.209-0.058-0.42-0.113-0.631-0.17c-0.188-0.051-0.376-0.097-0.562-0.142c-0.213-0.054-0.425-0.107-0.639-0.157  c-0.19-0.043-0.38-0.086-0.568-0.129c-0.214-0.05-0.429-0.095-0.644-0.141c-0.193-0.04-0.382-0.079-0.574-0.116  c-0.215-0.041-0.433-0.084-0.65-0.125c-0.097-0.018-0.191-0.032-0.288-0.052c-0.095-0.016-0.191-0.034-0.285-0.051  c-0.221-0.037-0.443-0.074-0.663-0.111c-0.192-0.031-0.381-0.061-0.573-0.088c-0.223-0.033-0.45-0.066-0.676-0.095  c-0.095-0.014-0.19-0.025-0.284-0.037c-0.094-0.014-0.188-0.026-0.284-0.037c-0.232-0.029-0.461-0.055-0.693-0.08  c-0.187-0.022-0.375-0.044-0.561-0.062c-0.117-0.011-0.238-0.02-0.358-0.031c-0.12-0.01-0.239-0.022-0.356-0.031  c-0.184-0.016-0.366-0.03-0.547-0.044c-0.252-0.019-0.505-0.034-0.756-0.048c-0.172-0.011-0.344-0.023-0.516-0.031  c-0.187-0.009-0.375-0.016-0.563-0.023c-0.095-0.002-0.187-0.008-0.28-0.011c-0.148-0.003-0.292-0.011-0.435-0.014  c-0.425-0.011-0.852-0.016-1.279-0.018c-0.002,0-0.006,0-0.008,0h-0.001c-0.003,0-0.004,0-0.009,0  c-0.426,0.002-0.852,0.008-1.279,0.018c-0.144,0.003-0.289,0.011-0.434,0.014c-0.094,0.003-0.186,0.009-0.28,0.011  c-0.19,0.006-0.378,0.014-0.563,0.023c-0.172,0.009-0.345,0.022-0.516,0.031c-0.251,0.014-0.505,0.029-0.755,0.048  c-0.183,0.014-0.365,0.028-0.548,0.044c-0.118,0.011-0.238,0.023-0.358,0.031c-0.118,0.012-0.239,0.022-0.359,0.031  c-0.186,0.018-0.373,0.041-0.561,0.062c-0.232,0.025-0.463,0.051-0.693,0.08c-0.096,0.011-0.191,0.023-0.284,0.037  c-0.096,0.012-0.191,0.023-0.284,0.037c-0.226,0.029-0.453,0.061-0.677,0.095c-0.193,0.027-0.381,0.057-0.573,0.088  c-0.22,0.036-0.442,0.073-0.663,0.111c-0.095,0.016-0.191,0.034-0.285,0.051c-0.096,0.019-0.191,0.033-0.286,0.052  c-0.22,0.041-0.436,0.084-0.652,0.125c-0.192,0.038-0.381,0.076-0.573,0.116c-0.214,0.046-0.429,0.092-0.644,0.141  c-0.19,0.043-0.378,0.086-0.568,0.129c-0.212,0.052-0.426,0.104-0.64,0.157c-0.186,0.045-0.375,0.092-0.562,0.142  c-0.211,0.057-0.422,0.112-0.632,0.17c-0.185,0.053-0.372,0.103-0.558,0.157c-0.21,0.06-0.421,0.123-0.629,0.186  c-0.183,0.056-0.364,0.111-0.547,0.165c-0.107,0.034-0.21,0.07-0.318,0.104c-0.102,0.033-0.209,0.069-0.314,0.103  c-0.089,0.029-0.178,0.058-0.266,0.088c-0.088,0.028-0.177,0.058-0.266,0.087c-0.213,0.073-0.429,0.151-0.642,0.226  c-0.169,0.06-0.34,0.118-0.51,0.181c-0.224,0.084-0.444,0.168-0.667,0.254c-0.158,0.059-0.316,0.117-0.474,0.18  c-0.322,0.128-0.643,0.26-0.962,0.393c-0.181,0.075-0.361,0.155-0.543,0.233c-0.118,0.053-0.236,0.106-0.353,0.156  c-0.118,0.052-0.239,0.103-0.356,0.156c-0.17,0.078-0.341,0.157-0.513,0.237c-0.097,0.045-0.194,0.093-0.292,0.137  c-0.098,0.045-0.196,0.09-0.293,0.136c-0.171,0.084-0.341,0.169-0.512,0.254c-0.004,0.001-0.011,0.004-0.014,0.006  c-0.001,0.001-0.003,0.001-0.003,0.001c-0.184,0.092-0.372,0.182-0.555,0.275c-0.178,0.092-0.353,0.184-0.528,0.277  c-0.181,0.094-0.361,0.188-0.541,0.284c-0.177,0.096-0.352,0.194-0.528,0.292c-0.174,0.096-0.35,0.193-0.524,0.292  c-0.174,0.099-0.348,0.202-0.522,0.304c-0.171,0.1-0.342,0.202-0.516,0.303c-0.172,0.104-0.346,0.212-0.517,0.318  c-0.167,0.104-0.335,0.208-0.504,0.314c-0.171,0.108-0.342,0.219-0.513,0.331c-0.164,0.108-0.328,0.214-0.492,0.324  c-0.169,0.113-0.339,0.227-0.507,0.342c-0.162,0.11-0.321,0.22-0.48,0.335c-0.168,0.115-0.335,0.234-0.502,0.353  c-0.157,0.114-0.314,0.229-0.473,0.344c-0.124,0.095-0.251,0.187-0.378,0.281c-0.285,3.463-0.436,6.964-0.436,10.499  c0,26.977,8.452,51.976,22.844,72.505c4.6,2.511,8.819,5.635,12.535,9.272c0.052-0.004,0.106-0.006,0.157-0.011  c0.019-0.002,0.037-0.002,0.055-0.003c0.64-0.054,1.273-0.124,1.905-0.2c0.159-0.019,0.317-0.039,0.474-0.06  c0.598-0.079,1.192-0.164,1.781-0.263c0.037-0.008,0.072-0.012,0.108-0.018c0.621-0.106,1.237-0.225,1.851-0.351  c0.155-0.031,0.306-0.066,0.459-0.099c0.568-0.122,1.134-0.254,1.693-0.394c0.051-0.014,0.099-0.025,0.149-0.037  c0.603-0.154,1.199-0.322,1.792-0.496c0.148-0.045,0.293-0.088,0.44-0.136c0.54-0.163,1.076-0.335,1.608-0.516  c0.061-0.022,0.12-0.04,0.18-0.059c0.58-0.202,1.154-0.416,1.726-0.638c0.141-0.055,0.281-0.11,0.42-0.166  c0.513-0.202,1.022-0.412,1.525-0.632c0.066-0.028,0.135-0.058,0.2-0.087c0.559-0.244,1.109-0.504,1.657-0.767  c0.132-0.065,0.265-0.13,0.396-0.196c0.486-0.241,0.967-0.487,1.445-0.741c0.071-0.038,0.143-0.074,0.214-0.113  c0.533-0.288,1.06-0.589,1.58-0.895c0.126-0.072,0.249-0.145,0.372-0.221c0.461-0.275,0.914-0.557,1.363-0.844  c0.074-0.047,0.149-0.094,0.222-0.14c0.507-0.33,1.007-0.669,1.499-1.014c0.116-0.079,0.229-0.164,0.342-0.244  c0.431-0.306,0.856-0.619,1.276-0.938c0.075-0.058,0.154-0.114,0.229-0.171c0.476-0.367,0.946-0.744,1.41-1.127  c0.107-0.089,0.211-0.178,0.318-0.267c0.4-0.335,0.794-0.678,1.186-1.026c0.074-0.067,0.154-0.136,0.23-0.204  c0.446-0.403,0.881-0.814,1.314-1.232c0.097-0.095,0.193-0.19,0.289-0.285c0.369-0.364,0.736-0.733,1.094-1.108  c0.076-0.078,0.153-0.156,0.227-0.235c0.411-0.436,0.815-0.88,1.212-1.329c0.088-0.101,0.174-0.204,0.263-0.306  c0.155-0.177,0.311-0.352,0.462-0.533l0.036-0.058c3.343-3.977,6.099-8.462,8.121-13.334l0.017-0.027  c0.21-0.505,0.41-1.014,0.602-1.529c0.05-0.126,0.095-0.256,0.141-0.383c0.173-0.467,0.337-0.936,0.495-1.409  c0.055-0.165,0.109-0.328,0.164-0.494c0.192-0.591,0.377-1.186,0.548-1.787c0.575-2.029,1.032-4.111,1.356-6.237  c0.072-0.472,0.137-0.947,0.196-1.423c0.048-0.381,0.093-0.764,0.131-1.146c0.174-1.726,0.265-3.477,0.265-5.25  c0-0.591-0.014-1.18-0.033-1.765C404.618,147.241,404.613,147.092,404.606,146.946z"/>
<g>
	<path style="fill:#5ABCE2;" d="M185.319,378.578c-15.006,0-30.01-5.711-41.435-17.133c-3.365-3.364-3.365-8.819-0.001-12.185   c3.364-3.366,8.818-3.364,12.184-0.001c16.131,16.127,42.373,16.13,58.5,0c3.363-3.363,8.819-3.363,12.184,0   c3.365,3.365,3.365,8.819,0,12.185C215.33,372.867,200.324,378.578,185.319,378.578z"/>
	<path style="fill:#5ABCE2;" d="M149.977,363.965c-2.206,0-4.41-0.841-6.092-2.524c-7.82-7.82-18.206-12.127-29.246-12.127   c-11.041,0-21.428,4.307-29.249,12.128c-3.363,3.363-8.819,3.363-12.184,0c-3.365-3.365-3.365-8.82,0-12.186   c11.074-11.074,25.789-17.173,41.433-17.173c15.643,0,30.357,6.099,41.43,17.174c3.365,3.364,3.365,8.819,0,12.185   C154.387,363.124,152.181,363.965,149.977,363.965z"/>
	<path style="fill:#5ABCE2;" d="M291.342,363.965c-2.205,0-4.41-0.841-6.091-2.523c-7.822-7.821-18.209-12.128-29.25-12.128   c-11.041,0-21.427,4.307-29.247,12.127c-3.364,3.365-8.819,3.364-12.185,0.001c-3.365-3.364-3.365-8.82-0.001-12.185   c11.073-11.075,25.789-17.174,41.433-17.174s30.359,6.099,41.434,17.173c3.365,3.365,3.365,8.82,0,12.186   C295.751,363.124,293.546,363.965,291.342,363.965z"/>
	<path style="fill:#5ABCE2;" d="M326.682,378.618c-15.643,0-30.359-6.099-41.433-17.174c-3.364-3.364-3.364-8.819,0.001-12.184   c3.364-3.363,8.819-3.364,12.184,0.001c7.82,7.82,18.206,12.127,29.247,12.127c11.041,0,21.429-4.307,29.25-12.128   c3.363-3.363,8.82-3.363,12.184,0c3.366,3.365,3.366,8.819,0,12.185C357.04,372.52,342.325,378.618,326.682,378.618z"/>
	<path style="fill:#5ABCE2;" d="M432.705,363.965c-2.205,0-4.41-0.841-6.091-2.523c-7.821-7.821-18.209-12.128-29.25-12.128   c-11.041,0-21.428,4.307-29.247,12.127c-3.364,3.365-8.82,3.364-12.185,0.001c-3.366-3.364-3.366-8.82-0.001-12.185   c11.073-11.075,25.789-17.174,41.433-17.174s30.358,6.099,41.434,17.173c3.365,3.365,3.365,8.82,0,12.186   C437.115,363.124,434.909,363.965,432.705,363.965z"/>
	<path style="fill:#5ABCE2;" d="M468.045,378.618c-15.644,0-30.358-6.099-41.433-17.174c-3.364-3.364-3.364-8.819,0.001-12.184   c3.364-3.363,8.819-3.364,12.185,0.001c7.82,7.82,18.206,12.127,29.247,12.127c11.041,0,21.428-4.307,29.247-12.127   c3.364-3.365,8.82-3.364,12.185-0.001c3.366,3.364,3.366,8.819,0.001,12.184C498.402,372.52,483.689,378.618,468.045,378.618z"/>
	<path style="fill:#5ABCE2;" d="M43.958,378.618c-15.644,0-30.358-6.099-41.434-17.173c-3.365-3.365-3.365-8.819,0-12.185   c3.363-3.363,8.819-3.363,12.184,0c7.821,7.821,18.208,12.128,29.25,12.128c11.041,0,21.427-4.307,29.247-12.127   c3.364-3.365,8.82-3.364,12.184-0.001c3.365,3.364,3.365,8.819,0.001,12.184C74.316,372.52,59.601,378.618,43.958,378.618z"/>
	<path style="fill:#5ABCE2;" d="M185.319,439.036c-15.005,0-30.01-5.711-41.435-17.132c-3.365-3.364-3.365-8.819-0.001-12.185   c3.364-3.364,8.818-3.363,12.184-0.001c16.13,16.125,42.373,16.127,58.5,0c3.364-3.363,8.819-3.364,12.185,0.001   c3.364,3.364,3.364,8.82-0.001,12.185C215.33,433.326,200.324,439.036,185.319,439.036z"/>
	<path style="fill:#5ABCE2;" d="M149.977,424.424c-2.206,0-4.411-0.841-6.092-2.524c-7.82-7.822-18.206-12.129-29.246-12.129   c-11.041,0-21.427,4.308-29.248,12.129c-3.364,3.366-8.82,3.364-12.185,0.001c-3.365-3.364-3.365-8.819-0.001-12.184   c11.075-11.077,25.789-17.176,41.434-17.176c15.643,0,30.357,6.1,41.43,17.176c3.365,3.365,3.365,8.819,0,12.184   C154.386,423.583,152.181,424.424,149.977,424.424z"/>
	<path style="fill:#5ABCE2;" d="M291.342,424.424c-2.206,0-4.41-0.841-6.092-2.524c-7.821-7.821-18.208-12.129-29.249-12.129   c-11.041,0-21.427,4.307-29.247,12.129c-3.364,3.366-8.819,3.366-12.185,0.001s-3.365-8.818-0.001-12.184   c11.073-11.077,25.788-17.176,41.433-17.176c15.645,0,30.359,6.1,41.435,17.176c3.364,3.364,3.364,8.819-0.001,12.184   C295.751,423.583,293.546,424.424,291.342,424.424z"/>
	<path style="fill:#5ABCE2;" d="M326.682,439.037c-15.006,0-30.007-5.71-41.432-17.133c-3.365-3.365-3.365-8.82,0-12.186   c3.363-3.363,8.819-3.363,12.184,0c16.127,16.127,42.37,16.127,58.498,0c3.364-3.363,8.82-3.364,12.185,0.001   c3.364,3.364,3.364,8.82-0.001,12.185C356.693,433.324,341.686,439.037,326.682,439.037z"/>
	<path style="fill:#5ABCE2;" d="M432.705,424.424c-2.206,0-4.41-0.841-6.092-2.524c-7.821-7.821-18.208-12.129-29.249-12.129   c-11.041,0-21.428,4.307-29.247,12.129c-3.364,3.366-8.819,3.366-12.185,0.001c-3.366-3.364-3.366-8.818-0.001-12.184   c11.073-11.077,25.788-17.176,41.433-17.176c15.644,0,30.358,6.1,41.435,17.176c3.364,3.364,3.364,8.819-0.001,12.184   C437.115,423.583,434.909,424.424,432.705,424.424z"/>
	<path style="fill:#5ABCE2;" d="M468.045,439.037c-15.006,0-30.009-5.711-41.432-17.133c-3.365-3.365-3.365-8.82,0-12.186   c3.363-3.363,8.819-3.363,12.184,0c16.127,16.127,42.369,16.127,58.496,0c3.363-3.363,8.819-3.363,12.184,0   c3.365,3.365,3.365,8.82,0,12.186C498.054,433.326,483.049,439.037,468.045,439.037z"/>
	<path style="fill:#5ABCE2;" d="M43.958,439.037c-15.005,0-30.009-5.711-41.434-17.133c-3.365-3.364-3.365-8.82-0.001-12.185   c3.364-3.366,8.819-3.364,12.184-0.001c16.13,16.127,42.372,16.127,58.498,0c3.363-3.363,8.819-3.363,12.184,0   c3.365,3.365,3.365,8.82,0,12.186C73.967,433.326,58.962,439.037,43.958,439.037z"/>
	<path style="fill:#5ABCE2;" d="M185.319,499.494c-15.006,0-30.01-5.711-41.435-17.133c-3.365-3.364-3.365-8.819-0.001-12.184   c3.364-3.365,8.818-3.364,12.184-0.001c16.131,16.127,42.373,16.13,58.5,0c3.363-3.363,8.819-3.363,12.184,0   c3.365,3.365,3.365,8.819,0,12.185C215.33,493.783,200.324,499.494,185.319,499.494z"/>
	<path style="fill:#5ABCE2;" d="M149.977,484.882c-2.206,0-4.41-0.841-6.092-2.524c-7.82-7.82-18.206-12.127-29.246-12.127   c-11.041,0-21.428,4.307-29.249,12.128c-3.363,3.363-8.819,3.363-12.184,0c-3.365-3.365-3.365-8.819,0-12.185   C84.28,459.099,98.995,453,114.639,453c15.643,0,30.357,6.099,41.43,17.174c3.365,3.364,3.365,8.819,0,12.184   C154.387,484.039,152.181,484.882,149.977,484.882z"/>
	<path style="fill:#5ABCE2;" d="M291.342,484.882c-2.205,0-4.41-0.841-6.091-2.523c-7.822-7.821-18.209-12.128-29.25-12.128   c-11.041,0-21.427,4.307-29.247,12.127c-3.364,3.365-8.819,3.364-12.185,0.001c-3.365-3.364-3.365-8.819-0.001-12.184   C225.642,459.099,240.357,453,256.001,453s30.359,6.099,41.434,17.173c3.365,3.365,3.365,8.819,0,12.185   C295.751,484.039,293.546,484.882,291.342,484.882z"/>
	<path style="fill:#5ABCE2;" d="M326.682,499.534c-15.643,0-30.359-6.099-41.433-17.174c-3.364-3.364-3.364-8.819,0.001-12.185   c3.364-3.363,8.819-3.364,12.184,0.001c7.82,7.82,18.206,12.127,29.247,12.127c11.041,0,21.429-4.307,29.25-12.128   c3.363-3.363,8.82-3.363,12.184,0c3.366,3.365,3.366,8.819,0,12.185C357.04,493.435,342.325,499.534,326.682,499.534z"/>
	<path style="fill:#5ABCE2;" d="M432.705,484.882c-2.205,0-4.41-0.841-6.091-2.523c-7.821-7.821-18.209-12.128-29.25-12.128   c-11.041,0-21.428,4.307-29.247,12.127c-3.364,3.365-8.82,3.364-12.185,0.001c-3.366-3.364-3.366-8.819-0.001-12.184   C367.004,459.099,381.719,453,397.363,453s30.358,6.099,41.434,17.173c3.365,3.365,3.365,8.819,0,12.185   C437.115,484.039,434.909,484.882,432.705,484.882z"/>
	<path style="fill:#5ABCE2;" d="M468.045,499.534c-15.644,0-30.358-6.099-41.433-17.174c-3.364-3.364-3.364-8.819,0.001-12.185   c3.364-3.363,8.819-3.364,12.185,0.001c7.82,7.82,18.206,12.127,29.247,12.127c11.041,0,21.428-4.307,29.247-12.127   c3.364-3.365,8.82-3.364,12.185-0.001c3.366,3.364,3.366,8.819,0.001,12.185C498.402,493.435,483.689,499.534,468.045,499.534z"/>
	<path style="fill:#5ABCE2;" d="M43.958,499.534c-15.644,0-30.358-6.099-41.434-17.173c-3.365-3.365-3.365-8.819,0-12.185   c3.363-3.363,8.819-3.363,12.184,0c7.821,7.821,18.208,12.128,29.25,12.128c11.041,0,21.427-4.307,29.247-12.127   c3.364-3.365,8.82-3.364,12.184-0.001c3.365,3.364,3.365,8.819,0.001,12.185C74.316,493.435,59.601,499.534,43.958,499.534z"/>
</g>
<path style="fill:#9FDEF7;" d="M289.537,296.437H87.599c-30.943,0-56.025-25.083-56.025-56.024  c0-30.943,25.082-56.024,56.025-56.024c5.845,0,11.477,0.898,16.773,2.556c-0.027-0.848-0.065-1.697-0.065-2.556  c0-41.617,33.739-75.356,75.356-75.356c35.885,0,65.891,25.092,73.482,58.681c4.502-1.502,9.314-2.326,14.321-2.326  c15.418,0,29.024,7.72,37.185,19.498c4.554-1.178,9.33-1.809,14.253-1.809c31.303,0,56.679,25.376,56.679,56.679  s-25.376,56.681-56.679,56.681h2.343"/>
<path style="fill:#83D4ED;" d="M157.515,176.778c0-24.123,5.432-46.974,15.128-67.41c-38.325,3.543-68.336,35.771-68.336,75.019  c0,0.858,0.038,1.708,0.065,2.556c-5.295-1.657-10.928-2.556-16.773-2.556c-30.943,0-56.025,25.081-56.025,56.024  c0,30.941,25.082,56.024,56.025,56.024h125.035C178.899,267.558,157.515,224.667,157.515,176.778z"/>
<g>
</g>
<g>
</g>
<g>
</g>
<g>
</g>
<g>
</g>
<g>
</g>
<g>
</g>
<g>
</g>
<g>
</g>
<g>
</g>
<g>
</g>
<g>
</g>
<g>
</g>
<g>
</g>
<g>
</g>
</svg>
