<?xml version="1.0" encoding="iso-8859-1"?>
<!-- Generator: Adobe Illustrator 19.0.0, SVG Export Plug-In . SVG Version: 6.00 Build 0)  -->
<svg xmlns="http://www.w3.org/2000/svg" xmlns:xlink="http://www.w3.org/1999/xlink" version="1.1" id="Layer_1" x="0px" y="0px" viewBox="0 0 512 512" style="enable-background:new 0 0 512 512;" xml:space="preserve">
<path style="fill:#9FDEF7;" d="M429.295,192.729h23.72c32.03,0,57.991-25.964,57.991-57.991c0-32.026-25.962-57.988-57.991-57.988  c-5.034,0-9.923,0.645-14.583,1.851c-8.347-12.053-22.27-19.951-38.042-19.951c-5.125,0-10.047,0.845-14.655,2.382  c-7.765-34.366-38.465-60.038-75.178-60.038c-42.581,0-77.097,34.517-77.097,77.096c0,0.879,0.036,1.748,0.066,2.617  c-5.418-1.698-11.184-2.617-17.162-2.617c-26.085,0-48.087,17.432-55.026,41.279c11.739-7.238,25.566-11.42,40.373-11.42  c42.578,0,77.097,34.518,77.097,77.097c0,0.877-0.038,1.747-0.068,2.616c5.419-1.697,11.181-2.616,17.161-2.616  c10.442,0,20.222,2.806,28.652,7.682h75.022"/>
<path style="fill:#83D4ED;" d="M285.965,84.835c0-30.618,8.392-59.271,22.988-83.803c-41.838,0.859-75.493,35.015-75.493,77.055  c0,0.879,0.036,1.748,0.066,2.617c-5.417-1.698-11.184-2.617-17.162-2.617c-26.085,0-48.087,17.432-55.026,41.279  c11.739-7.238,25.566-11.42,40.373-11.42c42.578,0,77.097,34.518,77.097,77.097c0,0.877-0.038,1.747-0.068,2.616  c5.419-1.697,11.181-2.616,17.161-2.616c10.442,0,20.222,2.806,28.652,7.682h1.856C301.227,163.877,285.965,126.141,285.965,84.835z  "/>
<path style="fill:#E4F2F9;" d="M60.365,298.57h54.213c40.527-26.893,89.14-42.572,141.422-42.572  c31.433,0,61.537,5.675,89.359,16.034c5.676-8.894,8.978-19.45,8.978-30.782c0-31.659-25.662-57.321-57.321-57.321  c-5.98,0-11.743,0.918-17.161,2.616c0.029-0.867,0.068-1.738,0.068-2.616c0-42.578-34.518-77.097-77.097-77.097  c-36.715,0-67.413,25.673-75.18,60.039c-4.606-1.538-9.53-2.383-14.652-2.383c-15.774,0-29.694,7.899-38.044,19.951  c-4.66-1.206-9.545-1.851-14.584-1.851c-32.026,0-57.988,25.962-57.988,57.989C2.377,272.606,28.338,298.57,60.365,298.57z"/>
<path style="fill:#D7EDF9;" d="M125.557,219.733c0-24.114,2.854-47.56,8.211-70.036c-2.68,5.401-4.762,11.151-6.123,17.177  c-4.606-1.538-9.53-2.383-14.652-2.383c-15.774,0-29.694,7.899-38.044,19.951c-4.66-1.206-9.545-1.851-14.584-1.851  c-32.026,0-57.988,25.962-57.988,57.989c0,32.026,25.962,57.99,57.988,57.99h54.213c6.027-4,12.238-7.745,18.608-11.234  C128.196,265.605,125.557,242.978,125.557,219.733z"/>
<path style="fill:#ED5145;" d="M434.354,327.353c-48.107-46.732-111.448-72.468-178.354-72.468s-130.247,25.736-178.354,72.468  c-48.005,46.632-75.578,109-77.641,175.616c-0.066,2.109,0.726,4.154,2.195,5.667c1.468,1.514,3.487,2.37,5.596,2.37h134.62  c0-62.732,50.853-113.585,113.585-113.585s113.584,50.853,113.584,113.585h134.621c2.109,0,4.128-0.854,5.596-2.37  c1.469-1.513,2.261-3.558,2.196-5.667C509.931,436.354,482.357,373.985,434.354,327.353z"/>
<path style="fill:#F75C54;" d="M434.354,327.353c-48.107-46.732-111.448-72.468-178.354-72.468  c-43.599,0-85.681,10.937-123.025,31.484c10.833,47.915,33.099,91.486,63.775,127.715c17.25-10.568,37.537-16.663,59.25-16.663  c62.732,0,113.584,50.853,113.584,113.585h132.861c2.276-0.591,4.542-1.205,6.798-1.849c0.194-0.164,0.38-0.337,0.558-0.521  c1.469-1.513,2.261-3.558,2.196-5.667C509.931,436.354,482.357,373.985,434.354,327.353z"/>
<path style="fill:#F29F26;" d="M397.736,363.382c-36.776-35.32-86.722-57.029-141.737-57.029  c-113.026,0-204.651,91.628-204.651,204.652h104.987c0-55.044,44.621-99.664,99.664-99.664c55.042,0,99.664,44.621,99.664,99.664  h104.987c0-47.268-16.025-90.792-42.939-125.439"/>
<path style="fill:#F9A83D;" d="M417.711,385.566l-19.976-22.184c-36.776-35.32-86.722-57.029-141.737-57.029  c-39.201,0-75.823,11.03-106.946,30.144c13.803,32.759,33.25,62.549,57.106,88.184c14.661-8.483,31.683-13.342,49.84-13.342  c55.042,0,99.664,44.621,99.664,99.664h104.987C460.651,463.738,444.625,420.214,417.711,385.566z"/>
<path style="fill:#58C445;" d="M256,358.806c-84.058,0-152.201,68.14-152.201,152.2h52.536c0-55.044,44.621-99.664,99.664-99.664  c55.042,0,99.664,44.621,99.664,99.664H408.2C408.199,426.946,340.056,358.806,256,358.806z"/>
<path style="fill:#6AD354;" d="M256,358.806c-30.34,0-58.605,8.881-82.342,24.18c9.609,14.854,20.499,28.798,32.502,41.696  c14.661-8.483,31.683-13.342,49.84-13.342c55.043,0,99.664,44.621,99.664,99.664h52.537  C408.199,426.946,340.056,358.806,256,358.806z"/>
<g>
</g>
<g>
</g>
<g>
</g>
<g>
</g>
<g>
</g>
<g>
</g>
<g>
</g>
<g>
</g>
<g>
</g>
<g>
</g>
<g>
</g>
<g>
</g>
<g>
</g>
<g>
</g>
<g>
</g>
</svg>
