<?xml version="1.0" encoding="iso-8859-1"?>
<!-- Generator: Adobe Illustrator 19.0.0, SVG Export Plug-In . SVG Version: 6.00 Build 0)  -->
<svg xmlns="http://www.w3.org/2000/svg" xmlns:xlink="http://www.w3.org/1999/xlink" version="1.1" id="Layer_1" x="0px" y="0px" viewBox="0 0 512 512" style="enable-background:new 0 0 512 512;" xml:space="preserve">
<path style="fill:#CCCCCC;" d="M208.808,357.861l-0.022-0.013c-0.022-0.02-0.041-0.038-0.063-0.058  c-0.871-0.752-1.733-1.515-2.584-2.289c-0.002-0.002-0.004-0.004-0.007-0.007c-0.834-0.758-1.658-1.528-2.471-2.308  c-0.242-0.23-0.478-0.467-0.719-0.699c-0.568-0.555-1.139-1.11-1.699-1.673c-0.296-0.298-0.585-0.6-0.878-0.9  c-0.499-0.51-0.995-1.023-1.483-1.538c-0.312-0.329-0.619-0.66-0.926-0.994c-0.462-0.497-0.923-0.997-1.376-1.503  c-0.316-0.349-0.626-0.702-0.937-1.055c-0.441-0.498-0.877-1-1.308-1.504c-0.309-0.362-0.619-0.727-0.925-1.095  c-0.422-0.504-0.842-1.016-1.257-1.528c-0.303-0.371-0.603-0.742-0.901-1.117c-0.416-0.523-0.823-1.05-1.23-1.576  c-0.287-0.372-0.574-0.743-0.855-1.117c-0.417-0.55-0.824-1.107-1.228-1.662c-0.264-0.361-0.53-0.719-0.79-1.081  c-0.433-0.606-0.856-1.218-1.28-1.831c-0.222-0.321-0.447-0.639-0.667-0.962c-0.547-0.809-1.085-1.626-1.615-2.447  c-0.086-0.132-0.173-0.261-0.259-0.393c-0.614-0.957-1.212-1.921-1.803-2.892c-0.181-0.298-0.354-0.6-0.532-0.9  c-0.404-0.677-0.805-1.353-1.197-2.039c-0.221-0.384-0.432-0.77-0.647-1.156c-0.339-0.609-0.679-1.218-1.01-1.832  c-0.226-0.419-0.447-0.845-0.669-1.267c-0.308-0.588-0.616-1.176-0.915-1.769c-0.223-0.439-0.44-0.881-0.66-1.323  c-0.287-0.586-0.572-1.173-0.852-1.763c-0.214-0.452-0.427-0.905-0.635-1.359c-0.271-0.588-0.536-1.181-0.801-1.775  c-0.202-0.46-0.405-0.918-0.602-1.378c-0.26-0.601-0.512-1.209-0.761-1.815c-0.191-0.457-0.379-0.914-0.563-1.373  c-0.25-0.625-0.49-1.254-0.732-1.884c-0.171-0.448-0.346-0.894-0.51-1.343c-0.248-0.669-0.483-1.343-0.721-2.018  c-0.146-0.414-0.297-0.827-0.438-1.243c-0.269-0.786-0.523-1.576-0.776-2.368c-0.1-0.31-0.206-0.62-0.303-0.934  c-0.343-1.104-0.674-2.212-0.99-3.328c-0.072-0.255-0.138-0.512-0.208-0.768c-0.24-0.866-0.476-1.731-0.699-2.602  c-0.105-0.416-0.202-0.835-0.303-1.251c-0.177-0.715-0.353-1.436-0.518-2.156c-0.108-0.47-0.205-0.937-0.306-1.405  c-0.147-0.679-0.294-1.356-0.428-2.04c-0.098-0.489-0.191-0.984-0.284-1.477c-0.126-0.666-0.249-1.334-0.364-2.002  c-0.088-0.505-0.169-1.009-0.251-1.514c-0.108-0.666-0.21-1.337-0.307-2.004c-0.074-0.509-0.146-1.018-0.215-1.531  c-0.09-0.674-0.173-1.351-0.253-2.03c-0.059-0.508-0.118-1.015-0.173-1.525c-0.074-0.692-0.14-1.387-0.202-2.081  c-0.046-0.499-0.093-0.996-0.134-1.498c-0.058-0.723-0.105-1.452-0.153-2.181c-0.031-0.473-0.065-0.946-0.09-1.419  c-0.043-0.805-0.071-1.615-0.101-2.422c-0.014-0.4-0.035-0.8-0.045-1.202c-0.033-1.211-0.052-2.426-0.052-3.645  c0-12.765,1.778-25.115,5.102-36.813c8.086-28.468,25.32-53.08,48.318-70.479c-22.543-17.059-50.622-27.182-81.07-27.182  C60.208,121.525,0,181.731,0,256s60.208,134.477,134.476,134.477c30.456,0,58.542-10.131,81.088-27.199  C213.259,361.536,210.992,359.748,208.808,357.861z"/>
<path style="fill:#BCBAB7;" d="M21.942,256c0-70.575,54.369-128.444,123.504-134.027c-3.618-0.293-7.276-0.448-10.97-0.448  C60.208,121.525,0,181.731,0,256s60.208,134.477,134.476,134.477c3.694,0,7.35-0.156,10.969-0.448  C76.31,384.446,21.942,326.574,21.942,256z"/>
<g>
	<circle style="fill:#EAE6E1;" cx="67.441" cy="206.461" r="15.775"/>
	<path style="fill:#EAE6E1;" d="M32.168,280.142c-10.439,0-20.119,3.223-28.115,8.722c8.467,33.706,29.652,62.364,58.163,80.565   c11.94-9.077,19.655-23.427,19.655-39.584C81.871,302.394,59.619,280.142,32.168,280.142z"/>
</g>
<path style="fill:#D8D1CA;" d="M24.228,280.778c-7.397,1.19-14.25,4.011-20.175,8.086c0.791,3.147,1.693,6.249,2.7,9.306  c0.007,0.018,0.012,0.034,0.018,0.052c0.328,0.992,0.667,1.978,1.017,2.959c0.014,0.036,0.026,0.074,0.039,0.112  c0.343,0.96,0.699,1.916,1.063,2.866c0.023,0.058,0.044,0.115,0.067,0.173c0.36,0.934,0.73,1.861,1.11,2.783  c0.03,0.072,0.058,0.146,0.089,0.218c0.374,0.906,0.759,1.807,1.153,2.703c0.039,0.088,0.078,0.178,0.117,0.267  c0.391,0.881,0.789,1.757,1.196,2.625c0.047,0.102,0.094,0.204,0.143,0.304c0.404,0.857,0.816,1.709,1.238,2.555  c0.056,0.112,0.112,0.226,0.169,0.339c0.416,0.833,0.843,1.661,1.276,2.484c0.066,0.124,0.131,0.249,0.197,0.373  c0.43,0.81,0.868,1.614,1.312,2.413c0.076,0.135,0.153,0.27,0.227,0.405c0.443,0.787,0.893,1.569,1.349,2.347  c0.084,0.143,0.169,0.285,0.253,0.428c0.455,0.767,0.918,1.529,1.388,2.285c0.093,0.149,0.187,0.298,0.28,0.447  c0.468,0.747,0.941,1.487,1.424,2.223c0.102,0.157,0.205,0.312,0.306,0.467c0.481,0.726,0.967,1.448,1.46,2.167  c0.111,0.159,0.221,0.317,0.331,0.477c0.492,0.708,0.99,1.411,1.493,2.109c0.12,0.165,0.241,0.329,0.362,0.494  c0.501,0.688,1.009,1.371,1.524,2.048c0.129,0.169,0.259,0.339,0.389,0.508c0.512,0.667,1.03,1.331,1.555,1.989  c0.138,0.174,0.28,0.347,0.419,0.521c0.523,0.648,1.05,1.294,1.584,1.933c0.147,0.176,0.296,0.349,0.443,0.523  c0.534,0.632,1.073,1.261,1.619,1.883c0.154,0.176,0.308,0.348,0.463,0.523c0.546,0.615,1.097,1.229,1.654,1.834  c0.16,0.174,0.324,0.347,0.484,0.521c0.558,0.601,1.12,1.198,1.689,1.788c0.167,0.172,0.337,0.343,0.504,0.516  c0.569,0.584,1.142,1.166,1.721,1.74c0.174,0.172,0.35,0.341,0.526,0.513c0.58,0.569,1.163,1.134,1.754,1.692  c0.179,0.169,0.361,0.335,0.54,0.503c0.594,0.555,1.19,1.107,1.794,1.651c0.18,0.162,0.363,0.321,0.544,0.483  c0.61,0.543,1.221,1.083,1.841,1.616c0.18,0.155,0.362,0.305,0.542,0.459c0.628,0.533,1.257,1.064,1.895,1.586  c0.174,0.143,0.352,0.282,0.527,0.425c0.65,0.526,1.3,1.05,1.959,1.565c0.162,0.127,0.33,0.251,0.494,0.38  c0.675,0.522,1.353,1.041,2.038,1.551c0.149,0.111,0.3,0.217,0.45,0.328c0.705,0.521,1.414,1.037,2.13,1.543  c0.123,0.088,0.249,0.171,0.373,0.258c0.747,0.524,1.498,1.046,2.257,1.556c0.072,0.049,0.148,0.097,0.221,0.146  c0.811,0.543,1.627,1.078,2.45,1.605c3.475-2.641,6.577-5.74,9.25-9.19C47.329,340.547,30.164,312.638,24.228,280.778z"/>
<path style="fill:#EAC71C;" d="M391.374,349.915c0.497-0.51,0.994-1.023,1.483-1.538c0.309-0.329,0.618-0.66,0.925-0.994  c0.462-0.497,0.922-0.997,1.376-1.503c0.315-0.349,0.625-0.702,0.937-1.055c0.439-0.498,0.874-1,1.306-1.504  c0.31-0.362,0.618-0.727,0.926-1.095c0.422-0.504,0.841-1.016,1.258-1.528c0.301-0.371,0.603-0.742,0.901-1.117  c0.414-0.523,0.824-1.05,1.229-1.576c0.287-0.372,0.574-0.743,0.857-1.117c0.414-0.55,0.821-1.107,1.227-1.662  c0.262-0.361,0.529-0.719,0.789-1.081c0.434-0.606,0.857-1.218,1.279-1.831c0.223-0.321,0.449-0.639,0.666-0.962  c0.55-0.809,1.087-1.626,1.618-2.447c0.086-0.132,0.173-0.261,0.259-0.393c0.612-0.957,1.212-1.921,1.803-2.892  c0.179-0.298,0.352-0.6,0.531-0.9c0.405-0.677,0.806-1.353,1.198-2.038c0.22-0.384,0.431-0.77,0.646-1.156  c0.34-0.609,0.68-1.218,1.012-1.832c0.226-0.419,0.447-0.845,0.668-1.267c0.308-0.588,0.618-1.176,0.917-1.769  c0.222-0.439,0.438-0.881,0.657-1.323c0.287-0.586,0.575-1.173,0.854-1.763c0.214-0.452,0.427-0.905,0.635-1.359  c0.271-0.588,0.538-1.181,0.801-1.775c0.203-0.46,0.404-0.918,0.602-1.378c0.259-0.601,0.511-1.209,0.764-1.815  c0.188-0.458,0.376-0.914,0.561-1.373c0.25-0.625,0.49-1.254,0.732-1.884c0.17-0.448,0.344-0.894,0.511-1.343  c0.248-0.669,0.484-1.343,0.72-2.018c0.147-0.414,0.297-0.827,0.439-1.243c0.267-0.786,0.522-1.576,0.775-2.368  c0.1-0.31,0.207-0.62,0.303-0.934c0.344-1.104,0.674-2.212,0.991-3.328c0.07-0.255,0.137-0.512,0.207-0.768  c0.239-0.866,0.475-1.731,0.698-2.602c0.106-0.416,0.204-0.835,0.306-1.251c0.174-0.715,0.35-1.436,0.516-2.156  c0.106-0.47,0.204-0.937,0.305-1.405c0.147-0.679,0.294-1.356,0.429-2.04c0.099-0.489,0.191-0.984,0.284-1.477  c0.125-0.666,0.249-1.334,0.364-2.002c0.087-0.505,0.169-1.009,0.252-1.514c0.106-0.666,0.208-1.337,0.307-2.004  c0.072-0.509,0.144-1.018,0.213-1.531c0.09-0.674,0.173-1.351,0.255-2.03c0.059-0.508,0.117-1.015,0.173-1.525  c0.074-0.692,0.139-1.387,0.203-2.081c0.047-0.499,0.092-0.996,0.134-1.498c0.058-0.723,0.105-1.452,0.151-2.181  c0.03-0.473,0.065-0.946,0.09-1.419c0.043-0.805,0.071-1.615,0.101-2.422c0.014-0.4,0.034-0.8,0.045-1.202  c0.033-1.211,0.052-2.426,0.052-3.645c0-12.765-1.778-25.115-5.102-36.814c-8.156-28.718-25.616-53.523-48.914-70.947  c-22.437-16.779-50.288-26.715-80.459-26.715h-0.001l0,0c-30.173,0-58.022,9.937-80.459,26.715  c-23.299,17.424-40.759,42.229-48.915,70.947c-3.323,11.699-5.102,24.048-5.102,36.814c0,1.219,0.019,2.435,0.052,3.645  c0.01,0.402,0.031,0.801,0.045,1.202c0.029,0.807,0.058,1.617,0.101,2.422c0.025,0.473,0.059,0.946,0.09,1.419  c0.047,0.73,0.094,1.458,0.153,2.181c0.041,0.501,0.088,0.998,0.134,1.498c0.061,0.696,0.127,1.39,0.202,2.081  c0.055,0.51,0.115,1.017,0.173,1.525c0.08,0.678,0.163,1.355,0.253,2.03c0.069,0.512,0.142,1.021,0.215,1.531  c0.098,0.667,0.201,1.339,0.307,2.004c0.081,0.505,0.162,1.009,0.251,1.514c0.115,0.668,0.238,1.336,0.364,2.002  c0.093,0.493,0.187,0.986,0.284,1.477c0.134,0.684,0.281,1.36,0.428,2.04c0.102,0.468,0.2,0.936,0.306,1.405  c0.163,0.72,0.341,1.441,0.518,2.156c0.102,0.416,0.199,0.835,0.303,1.251c0.223,0.871,0.459,1.737,0.699,2.602  c0.07,0.256,0.136,0.515,0.208,0.768c0.316,1.116,0.646,2.224,0.99,3.328c0.098,0.313,0.204,0.622,0.303,0.934  c0.252,0.793,0.507,1.582,0.776,2.368c0.142,0.416,0.293,0.829,0.438,1.243c0.238,0.675,0.474,1.348,0.721,2.018  c0.165,0.448,0.339,0.894,0.51,1.343c0.241,0.63,0.482,1.258,0.732,1.884c0.184,0.459,0.372,0.915,0.563,1.373  c0.249,0.607,0.501,1.215,0.761,1.815c0.197,0.46,0.399,0.918,0.602,1.378c0.264,0.595,0.53,1.187,0.801,1.775  c0.208,0.454,0.421,0.907,0.635,1.359c0.281,0.59,0.566,1.177,0.852,1.763c0.219,0.442,0.437,0.884,0.66,1.323  c0.299,0.592,0.607,1.181,0.915,1.769c0.223,0.423,0.443,0.848,0.669,1.267c0.331,0.614,0.67,1.223,1.01,1.832  c0.215,0.386,0.427,0.772,0.647,1.156c0.391,0.686,0.793,1.362,1.197,2.038c0.178,0.3,0.351,0.602,0.532,0.9  c0.589,0.971,1.188,1.935,1.803,2.892c0.086,0.132,0.173,0.261,0.259,0.393c0.529,0.821,1.068,1.638,1.615,2.447  c0.221,0.324,0.445,0.641,0.667,0.962c0.425,0.613,0.848,1.225,1.28,1.831c0.259,0.362,0.526,0.72,0.79,1.081  c0.404,0.555,0.811,1.113,1.228,1.662c0.281,0.374,0.568,0.745,0.855,1.117c0.407,0.526,0.814,1.053,1.23,1.576  c0.297,0.375,0.598,0.746,0.901,1.117c0.416,0.512,0.835,1.025,1.257,1.528c0.306,0.368,0.616,0.733,0.925,1.095  c0.432,0.505,0.867,1.006,1.308,1.504c0.309,0.353,0.621,0.707,0.937,1.055c0.453,0.506,0.914,1.006,1.376,1.503  c0.306,0.335,0.613,0.665,0.926,0.994c0.487,0.517,0.983,1.029,1.483,1.538c0.293,0.3,0.581,0.602,0.878,0.9  c0.561,0.564,1.13,1.119,1.699,1.673c0.241,0.231,0.477,0.468,0.719,0.699c0.813,0.78,1.637,1.549,2.471,2.308  c0.002,0.002,0.004,0.004,0.007,0.007c0.85,0.773,1.713,1.537,2.584,2.289c0.022,0.02,0.041,0.038,0.063,0.058l0.023,0.013  c6.015,5.192,12.501,9.851,19.376,13.923l0.088,0.065c0.17,0.101,0.344,0.193,0.517,0.294c0.901,0.528,1.812,1.046,2.729,1.555  c0.242,0.134,0.482,0.272,0.724,0.405c1.149,0.628,2.306,1.236,3.472,1.829c0.272,0.14,0.55,0.273,0.824,0.409  c0.918,0.461,1.844,0.911,2.777,1.352c0.358,0.169,0.715,0.337,1.074,0.503c0.987,0.454,1.981,0.896,2.98,1.326  c0.224,0.097,0.443,0.197,0.668,0.294c1.211,0.517,2.433,1.012,3.662,1.49c0.308,0.118,0.618,0.235,0.927,0.352  c0.953,0.364,1.912,0.718,2.876,1.061c0.374,0.135,0.748,0.267,1.122,0.396c1.071,0.371,2.146,0.729,3.227,1.071  c0.196,0.064,0.389,0.129,0.587,0.192c1.269,0.396,2.546,0.77,3.831,1.131c0.34,0.093,0.682,0.184,1.024,0.276  c0.983,0.266,1.967,0.523,2.958,0.767c0.388,0.097,0.779,0.192,1.17,0.286c1.159,0.274,2.322,0.537,3.493,0.781  c0.156,0.033,0.309,0.07,0.466,0.103c1.318,0.269,2.646,0.517,3.978,0.749c0.369,0.066,0.738,0.123,1.108,0.184  c1.009,0.167,2.022,0.323,3.039,0.468c0.399,0.057,0.8,0.113,1.201,0.167c1.266,0.169,2.536,0.324,3.815,0.455  c0.09,0.01,0.178,0.022,0.268,0.031c1.364,0.139,2.735,0.252,4.111,0.35c0.393,0.027,0.788,0.049,1.182,0.075  c1.032,0.066,2.07,0.118,3.109,0.159c0.407,0.015,0.813,0.035,1.22,0.046c1.392,0.043,2.787,0.072,4.19,0.072l0,0h0.001  c1.401,0,2.799-0.03,4.19-0.072c0.406-0.011,0.813-0.031,1.218-0.046c1.041-0.039,2.077-0.093,3.11-0.159  c0.395-0.025,0.791-0.047,1.183-0.075c1.375-0.099,2.745-0.211,4.109-0.35c0.092-0.01,0.18-0.022,0.27-0.031  c1.277-0.132,2.546-0.286,3.813-0.455c0.403-0.054,0.803-0.111,1.202-0.167c1.018-0.146,2.031-0.301,3.039-0.468  c0.37-0.061,0.74-0.118,1.108-0.184c1.332-0.233,2.659-0.481,3.978-0.749c0.157-0.033,0.31-0.07,0.467-0.103  c1.168-0.245,2.335-0.507,3.493-0.781c0.389-0.094,0.78-0.19,1.171-0.286c0.989-0.245,1.976-0.501,2.956-0.767  c0.341-0.092,0.682-0.183,1.024-0.276c1.285-0.361,2.563-0.735,3.832-1.131c0.196-0.063,0.389-0.128,0.587-0.192  c1.081-0.342,2.156-0.7,3.226-1.071c0.376-0.129,0.749-0.261,1.122-0.396c0.964-0.343,1.922-0.697,2.876-1.061  c0.309-0.117,0.619-0.234,0.927-0.352c1.229-0.479,2.451-0.974,3.662-1.49c0.226-0.097,0.447-0.197,0.671-0.295  c0.998-0.429,1.99-0.871,2.975-1.325c0.359-0.166,0.718-0.334,1.074-0.503c0.933-0.44,1.857-0.89,2.777-1.352  c0.275-0.136,0.551-0.269,0.825-0.409c1.166-0.592,2.324-1.201,3.47-1.829c0.244-0.133,0.483-0.271,0.726-0.405  c0.915-0.509,1.827-1.027,2.73-1.555c0.169-0.101,0.344-0.193,0.515-0.294l0.089-0.065c6.875-4.07,13.359-8.731,19.376-13.923  l0.022-0.013c0.02-0.02,0.041-0.038,0.065-0.058c0.87-0.752,1.731-1.515,2.583-2.289c0.002-0.002,0.004-0.004,0.005-0.007  c0.835-0.758,1.657-1.528,2.471-2.308c0.244-0.23,0.478-0.467,0.718-0.699c0.57-0.555,1.141-1.11,1.701-1.673  C390.792,350.518,391.081,350.215,391.374,349.915z"/>
<path style="fill:#EDE21B;" d="M375.598,148.241c-20.953-15.668-46.63-25.365-74.506-26.579  c-40.557,22.805-67.959,66.242-67.959,116.085c0,73.126,58.976,132.469,131.958,133.083c6.301-3.847,12.279-8.168,17.843-12.968  l0.022-0.013c0.02-0.02,0.041-0.038,0.065-0.058c0.87-0.752,1.731-1.515,2.583-2.289c0.002-0.002,0.004-0.004,0.005-0.007  c0.835-0.758,1.657-1.528,2.471-2.308c0.244-0.23,0.478-0.467,0.718-0.699c0.57-0.555,1.141-1.11,1.701-1.673  c0.297-0.298,0.585-0.6,0.879-0.9c0.497-0.51,0.994-1.023,1.483-1.538c0.309-0.329,0.618-0.66,0.925-0.994  c0.462-0.497,0.922-0.997,1.376-1.503c0.315-0.349,0.625-0.702,0.937-1.055c0.439-0.498,0.874-1,1.306-1.504  c0.31-0.362,0.618-0.727,0.926-1.095c0.422-0.504,0.842-1.016,1.258-1.528c0.301-0.371,0.603-0.742,0.901-1.117  c0.414-0.523,0.824-1.05,1.229-1.576c0.287-0.372,0.574-0.743,0.857-1.117c0.414-0.55,0.821-1.107,1.227-1.662  c0.262-0.361,0.529-0.719,0.789-1.081c0.434-0.606,0.857-1.218,1.279-1.831c0.223-0.321,0.449-0.639,0.666-0.962  c0.55-0.809,1.087-1.626,1.618-2.447c0.086-0.132,0.173-0.261,0.259-0.393c0.612-0.957,1.212-1.921,1.803-2.892  c0.179-0.298,0.352-0.6,0.531-0.9c0.405-0.677,0.806-1.353,1.198-2.038c0.221-0.384,0.431-0.77,0.646-1.156  c0.34-0.609,0.68-1.218,1.012-1.832c0.226-0.419,0.447-0.845,0.668-1.267c0.308-0.588,0.618-1.176,0.917-1.769  c0.222-0.439,0.438-0.881,0.657-1.323c0.287-0.586,0.575-1.173,0.854-1.763c0.214-0.452,0.427-0.905,0.635-1.359  c0.271-0.588,0.538-1.181,0.801-1.775c0.203-0.46,0.404-0.918,0.602-1.378c0.259-0.601,0.511-1.209,0.764-1.815  c0.188-0.458,0.376-0.914,0.561-1.373c0.25-0.625,0.49-1.254,0.732-1.884c0.17-0.448,0.345-0.894,0.511-1.343  c0.248-0.669,0.484-1.343,0.72-2.018c0.147-0.414,0.297-0.827,0.439-1.243c0.267-0.786,0.522-1.576,0.775-2.368  c0.1-0.31,0.207-0.62,0.303-0.934c0.344-1.104,0.674-2.212,0.991-3.328c0.07-0.255,0.137-0.512,0.207-0.768  c0.239-0.866,0.475-1.731,0.698-2.602c0.106-0.416,0.204-0.835,0.306-1.251c0.174-0.715,0.35-1.436,0.516-2.156  c0.106-0.47,0.204-0.937,0.305-1.405c0.147-0.679,0.294-1.356,0.429-2.04c0.099-0.489,0.191-0.984,0.284-1.477  c0.125-0.666,0.249-1.334,0.364-2.002c0.087-0.505,0.169-1.009,0.252-1.514c0.106-0.666,0.208-1.337,0.307-2.004  c0.072-0.509,0.144-1.018,0.213-1.531c0.09-0.674,0.173-1.351,0.255-2.03c0.059-0.508,0.117-1.015,0.173-1.525  c0.073-0.692,0.139-1.387,0.203-2.081c0.047-0.499,0.092-0.996,0.134-1.498c0.058-0.723,0.105-1.452,0.151-2.181  c0.03-0.473,0.065-0.946,0.09-1.419c0.043-0.805,0.071-1.615,0.101-2.422c0.014-0.4,0.034-0.8,0.045-1.202  c0.033-1.211,0.052-2.426,0.052-3.645c0-12.765-1.778-25.115-5.102-36.814C416.357,190.47,398.897,165.664,375.598,148.241z"/>
<path style="fill:#EF8229;" d="M396.705,256c0-1.17-0.027-2.333-0.066-3.492c-0.011-0.29-0.022-0.579-0.033-0.869  c-0.05-1.156-0.11-2.307-0.199-3.454c-0.088-1.149-0.201-2.286-0.325-3.422c-0.032-0.284-0.064-0.566-0.098-0.848  c-0.268-2.264-0.612-4.507-1.027-6.727c-0.05-0.276-0.103-0.551-0.159-0.825c-0.433-2.214-0.938-4.4-1.512-6.56  c-0.071-0.267-0.144-0.531-0.217-0.798c-0.592-2.154-1.253-4.277-1.981-6.372c-0.088-0.256-0.179-0.512-0.27-0.767  c-0.746-2.088-1.557-4.145-2.433-6.168c-0.104-0.245-0.211-0.488-0.318-0.731c-0.892-2.017-1.848-3.999-2.864-5.944  c-0.121-0.234-0.246-0.465-0.369-0.699c-1.031-1.938-2.124-3.836-3.274-5.696c-0.139-0.222-0.278-0.443-0.418-0.665  c-1.221-1.94-2.506-3.836-3.852-5.684c-4.037-5.547-8.62-10.669-13.675-15.286l-0.014-0.015c-0.024-0.02-0.046-0.042-0.07-0.064  c-0.278-0.25-0.558-0.497-0.837-0.745c-0.308-0.275-0.616-0.552-0.927-0.823c-0.148-0.128-0.297-0.252-0.445-0.38  c-0.148-0.126-0.296-0.253-0.444-0.38c-0.151-0.129-0.305-0.257-0.458-0.387c-0.151-0.129-0.302-0.259-0.455-0.387  c-0.305-0.252-0.612-0.499-0.918-0.748c-0.305-0.248-0.611-0.495-0.918-0.741c-0.315-0.249-0.632-0.494-0.949-0.738  c-0.307-0.237-0.614-0.474-0.924-0.708c-0.321-0.244-0.647-0.482-0.97-0.722c-0.313-0.229-0.624-0.459-0.937-0.682  c-0.329-0.237-0.66-0.471-0.991-0.7c-0.317-0.224-0.632-0.444-0.952-0.663c-0.334-0.228-0.667-0.452-1.003-0.675  c-0.324-0.216-0.65-0.431-0.974-0.643c-0.337-0.218-0.675-0.438-1.015-0.652c-0.331-0.211-0.664-0.417-0.996-0.621  c-0.341-0.211-0.681-0.422-1.025-0.628c-0.339-0.202-0.679-0.403-1.019-0.602c-0.344-0.201-0.689-0.403-1.033-0.6  c-0.346-0.196-0.692-0.389-1.039-0.579c-0.348-0.193-0.694-0.386-1.043-0.575c-0.355-0.191-0.711-0.376-1.066-0.562  c-0.349-0.183-0.697-0.366-1.047-0.546c-0.363-0.184-0.732-0.364-1.097-0.544c-0.001-0.001-0.003-0.001-0.004-0.002  c-0.01-0.004-0.019-0.009-0.027-0.013c-0.337-0.167-0.671-0.337-1.013-0.5c-0.192-0.091-0.386-0.181-0.579-0.27  c-0.193-0.089-0.384-0.179-0.577-0.27c-0.337-0.157-0.673-0.317-1.012-0.47c-0.234-0.104-0.47-0.205-0.704-0.307  c-0.234-0.101-0.466-0.205-0.702-0.306c-0.357-0.155-0.713-0.31-1.073-0.461c-0.634-0.263-1.266-0.526-1.902-0.778  c-0.31-0.122-0.624-0.238-0.936-0.355c-0.44-0.169-0.879-0.341-1.32-0.504c-0.335-0.123-0.673-0.24-1.009-0.358  c-0.423-0.15-0.846-0.303-1.267-0.448c-0.176-0.06-0.351-0.115-0.527-0.173c-0.176-0.058-0.351-0.115-0.526-0.173  c-0.208-0.069-0.417-0.136-0.625-0.204c-0.207-0.069-0.416-0.137-0.624-0.205c-0.361-0.11-0.721-0.217-1.082-0.327  c-0.414-0.126-0.828-0.251-1.244-0.372c-0.366-0.104-0.736-0.204-1.104-0.307c-0.415-0.114-0.832-0.227-1.25-0.337  c-0.371-0.099-0.742-0.192-1.111-0.284c-0.421-0.105-0.843-0.208-1.265-0.308c-0.373-0.087-0.748-0.172-1.122-0.257  c-0.423-0.095-0.847-0.188-1.273-0.278c-0.379-0.079-0.755-0.157-1.132-0.231c-0.428-0.083-0.858-0.167-1.29-0.248  c-0.189-0.035-0.377-0.067-0.566-0.102c-0.189-0.033-0.377-0.069-0.566-0.101c-0.439-0.075-0.876-0.147-1.313-0.217  c-0.377-0.061-0.755-0.121-1.13-0.177c-0.444-0.066-0.893-0.126-1.34-0.187c-0.188-0.026-0.374-0.049-0.562-0.074  c-0.187-0.024-0.374-0.052-0.561-0.074c-0.457-0.057-0.914-0.108-1.373-0.157c-0.37-0.041-0.739-0.083-1.11-0.121  c-0.236-0.022-0.473-0.042-0.709-0.064c-0.236-0.02-0.472-0.042-0.708-0.063c-0.361-0.029-0.721-0.063-1.082-0.089  c-0.497-0.037-0.997-0.067-1.495-0.095c-0.339-0.021-0.678-0.045-1.018-0.063c-0.371-0.018-0.744-0.029-1.116-0.042  c-0.185-0.005-0.371-0.015-0.556-0.02c-0.289-0.009-0.573-0.023-0.859-0.03c-0.842-0.022-1.685-0.032-2.531-0.033  c-0.004,0-0.01,0-0.014,0h-0.001l0,0c-0.007,0-0.011,0-0.015,0c-0.846,0.001-1.69,0.012-2.531,0.033  c-0.286,0.007-0.572,0.022-0.859,0.03c-0.185,0.005-0.371,0.015-0.557,0.02c-0.371,0.013-0.744,0.025-1.115,0.042  c-0.34,0.018-0.679,0.042-1.018,0.063c-0.499,0.029-0.998,0.058-1.495,0.095c-0.361,0.026-0.721,0.06-1.082,0.089  c-0.236,0.021-0.472,0.043-0.708,0.063c-0.236,0.022-0.473,0.041-0.709,0.064c-0.371,0.037-0.741,0.08-1.11,0.121  c-0.459,0.049-0.915,0.1-1.373,0.157c-0.187,0.023-0.374,0.049-0.561,0.074c-0.188,0.025-0.374,0.048-0.562,0.074  c-0.447,0.06-0.894,0.121-1.34,0.187c-0.379,0.056-0.755,0.115-1.13,0.177c-0.438,0.07-0.876,0.143-1.313,0.217  c-0.189,0.032-0.377,0.067-0.566,0.101c-0.189,0.034-0.377,0.067-0.566,0.102c-0.431,0.08-0.862,0.165-1.29,0.248  c-0.379,0.075-0.755,0.153-1.132,0.231c-0.426,0.09-0.849,0.182-1.273,0.278c-0.376,0.084-0.749,0.17-1.123,0.257  c-0.422,0.1-0.845,0.204-1.265,0.308c-0.37,0.092-0.741,0.185-1.111,0.284c-0.418,0.11-0.835,0.223-1.25,0.337  c-0.368,0.104-0.737,0.204-1.104,0.307c-0.416,0.121-0.831,0.246-1.244,0.372c-0.361,0.11-0.721,0.216-1.082,0.327  c-0.21,0.068-0.417,0.136-0.624,0.205c-0.208,0.068-0.417,0.135-0.625,0.204c-0.176,0.058-0.35,0.115-0.526,0.173  c-0.176,0.058-0.351,0.114-0.527,0.173c-0.422,0.145-0.845,0.297-1.267,0.448c-0.337,0.117-0.675,0.235-1.009,0.358  c-0.441,0.162-0.88,0.335-1.32,0.504c-0.31,0.117-0.624,0.234-0.935,0.355c-0.636,0.252-1.271,0.515-1.902,0.778  c-0.359,0.15-0.715,0.306-1.073,0.461c-0.236,0.102-0.468,0.206-0.702,0.306c-0.235,0.103-0.471,0.204-0.704,0.307  c-0.339,0.153-0.675,0.313-1.012,0.47c-0.193,0.091-0.385,0.181-0.578,0.27c-0.193,0.089-0.386,0.179-0.578,0.27  c-0.341,0.163-0.676,0.334-1.013,0.5c-0.01,0.004-0.02,0.009-0.027,0.013c-0.001,0.001-0.003,0.001-0.004,0.002  c-0.365,0.18-0.734,0.36-1.097,0.544c-0.35,0.18-0.698,0.363-1.047,0.546c-0.354,0.185-0.71,0.371-1.066,0.562  c-0.349,0.19-0.697,0.383-1.043,0.575c-0.347,0.19-0.693,0.384-1.039,0.579c-0.344,0.197-0.69,0.399-1.034,0.6  c-0.339,0.2-0.68,0.4-1.019,0.602c-0.343,0.206-0.684,0.417-1.025,0.628c-0.332,0.204-0.665,0.41-0.996,0.621  c-0.34,0.213-0.678,0.432-1.015,0.652c-0.325,0.212-0.651,0.427-0.974,0.643c-0.336,0.223-0.669,0.447-1.003,0.675  c-0.32,0.217-0.635,0.438-0.952,0.663c-0.334,0.229-0.663,0.463-0.991,0.7c-0.312,0.224-0.623,0.453-0.937,0.682  c-0.323,0.24-0.648,0.479-0.97,0.722c-0.309,0.234-0.617,0.471-0.924,0.708c-0.317,0.245-0.634,0.489-0.949,0.738  c-0.307,0.246-0.613,0.493-0.918,0.741c-0.306,0.249-0.613,0.495-0.918,0.748c-0.154,0.127-0.304,0.257-0.455,0.387  c-0.153,0.129-0.306,0.257-0.458,0.387c-0.149,0.125-0.296,0.252-0.444,0.38c-0.149,0.126-0.297,0.25-0.445,0.38  c-0.31,0.271-0.618,0.547-0.927,0.823c-0.279,0.248-0.56,0.495-0.837,0.745c-0.023,0.022-0.046,0.043-0.07,0.064l-0.014,0.015  c-5.053,4.618-9.637,9.739-13.675,15.286c-1.346,1.849-2.63,3.745-3.852,5.684c-0.14,0.222-0.279,0.443-0.418,0.665  c-1.15,1.861-2.243,3.76-3.274,5.696c-0.123,0.234-0.247,0.465-0.369,0.699c-1.017,1.946-1.973,3.928-2.864,5.944  c-0.108,0.242-0.214,0.486-0.318,0.731c-0.877,2.023-1.687,4.08-2.433,6.168c-0.091,0.255-0.182,0.511-0.27,0.767  c-0.729,2.094-1.389,4.219-1.981,6.372c-0.074,0.266-0.146,0.53-0.217,0.798c-0.574,2.16-1.078,4.346-1.512,6.56  c-0.056,0.274-0.108,0.549-0.159,0.825c-0.416,2.218-0.759,4.461-1.027,6.727c-0.034,0.283-0.066,0.565-0.098,0.848  c-0.124,1.136-0.237,2.273-0.325,3.422c-0.088,1.148-0.148,2.299-0.199,3.454c-0.012,0.29-0.023,0.579-0.033,0.869  c-0.037,1.16-0.065,2.322-0.065,3.492c0,3.506,0.177,6.971,0.523,10.384c0.077,0.758,0.166,1.514,0.26,2.267  c0.115,0.942,0.242,1.882,0.385,2.815c0.643,4.203,1.543,8.321,2.684,12.336c0.338,1.187,0.703,2.362,1.082,3.532  c0.106,0.328,0.215,0.654,0.325,0.98c0.314,0.934,0.64,1.861,0.98,2.782c0.093,0.253,0.182,0.51,0.278,0.761  c0.384,1.015,0.778,2.024,1.193,3.023l0.033,0.055c4.002,9.633,9.452,18.509,16.065,26.375l0.069,0.114  c0.3,0.355,0.609,0.703,0.914,1.054c0.173,0.202,0.346,0.405,0.522,0.605c0.783,0.89,1.58,1.765,2.395,2.628  c0.148,0.159,0.3,0.312,0.45,0.469c0.709,0.743,1.431,1.472,2.162,2.192c0.19,0.188,0.379,0.376,0.571,0.563  c0.852,0.826,1.718,1.639,2.599,2.437c0.151,0.135,0.304,0.268,0.456,0.403c0.77,0.688,1.552,1.365,2.345,2.03  c0.21,0.176,0.417,0.352,0.626,0.527c0.917,0.757,1.846,1.502,2.789,2.227c0.15,0.115,0.302,0.226,0.452,0.34  c0.832,0.632,1.672,1.251,2.523,1.856c0.226,0.16,0.452,0.324,0.68,0.483c0.978,0.685,1.965,1.355,2.967,2.007  c0.145,0.093,0.292,0.183,0.437,0.277c0.889,0.57,1.789,1.126,2.697,1.67c0.245,0.147,0.488,0.294,0.734,0.438  c1.031,0.606,2.073,1.198,3.127,1.767c0.14,0.076,0.284,0.148,0.426,0.224c0.942,0.505,1.897,0.992,2.857,1.467  c0.261,0.128,0.521,0.259,0.783,0.386c1.083,0.523,2.175,1.032,3.276,1.52c0.133,0.058,0.268,0.113,0.4,0.17  c0.995,0.434,2.001,0.849,3.014,1.252c0.276,0.11,0.554,0.221,0.833,0.329c1.129,0.437,2.267,0.859,3.414,1.257  c0.117,0.041,0.236,0.077,0.353,0.117c1.052,0.36,2.114,0.7,3.181,1.026c0.291,0.09,0.58,0.178,0.872,0.263  c1.173,0.347,2.353,0.679,3.543,0.984c0.098,0.024,0.196,0.046,0.295,0.071c1.109,0.28,2.225,0.538,3.348,0.782  c0.302,0.066,0.605,0.131,0.908,0.193c1.212,0.252,2.431,0.488,3.659,0.698c0.07,0.012,0.142,0.021,0.211,0.033  c1.167,0.195,2.345,0.364,3.525,0.52c0.313,0.041,0.625,0.08,0.938,0.118c1.25,0.153,2.503,0.29,3.766,0.396  c0.036,0.002,0.074,0.004,0.111,0.008c1.229,0.102,2.465,0.174,3.706,0.233c0.321,0.015,0.644,0.03,0.965,0.041  c1.28,0.048,2.565,0.081,3.856,0.081h0.001h0.001c1.291,0,2.575-0.033,3.856-0.081c0.321-0.011,0.644-0.025,0.965-0.041  c1.241-0.058,2.477-0.131,3.706-0.233c0.036-0.003,0.073-0.005,0.11-0.008c1.263-0.107,2.517-0.245,3.767-0.396  c0.313-0.038,0.625-0.078,0.938-0.118c1.181-0.156,2.357-0.325,3.525-0.52c0.069-0.013,0.14-0.022,0.211-0.033  c1.228-0.208,2.446-0.444,3.659-0.698c0.304-0.063,0.607-0.127,0.908-0.193c1.122-0.245,2.239-0.503,3.348-0.782  c0.098-0.025,0.197-0.047,0.295-0.071c1.19-0.305,2.37-0.637,3.544-0.984c0.292-0.086,0.581-0.173,0.872-0.263  c1.068-0.326,2.128-0.666,3.181-1.026c0.117-0.04,0.236-0.076,0.353-0.117c1.149-0.398,2.285-0.821,3.414-1.257  c0.279-0.109,0.556-0.218,0.833-0.329c1.013-0.402,2.019-0.817,3.014-1.252c0.133-0.058,0.268-0.112,0.4-0.17  c1.103-0.486,2.193-0.996,3.276-1.52c0.261-0.126,0.522-0.257,0.783-0.386c0.96-0.475,1.913-0.962,2.856-1.467  c0.142-0.076,0.285-0.148,0.426-0.224c1.055-0.57,2.096-1.163,3.128-1.767c0.246-0.145,0.489-0.292,0.734-0.438  c0.907-0.544,1.808-1.1,2.697-1.67c0.145-0.093,0.292-0.183,0.436-0.277c1.002-0.652,1.99-1.322,2.967-2.007  c0.228-0.16,0.454-0.323,0.68-0.483c0.85-0.607,1.692-1.224,2.523-1.856c0.15-0.113,0.302-0.225,0.452-0.34  c0.942-0.725,1.872-1.47,2.789-2.227c0.21-0.173,0.418-0.35,0.626-0.527c0.792-0.664,1.574-1.342,2.345-2.03  c0.152-0.135,0.305-0.268,0.456-0.403c0.881-0.798,1.747-1.611,2.599-2.437c0.192-0.187,0.381-0.375,0.57-0.563  c0.732-0.72,1.453-1.449,2.162-2.192c0.15-0.157,0.302-0.309,0.45-0.469c0.814-0.861,1.612-1.738,2.395-2.628  c0.176-0.2,0.348-0.403,0.522-0.605c0.305-0.351,0.614-0.699,0.914-1.054l0.069-0.114c6.614-7.867,12.063-16.742,16.065-26.375  l0.033-0.055c0.415-0.998,0.809-2.008,1.193-3.023c0.095-0.251,0.184-0.508,0.278-0.761c0.339-0.922,0.665-1.85,0.979-2.782  c0.11-0.327,0.218-0.653,0.325-0.98c0.38-1.168,0.745-2.345,1.082-3.532c1.141-4.016,2.041-8.133,2.684-12.336  c0.143-0.935,0.269-1.873,0.384-2.815c0.094-0.753,0.183-1.509,0.26-2.267C396.528,262.971,396.705,259.508,396.705,256z"/>
<g>
	<path style="fill:#EDE21B;" d="M295.138,98.451c-4.847,0-8.777-3.93-8.777-8.777V47.917c0-4.847,3.93-8.777,8.777-8.777   s8.777,3.93,8.777,8.777v41.756C303.915,94.522,299.985,98.451,295.138,98.451z"/>
	<path style="fill:#EDE21B;" d="M295.138,472.86c-4.847,0-8.777-3.93-8.777-8.777v-41.757c0-4.847,3.93-8.777,8.777-8.777   s8.777,3.93,8.777,8.777v41.757C303.915,468.93,299.985,472.86,295.138,472.86z"/>
	<path style="fill:#EDE21B;" d="M211.984,120.736c-3.035,0-5.984-1.574-7.611-4.39l-20.876-36.164   c-2.425-4.198-0.985-9.566,3.212-11.99c4.199-2.426,9.566-0.985,11.99,3.212l20.879,36.164c2.425,4.198,0.985,9.566-3.212,11.99   C214.983,120.357,213.473,120.736,211.984,120.736z"/>
	<path style="fill:#EDE21B;" d="M399.186,444.985c-3.034,0-5.983-1.574-7.609-4.39l-20.88-36.166   c-2.424-4.198-0.985-9.566,3.212-11.991c4.198-2.419,9.566-0.984,11.99,3.214l20.88,36.166c2.424,4.198,0.985,9.566-3.212,11.991   C402.186,444.606,400.677,444.985,399.186,444.985z"/>
	<path style="fill:#EDE21B;" d="M151.086,181.614c-1.489,0-2.997-0.38-4.38-1.177l-36.162-20.878   c-4.198-2.424-5.637-7.792-3.214-11.99c2.424-4.198,7.792-5.638,11.991-3.212l36.162,20.878c4.198,2.424,5.636,7.792,3.212,11.99   C157.07,180.04,154.12,181.614,151.086,181.614z"/>
	<path style="fill:#EDE21B;" d="M475.337,368.82c-1.489,0-2.997-0.38-4.38-1.176l-36.165-20.878   c-4.198-2.424-5.636-7.792-3.212-11.991c2.424-4.199,7.792-5.634,11.99-3.214l36.165,20.878c4.198,2.424,5.636,7.792,3.212,11.991   C481.322,367.247,478.37,368.82,475.337,368.82z"/>
	<path style="fill:#EDE21B;" d="M128.812,264.777H87.054c-4.847,0-8.777-3.93-8.777-8.777c0-4.847,3.93-8.777,8.777-8.777h41.758   c4.847,0,8.777,3.93,8.777,8.777C137.589,260.847,133.659,264.777,128.812,264.777z"/>
	<path style="fill:#EDE21B;" d="M503.223,264.777h-41.758c-4.848,0-8.777-3.93-8.777-8.777c0-4.847,3.929-8.777,8.777-8.777h41.758   c4.848,0,8.777,3.93,8.777,8.777C512,260.847,508.071,264.777,503.223,264.777z"/>
	<path style="fill:#EDE21B;" d="M114.941,368.82c-3.035,0-5.984-1.574-7.611-4.39c-2.424-4.198-0.984-9.566,3.214-11.99   l36.162-20.878c4.199-2.424,9.566-0.985,11.99,3.212c2.424,4.198,0.985,9.566-3.212,11.99l-36.162,20.878   C117.939,368.442,116.43,368.82,114.941,368.82z"/>
	<path style="fill:#EDE21B;" d="M439.188,181.614c-3.035,0-5.985-1.573-7.61-4.39c-2.424-4.199-0.985-9.567,3.212-11.991   l36.165-20.878c4.198-2.42,9.567-0.985,11.99,3.214c2.424,4.199,0.985,9.567-3.212,11.991l-36.165,20.878   C442.187,181.235,440.678,181.614,439.188,181.614z"/>
	<path style="fill:#EDE21B;" d="M191.087,444.985c-1.489,0-2.997-0.38-4.38-1.176c-4.198-2.424-5.637-7.792-3.212-11.991   l20.878-36.166c2.424-4.198,7.791-5.635,11.991-3.214c4.198,2.424,5.637,7.793,3.214,11.991l-20.88,36.166   C197.072,443.412,194.121,444.985,191.087,444.985z"/>
	<path style="fill:#EDE21B;" d="M378.291,120.736c-1.489,0-2.997-0.38-4.38-1.177c-4.198-2.424-5.636-7.792-3.212-11.99   l20.88-36.164c2.424-4.198,7.793-5.636,11.99-3.212c4.198,2.424,5.636,7.792,3.212,11.99l-20.88,36.164   C384.275,119.162,381.325,120.736,378.291,120.736z"/>
</g>
<path style="fill:#F29F26;" d="M396.606,251.64c-0.05-1.156-0.11-2.307-0.199-3.454c-0.088-1.149-0.201-2.286-0.325-3.422  c-0.032-0.284-0.064-0.566-0.098-0.848c-0.268-2.264-0.612-4.507-1.027-6.727c-0.05-0.276-0.103-0.551-0.159-0.825  c-0.433-2.214-0.938-4.4-1.512-6.56c-0.071-0.267-0.144-0.531-0.217-0.798c-0.592-2.154-1.253-4.277-1.981-6.372  c-0.088-0.256-0.179-0.512-0.27-0.767c-0.746-2.088-1.557-4.145-2.433-6.168c-0.104-0.245-0.211-0.488-0.318-0.731  c-0.892-2.017-1.848-3.999-2.864-5.944c-0.121-0.234-0.246-0.465-0.369-0.699c-1.031-1.938-2.124-3.836-3.274-5.696  c-0.139-0.222-0.278-0.443-0.418-0.665c-1.221-1.94-2.506-3.836-3.852-5.684c-4.037-5.547-8.62-10.669-13.675-15.286l-0.014-0.015  c-0.024-0.02-0.046-0.042-0.07-0.064c-0.278-0.25-0.558-0.497-0.837-0.745c-0.308-0.275-0.616-0.552-0.927-0.823  c-0.148-0.128-0.297-0.252-0.445-0.38c-0.148-0.126-0.296-0.253-0.444-0.38c-0.151-0.129-0.305-0.257-0.458-0.387  c-0.151-0.129-0.302-0.259-0.455-0.387c-0.305-0.252-0.612-0.499-0.918-0.748c-0.305-0.248-0.611-0.495-0.918-0.741  c-0.315-0.249-0.632-0.494-0.949-0.738c-0.307-0.237-0.614-0.474-0.924-0.708c-0.321-0.244-0.647-0.482-0.97-0.722  c-0.313-0.229-0.624-0.459-0.937-0.682c-0.329-0.237-0.66-0.471-0.991-0.7c-0.317-0.224-0.632-0.444-0.952-0.663  c-0.334-0.228-0.667-0.452-1.003-0.675c-0.324-0.216-0.65-0.431-0.974-0.643c-0.337-0.218-0.675-0.438-1.015-0.652  c-0.331-0.211-0.664-0.417-0.996-0.621c-0.341-0.211-0.681-0.422-1.025-0.628c-0.339-0.202-0.679-0.403-1.019-0.602  c-0.344-0.201-0.689-0.403-1.033-0.6c-0.346-0.196-0.692-0.389-1.039-0.579c-0.348-0.193-0.694-0.386-1.043-0.575  c-0.355-0.191-0.711-0.376-1.066-0.562c-0.349-0.183-0.697-0.366-1.047-0.546c-0.363-0.184-0.732-0.364-1.097-0.544  c-0.001-0.001-0.003-0.001-0.004-0.002c-0.01-0.004-0.019-0.009-0.027-0.013c-0.337-0.167-0.671-0.337-1.013-0.5  c-0.192-0.091-0.386-0.181-0.579-0.27c-0.193-0.089-0.384-0.179-0.577-0.27c-0.337-0.157-0.673-0.317-1.012-0.47  c-0.234-0.104-0.47-0.205-0.704-0.307c-0.234-0.101-0.466-0.205-0.702-0.306c-0.357-0.155-0.713-0.311-1.073-0.461  c-0.634-0.263-1.266-0.526-1.902-0.778c-0.31-0.122-0.624-0.238-0.936-0.355c-0.44-0.169-0.879-0.341-1.32-0.504  c-0.335-0.123-0.673-0.24-1.009-0.358c-0.423-0.15-0.846-0.303-1.267-0.448c-0.176-0.06-0.351-0.115-0.527-0.173  s-0.351-0.115-0.526-0.173c-0.208-0.069-0.417-0.136-0.625-0.204c-0.207-0.069-0.416-0.137-0.624-0.205  c-0.361-0.11-0.721-0.217-1.082-0.327c-0.414-0.126-0.828-0.251-1.244-0.372c-0.366-0.104-0.736-0.204-1.104-0.307  c-0.415-0.114-0.832-0.227-1.25-0.337c-0.371-0.099-0.742-0.192-1.111-0.284c-0.421-0.105-0.843-0.208-1.265-0.308  c-0.373-0.087-0.748-0.172-1.122-0.257c-0.423-0.095-0.847-0.188-1.273-0.278c-0.379-0.079-0.755-0.157-1.132-0.231  c-0.428-0.083-0.858-0.167-1.29-0.248c-0.189-0.035-0.377-0.067-0.566-0.102c-0.189-0.033-0.377-0.069-0.566-0.101  c-0.439-0.075-0.876-0.147-1.313-0.217c-0.377-0.061-0.755-0.121-1.13-0.177c-0.444-0.066-0.893-0.126-1.34-0.187  c-0.188-0.026-0.374-0.049-0.562-0.074c-0.187-0.024-0.374-0.052-0.561-0.074c-0.457-0.057-0.914-0.108-1.373-0.157  c-0.37-0.041-0.739-0.083-1.11-0.121c-0.236-0.022-0.473-0.042-0.709-0.064c-0.236-0.02-0.472-0.042-0.708-0.063  c-0.361-0.029-0.721-0.063-1.082-0.089c-0.497-0.037-0.997-0.067-1.495-0.095c-0.339-0.021-0.678-0.045-1.018-0.063  c-0.371-0.018-0.744-0.029-1.116-0.042c-0.185-0.005-0.371-0.015-0.556-0.02c-0.289-0.009-0.573-0.023-0.859-0.03  c-0.842-0.022-1.685-0.032-2.531-0.033c-0.004,0-0.01,0-0.014,0h-0.001l0,0c-0.007,0-0.011,0-0.015,0  c-0.846,0.001-1.69,0.012-2.531,0.033c-0.286,0.007-0.572,0.022-0.859,0.03c-0.185,0.005-0.371,0.015-0.557,0.02  c-0.371,0.013-0.744,0.025-1.115,0.042c-0.34,0.018-0.679,0.042-1.018,0.063c-0.499,0.029-0.998,0.058-1.495,0.095  c-0.361,0.026-0.721,0.06-1.082,0.089c-0.236,0.021-0.472,0.043-0.708,0.063c-0.236,0.022-0.473,0.041-0.709,0.064  c-0.371,0.037-0.741,0.08-1.11,0.121c-0.459,0.049-0.915,0.1-1.373,0.157c-0.187,0.023-0.374,0.049-0.561,0.074  c-0.188,0.025-0.374,0.048-0.562,0.074c-0.447,0.06-0.894,0.121-1.34,0.187c-0.379,0.056-0.755,0.115-1.13,0.177  c-0.438,0.07-0.876,0.143-1.313,0.217c-0.189,0.032-0.377,0.067-0.566,0.101c-0.189,0.034-0.377,0.067-0.566,0.102  c-0.431,0.08-0.862,0.165-1.29,0.248c-0.379,0.075-0.755,0.153-1.132,0.231c-0.426,0.09-0.849,0.182-1.273,0.278  c-0.376,0.084-0.749,0.17-1.123,0.257c-0.422,0.1-0.845,0.204-1.265,0.308c-0.37,0.092-0.741,0.185-1.111,0.284  c-0.418,0.11-0.835,0.223-1.25,0.337c-0.368,0.104-0.737,0.204-1.104,0.307c-0.416,0.121-0.831,0.246-1.244,0.372  c-0.361,0.11-0.721,0.216-1.082,0.327c-0.21,0.068-0.417,0.136-0.624,0.205c-0.208,0.068-0.417,0.135-0.625,0.204  c-0.176,0.058-0.35,0.115-0.526,0.173c-0.176,0.058-0.351,0.114-0.527,0.173c-0.422,0.145-0.845,0.297-1.267,0.448  c-0.337,0.117-0.675,0.235-1.009,0.358c-0.441,0.162-0.88,0.335-1.32,0.504c-0.31,0.117-0.624,0.234-0.935,0.355  c-0.326,0.129-0.651,0.266-0.975,0.398c-14.947,21.518-23.716,47.652-23.716,75.837c0,52.164,30.012,97.309,73.708,119.134  c0.234-0.026,0.471-0.046,0.704-0.073c0.313-0.038,0.625-0.078,0.938-0.118c1.181-0.156,2.357-0.325,3.525-0.52  c0.069-0.013,0.14-0.022,0.211-0.033c1.228-0.208,2.446-0.444,3.659-0.698c0.304-0.063,0.607-0.127,0.908-0.193  c1.122-0.245,2.239-0.503,3.348-0.782c0.098-0.025,0.197-0.047,0.295-0.071c1.19-0.305,2.37-0.637,3.544-0.984  c0.292-0.086,0.581-0.173,0.872-0.263c1.068-0.326,2.128-0.666,3.181-1.026c0.117-0.039,0.236-0.076,0.353-0.117  c1.149-0.398,2.285-0.821,3.414-1.257c0.279-0.109,0.556-0.218,0.833-0.329c1.013-0.402,2.019-0.817,3.014-1.252  c0.133-0.058,0.268-0.112,0.4-0.17c1.103-0.486,2.193-0.996,3.276-1.52c0.261-0.126,0.522-0.257,0.783-0.386  c0.96-0.475,1.913-0.962,2.856-1.467c0.142-0.076,0.285-0.148,0.426-0.224c1.055-0.57,2.096-1.163,3.128-1.767  c0.246-0.145,0.489-0.292,0.734-0.438c0.907-0.544,1.808-1.1,2.697-1.67c0.145-0.093,0.292-0.183,0.436-0.276  c1.002-0.652,1.99-1.322,2.967-2.007c0.228-0.16,0.454-0.323,0.68-0.483c0.85-0.607,1.692-1.224,2.523-1.856  c0.15-0.113,0.302-0.225,0.452-0.34c0.942-0.725,1.872-1.47,2.789-2.227c0.21-0.173,0.418-0.35,0.626-0.527  c0.792-0.664,1.574-1.342,2.345-2.03c0.152-0.135,0.305-0.268,0.456-0.403c0.881-0.798,1.747-1.611,2.599-2.437  c0.192-0.187,0.381-0.375,0.57-0.563c0.732-0.72,1.453-1.449,2.162-2.192c0.15-0.157,0.302-0.309,0.45-0.468  c0.814-0.861,1.612-1.738,2.395-2.628c0.176-0.2,0.348-0.403,0.522-0.605c0.305-0.351,0.614-0.699,0.914-1.054l0.069-0.114  c6.614-7.867,12.063-16.742,16.065-26.375l0.033-0.055c0.415-0.998,0.809-2.008,1.193-3.023c0.095-0.251,0.184-0.508,0.278-0.761  c0.339-0.922,0.665-1.85,0.979-2.782c0.11-0.327,0.218-0.653,0.325-0.98c0.38-1.168,0.745-2.345,1.082-3.532  c1.141-4.016,2.041-8.133,2.684-12.336c0.143-0.935,0.269-1.873,0.384-2.815c0.094-0.753,0.183-1.509,0.26-2.267  c0.347-3.413,0.524-6.878,0.524-10.384c0-1.17-0.027-2.333-0.066-3.492C396.628,252.219,396.618,251.928,396.606,251.64z"/>
<g>
</g>
<g>
</g>
<g>
</g>
<g>
</g>
<g>
</g>
<g>
</g>
<g>
</g>
<g>
</g>
<g>
</g>
<g>
</g>
<g>
</g>
<g>
</g>
<g>
</g>
<g>
</g>
<g>
</g>
</svg>
