<?xml version="1.0" encoding="iso-8859-1"?>
<!-- Generator: Adobe Illustrator 19.0.0, SVG Export Plug-In . SVG Version: 6.00 Build 0)  -->
<svg xmlns="http://www.w3.org/2000/svg" xmlns:xlink="http://www.w3.org/1999/xlink" version="1.1" id="Layer_1" x="0px" y="0px" viewBox="0 0 512 512" style="enable-background:new 0 0 512 512;" xml:space="preserve">
<path style="fill:#EAC71C;" d="M312.205,349.648c0.496-0.509,0.99-1.02,1.479-1.534c0.309-0.328,0.616-0.659,0.922-0.991  c0.461-0.496,0.919-0.994,1.372-1.499c0.314-0.348,0.624-0.7,0.934-1.052c0.438-0.497,0.872-0.997,1.302-1.5  c0.31-0.361,0.616-0.725,0.923-1.092c0.421-0.502,0.839-1.013,1.255-1.524c0.3-0.37,0.602-0.74,0.898-1.114  c0.412-0.522,0.822-1.047,1.225-1.571c0.287-0.371,0.572-0.741,0.854-1.114c0.412-0.548,0.818-1.104,1.223-1.657  c0.261-0.36,0.527-0.717,0.787-1.078c0.433-0.604,0.854-1.214,1.276-1.826c0.222-0.321,0.447-0.637,0.664-0.959  c0.548-0.806,1.084-1.621,1.614-2.44c0.085-0.131,0.173-0.26,0.258-0.392c0.61-0.954,1.21-1.916,1.797-2.884  c0.178-0.296,0.351-0.598,0.53-0.897c0.404-0.675,0.804-1.349,1.195-2.033c0.219-0.383,0.43-0.768,0.644-1.153  c0.339-0.607,0.678-1.214,1.009-1.827c0.225-0.418,0.445-0.842,0.666-1.264c0.307-0.586,0.616-1.173,0.915-1.764  c0.221-0.438,0.438-0.879,0.655-1.319c0.287-0.584,0.573-1.17,0.851-1.758c0.213-0.451,0.426-0.903,0.633-1.355  c0.27-0.586,0.536-1.177,0.799-1.77c0.202-0.458,0.403-0.916,0.601-1.374c0.258-0.6,0.51-1.206,0.761-1.81  c0.187-0.456,0.375-0.911,0.559-1.369c0.249-0.624,0.489-1.25,0.73-1.878c0.17-0.446,0.344-0.892,0.51-1.339  c0.247-0.667,0.482-1.339,0.718-2.012c0.147-0.412,0.296-0.825,0.438-1.24c0.266-0.783,0.521-1.571,0.772-2.361  c0.1-0.31,0.207-0.618,0.302-0.931c0.344-1.101,0.672-2.206,0.988-3.318c0.07-0.254,0.137-0.511,0.207-0.766  c0.238-0.863,0.474-1.726,0.696-2.595c0.106-0.415,0.203-0.833,0.305-1.247c0.174-0.713,0.349-1.432,0.514-2.15  c0.106-0.468,0.203-0.935,0.303-1.401c0.148-0.677,0.294-1.352,0.429-2.034c0.098-0.488,0.19-0.981,0.283-1.473  c0.125-0.664,0.248-1.33,0.363-1.997c0.086-0.503,0.168-1.006,0.252-1.51c0.106-0.664,0.208-1.334,0.306-1.999  c0.072-0.508,0.143-1.015,0.212-1.526c0.09-0.672,0.173-1.347,0.254-2.024c0.059-0.507,0.117-1.012,0.173-1.521  c0.073-0.69,0.139-1.383,0.202-2.075c0.047-0.498,0.092-0.993,0.133-1.493c0.058-0.721,0.105-1.447,0.151-2.175  c0.03-0.472,0.065-0.943,0.09-1.415c0.043-0.803,0.071-1.61,0.101-2.416c0.014-0.399,0.034-0.798,0.045-1.199  c0.033-1.208,0.051-2.419,0.051-3.634c0-12.729-1.773-25.043-5.087-36.709c-8.133-28.636-25.543-53.371-48.775-70.745  c-22.373-16.731-50.144-26.639-80.23-26.639h-0.001l0,0c-30.087,0-57.857,9.909-80.23,26.639  c-23.233,17.374-40.643,42.109-48.776,70.745c-3.314,11.665-5.087,23.98-5.087,36.709c0,1.215,0.019,2.428,0.051,3.634  c0.01,0.4,0.031,0.799,0.045,1.199c0.028,0.805,0.058,1.613,0.101,2.416c0.025,0.472,0.059,0.943,0.09,1.415  c0.047,0.728,0.094,1.454,0.152,2.175c0.04,0.5,0.088,0.996,0.132,1.493c0.062,0.694,0.128,1.386,0.202,2.075  c0.055,0.509,0.114,1.014,0.173,1.521c0.08,0.676,0.163,1.351,0.253,2.024c0.069,0.511,0.141,1.019,0.214,1.526  c0.097,0.665,0.2,1.335,0.306,1.999c0.081,0.503,0.162,1.007,0.251,1.51c0.115,0.666,0.237,1.333,0.363,1.997  c0.093,0.491,0.186,0.984,0.283,1.473c0.133,0.682,0.279,1.357,0.427,2.034c0.102,0.467,0.199,0.934,0.305,1.401  c0.163,0.718,0.34,1.436,0.516,2.15c0.102,0.415,0.198,0.833,0.302,1.247c0.222,0.869,0.457,1.732,0.697,2.595  c0.071,0.255,0.136,0.513,0.209,0.766c0.315,1.114,0.644,2.218,0.987,3.318c0.097,0.312,0.203,0.62,0.302,0.931  c0.252,0.791,0.505,1.578,0.773,2.361c0.141,0.415,0.292,0.827,0.437,1.24c0.237,0.673,0.473,1.343,0.719,2.012  c0.164,0.446,0.338,0.892,0.509,1.339c0.241,0.628,0.48,1.254,0.73,1.878c0.184,0.457,0.371,0.912,0.561,1.369  c0.249,0.605,0.5,1.21,0.759,1.81c0.197,0.458,0.398,0.916,0.601,1.374c0.264,0.593,0.528,1.184,0.799,1.77  c0.208,0.453,0.42,0.905,0.633,1.355c0.28,0.589,0.565,1.174,0.85,1.758c0.219,0.441,0.435,0.882,0.658,1.319  c0.3,0.591,0.605,1.177,0.912,1.764c0.222,0.422,0.442,0.846,0.667,1.264c0.33,0.613,0.668,1.22,1.008,1.827  c0.214,0.385,0.426,0.77,0.645,1.153c0.389,0.684,0.791,1.358,1.194,2.033c0.177,0.299,0.35,0.601,0.531,0.897  c0.587,0.968,1.185,1.93,1.797,2.884c0.085,0.131,0.173,0.26,0.258,0.392c0.527,0.818,1.064,1.633,1.61,2.44  c0.22,0.323,0.444,0.639,0.665,0.959c0.423,0.612,0.846,1.222,1.277,1.826c0.258,0.361,0.524,0.718,0.788,1.078  c0.403,0.554,0.808,1.109,1.224,1.657c0.28,0.373,0.567,0.743,0.852,1.114c0.406,0.524,0.812,1.05,1.226,1.571  c0.298,0.374,0.596,0.744,0.898,1.114c0.415,0.511,0.833,1.022,1.254,1.524c0.305,0.366,0.614,0.731,0.922,1.092  c0.431,0.503,0.864,1.003,1.304,1.5c0.309,0.352,0.618,0.705,0.934,1.052c0.452,0.504,0.911,1.003,1.372,1.499  c0.305,0.334,0.612,0.663,0.923,0.991c0.486,0.515,0.98,1.026,1.479,1.534c0.292,0.299,0.58,0.601,0.875,0.897  c0.559,0.562,1.127,1.116,1.695,1.668c0.241,0.231,0.476,0.467,0.717,0.697c0.811,0.778,1.632,1.545,2.464,2.301  c0.002,0.002,0.004,0.004,0.007,0.007c0.848,0.771,1.709,1.533,2.576,2.282c0.022,0.02,0.04,0.038,0.062,0.058l0.023,0.013  c5.997,5.176,12.465,9.823,19.32,13.882l0.088,0.065c0.17,0.101,0.344,0.193,0.515,0.293c0.898,0.526,1.807,1.043,2.721,1.55  c0.242,0.133,0.48,0.271,0.722,0.404c1.145,0.626,2.3,1.233,3.463,1.824c0.271,0.14,0.548,0.272,0.822,0.408  c0.916,0.46,1.839,0.908,2.769,1.348c0.357,0.168,0.713,0.336,1.071,0.501c0.985,0.453,1.976,0.894,2.971,1.323  c0.223,0.096,0.442,0.197,0.666,0.293c1.208,0.515,2.427,1.009,3.652,1.486c0.307,0.118,0.616,0.234,0.924,0.351  c0.951,0.363,1.907,0.715,2.867,1.058c0.373,0.135,0.746,0.266,1.119,0.395c1.068,0.37,2.14,0.726,3.217,1.068  c0.195,0.063,0.388,0.129,0.585,0.191c1.266,0.395,2.539,0.768,3.82,1.128c0.339,0.093,0.68,0.184,1.021,0.276  c0.979,0.265,1.962,0.522,2.949,0.765c0.386,0.096,0.777,0.191,1.166,0.286c1.155,0.273,2.315,0.535,3.483,0.779  c0.155,0.033,0.309,0.07,0.465,0.103c1.314,0.268,2.639,0.515,3.967,0.747c0.368,0.066,0.736,0.123,1.105,0.184  c1.007,0.166,2.016,0.322,3.03,0.467c0.398,0.057,0.798,0.114,1.198,0.166c1.262,0.168,2.529,0.323,3.804,0.454  c0.09,0.01,0.176,0.022,0.267,0.031c1.36,0.139,2.727,0.251,4.099,0.349c0.392,0.027,0.786,0.049,1.178,0.074  c1.029,0.066,2.063,0.118,3.1,0.159c0.406,0.015,0.811,0.035,1.217,0.046c1.388,0.043,2.779,0.072,4.178,0.072l0,0h0.001  c1.397,0,2.791-0.03,4.178-0.072c0.405-0.011,0.811-0.031,1.214-0.046c1.038-0.039,2.071-0.093,3.102-0.159  c0.394-0.025,0.789-0.047,1.179-0.074c1.371-0.098,2.737-0.21,4.097-0.349c0.092-0.01,0.179-0.022,0.269-0.031  c1.273-0.131,2.539-0.286,3.802-0.454c0.402-0.054,0.8-0.111,1.199-0.166c1.015-0.146,2.025-0.3,3.03-0.467  c0.369-0.061,0.737-0.118,1.105-0.184c1.328-0.232,2.652-0.479,3.967-0.747c0.155-0.033,0.31-0.07,0.466-0.103  c1.165-0.244,2.328-0.505,3.483-0.779c0.388-0.094,0.778-0.189,1.167-0.286c0.986-0.244,1.97-0.5,2.947-0.765  c0.34-0.092,0.68-0.183,1.021-0.276c1.281-0.36,2.556-0.733,3.821-1.128c0.196-0.062,0.388-0.128,0.585-0.191  c1.078-0.341,2.15-0.698,3.217-1.068c0.375-0.129,0.747-0.26,1.119-0.395c0.962-0.342,1.917-0.695,2.867-1.058  c0.309-0.117,0.617-0.233,0.924-0.351c1.225-0.478,2.444-0.971,3.652-1.486c0.225-0.096,0.445-0.197,0.67-0.294  c0.996-0.428,1.985-0.869,2.967-1.322c0.358-0.165,0.716-0.333,1.071-0.501c0.93-0.439,1.852-0.888,2.769-1.348  c0.273-0.136,0.549-0.268,0.823-0.408c1.163-0.591,2.317-1.198,3.46-1.824c0.243-0.132,0.481-0.27,0.724-0.404  c0.912-0.508,1.822-1.024,2.722-1.55c0.168-0.101,0.344-0.193,0.513-0.293l0.089-0.065c6.855-4.059,13.321-8.706,19.32-13.882  l0.022-0.013c0.02-0.02,0.04-0.038,0.065-0.058c0.868-0.749,1.726-1.511,2.574-2.282c0.003-0.002,0.005-0.004,0.007-0.007  c0.833-0.756,1.652-1.524,2.464-2.301c0.243-0.23,0.477-0.466,0.715-0.697c0.569-0.554,1.138-1.107,1.696-1.668  C311.625,350.248,311.912,349.947,312.205,349.648z"/>
<path style="fill:#EDE21B;" d="M296.474,148.547c-20.894-15.624-46.497-25.293-74.294-26.504  c-40.441,22.74-67.766,66.053-67.766,115.755c0,72.917,58.808,132.092,131.581,132.704c6.283-3.836,12.244-8.145,17.792-12.931  l0.022-0.013c0.02-0.02,0.04-0.038,0.065-0.058c0.868-0.749,1.726-1.511,2.574-2.282c0.003-0.002,0.005-0.004,0.007-0.007  c0.833-0.756,1.652-1.524,2.464-2.301c0.243-0.23,0.477-0.466,0.715-0.697c0.569-0.554,1.138-1.107,1.696-1.668  c0.296-0.296,0.583-0.598,0.876-0.897c0.496-0.509,0.99-1.02,1.479-1.534c0.309-0.328,0.616-0.659,0.922-0.991  c0.461-0.496,0.919-0.994,1.372-1.499c0.314-0.348,0.624-0.7,0.934-1.052c0.438-0.497,0.872-0.997,1.302-1.5  c0.31-0.361,0.616-0.725,0.923-1.092c0.421-0.502,0.839-1.013,1.255-1.524c0.3-0.37,0.602-0.74,0.898-1.114  c0.412-0.522,0.822-1.047,1.225-1.571c0.287-0.371,0.572-0.741,0.854-1.114c0.412-0.548,0.818-1.104,1.223-1.657  c0.261-0.36,0.527-0.717,0.787-1.078c0.433-0.604,0.854-1.214,1.276-1.826c0.222-0.321,0.447-0.637,0.664-0.959  c0.548-0.806,1.084-1.621,1.614-2.44c0.085-0.131,0.173-0.26,0.258-0.392c0.61-0.954,1.21-1.916,1.797-2.884  c0.178-0.296,0.351-0.598,0.53-0.897c0.404-0.675,0.804-1.349,1.195-2.033c0.219-0.383,0.43-0.768,0.644-1.153  c0.339-0.607,0.678-1.214,1.009-1.827c0.225-0.418,0.445-0.842,0.666-1.264c0.307-0.586,0.616-1.173,0.915-1.764  c0.221-0.438,0.438-0.879,0.655-1.319c0.287-0.584,0.573-1.169,0.851-1.758c0.213-0.451,0.426-0.903,0.633-1.355  c0.27-0.586,0.536-1.177,0.799-1.77c0.202-0.458,0.403-0.916,0.601-1.374c0.258-0.6,0.51-1.206,0.761-1.809  c0.187-0.456,0.375-0.911,0.559-1.369c0.249-0.624,0.489-1.25,0.73-1.878c0.17-0.446,0.344-0.892,0.51-1.339  c0.247-0.667,0.482-1.339,0.718-2.012c0.147-0.412,0.296-0.825,0.438-1.24c0.266-0.783,0.521-1.571,0.772-2.361  c0.1-0.31,0.207-0.618,0.302-0.931c0.344-1.101,0.672-2.206,0.988-3.318c0.07-0.254,0.137-0.511,0.207-0.766  c0.238-0.863,0.474-1.726,0.696-2.595c0.106-0.415,0.203-0.833,0.305-1.247c0.174-0.713,0.349-1.432,0.514-2.15  c0.106-0.468,0.203-0.935,0.303-1.401c0.148-0.677,0.294-1.352,0.429-2.034c0.098-0.488,0.19-0.981,0.283-1.473  c0.125-0.664,0.248-1.33,0.363-1.997c0.086-0.503,0.168-1.006,0.252-1.51c0.106-0.664,0.208-1.334,0.306-1.999  c0.072-0.508,0.143-1.015,0.212-1.526c0.09-0.672,0.173-1.347,0.254-2.024c0.059-0.507,0.117-1.012,0.173-1.521  c0.073-0.69,0.139-1.383,0.202-2.075c0.047-0.498,0.092-0.993,0.133-1.493c0.058-0.721,0.105-1.447,0.151-2.175  c0.03-0.472,0.065-0.943,0.09-1.415c0.043-0.803,0.071-1.61,0.101-2.416c0.014-0.399,0.034-0.798,0.045-1.199  c0.033-1.208,0.051-2.419,0.051-3.634c0-12.729-1.773-25.043-5.087-36.709C337.116,190.656,319.706,165.921,296.474,148.547z"/>
<path style="fill:#EF8229;" d="M317.52,256.001c0-1.166-0.027-2.326-0.066-3.482c-0.011-0.289-0.022-0.578-0.033-0.866  c-0.05-1.153-0.111-2.301-0.198-3.444c-0.088-1.145-0.2-2.28-0.324-3.412c-0.032-0.283-0.063-0.565-0.097-0.846  c-0.267-2.258-0.611-4.494-1.024-6.707c-0.05-0.276-0.103-0.549-0.159-0.823c-0.432-2.208-0.935-4.387-1.508-6.541  c-0.071-0.266-0.144-0.529-0.217-0.795c-0.591-2.148-1.249-4.264-1.976-6.354c-0.087-0.255-0.178-0.511-0.269-0.765  c-0.744-2.082-1.552-4.133-2.427-6.151c-0.104-0.244-0.21-0.487-0.317-0.729c-0.888-2.011-1.842-3.988-2.855-5.927  c-0.12-0.233-0.245-0.464-0.368-0.697c-1.028-1.932-2.118-3.825-3.265-5.68c-0.139-0.221-0.277-0.442-0.417-0.663  c-1.218-1.934-2.499-3.825-3.841-5.668c-4.026-5.531-8.597-10.638-13.636-15.243l-0.014-0.015c-0.024-0.021-0.046-0.042-0.07-0.063  c-0.277-0.249-0.557-0.496-0.835-0.743c-0.307-0.275-0.614-0.55-0.924-0.821c-0.148-0.128-0.296-0.252-0.444-0.379  c-0.148-0.126-0.294-0.253-0.443-0.379c-0.151-0.129-0.304-0.256-0.456-0.386c-0.151-0.129-0.301-0.258-0.454-0.386  c-0.304-0.252-0.61-0.498-0.916-0.746c-0.304-0.247-0.609-0.493-0.916-0.738c-0.314-0.248-0.63-0.492-0.946-0.736  c-0.306-0.236-0.613-0.473-0.921-0.706c-0.321-0.243-0.645-0.48-0.967-0.72c-0.312-0.229-0.622-0.457-0.934-0.68  c-0.328-0.236-0.659-0.469-0.988-0.698c-0.316-0.223-0.63-0.443-0.95-0.661c-0.333-0.228-0.665-0.451-1-0.673  c-0.323-0.216-0.648-0.43-0.971-0.641c-0.336-0.218-0.673-0.437-1.012-0.65c-0.33-0.21-0.662-0.416-0.993-0.619  c-0.339-0.21-0.679-0.421-1.022-0.626c-0.338-0.201-0.677-0.402-1.016-0.601c-0.342-0.2-0.687-0.402-1.031-0.598  c-0.345-0.196-0.69-0.388-1.036-0.578c-0.347-0.193-0.693-0.385-1.04-0.573c-0.354-0.19-0.709-0.375-1.063-0.56  c-0.348-0.183-0.695-0.365-1.044-0.545c-0.362-0.184-0.73-0.363-1.094-0.543c0,0-0.003-0.001-0.004-0.002  c-0.009-0.004-0.019-0.009-0.027-0.013c-0.336-0.166-0.67-0.336-1.01-0.499c-0.191-0.091-0.385-0.181-0.578-0.269  c-0.193-0.089-0.384-0.178-0.575-0.269c-0.337-0.156-0.671-0.316-1.009-0.468c-0.233-0.104-0.469-0.205-0.702-0.306  c-0.233-0.101-0.465-0.203-0.7-0.305c-0.356-0.154-0.711-0.31-1.07-0.459c-0.632-0.263-1.263-0.524-1.897-0.776  c-0.31-0.121-0.622-0.237-0.933-0.354c-0.439-0.168-0.876-0.34-1.316-0.502c-0.334-0.123-0.671-0.24-1.008-0.357  c-0.421-0.15-0.841-0.302-1.262-0.446c-0.175-0.06-0.35-0.115-0.525-0.173c-0.175-0.058-0.35-0.115-0.524-0.173  c-0.208-0.069-0.416-0.136-0.624-0.204c-0.208-0.069-0.415-0.137-0.622-0.205c-0.361-0.109-0.719-0.217-1.079-0.326  c-0.412-0.126-0.826-0.251-1.242-0.371c-0.365-0.104-0.733-0.203-1.099-0.306c-0.414-0.114-0.829-0.226-1.246-0.336  c-0.37-0.098-0.74-0.191-1.108-0.283c-0.421-0.105-0.84-0.208-1.261-0.307c-0.372-0.086-0.746-0.172-1.12-0.256  c-0.421-0.095-0.843-0.187-1.268-0.277c-0.377-0.079-0.753-0.156-1.129-0.231c-0.428-0.083-0.856-0.166-1.287-0.247  c-0.188-0.035-0.376-0.067-0.565-0.102c-0.188-0.033-0.376-0.069-0.565-0.101c-0.438-0.074-0.873-0.147-1.31-0.217  c-0.376-0.061-0.753-0.12-1.127-0.176c-0.443-0.066-0.889-0.126-1.336-0.186c-0.187-0.025-0.373-0.049-0.56-0.073  c-0.186-0.025-0.373-0.051-0.559-0.073c-0.456-0.057-0.911-0.107-1.369-0.156c-0.369-0.04-0.737-0.083-1.107-0.12  c-0.235-0.022-0.472-0.042-0.707-0.063c-0.235-0.02-0.47-0.042-0.706-0.062c-0.36-0.028-0.719-0.062-1.079-0.089  c-0.496-0.037-0.994-0.067-1.491-0.095c-0.338-0.021-0.676-0.045-1.015-0.062c-0.37-0.018-0.742-0.028-1.113-0.042  c-0.185-0.005-0.37-0.015-0.555-0.02c-0.288-0.009-0.571-0.023-0.857-0.03c-0.839-0.022-1.68-0.032-2.524-0.033  c-0.004,0-0.01,0-0.014,0h-0.001l0,0c-0.007,0-0.011,0-0.015,0c-0.843,0.001-1.685,0.012-2.524,0.033  c-0.286,0.007-0.57,0.022-0.857,0.03c-0.185,0.005-0.37,0.015-0.555,0.02c-0.371,0.013-0.743,0.025-1.113,0.042  c-0.339,0.018-0.677,0.042-1.015,0.062c-0.498,0.028-0.996,0.058-1.491,0.095c-0.36,0.026-0.719,0.06-1.079,0.089  c-0.235,0.021-0.47,0.043-0.706,0.062c-0.235,0.021-0.472,0.04-0.706,0.063c-0.37,0.037-0.738,0.08-1.107,0.12  c-0.457,0.049-0.912,0.1-1.369,0.156c-0.186,0.023-0.374,0.049-0.559,0.073c-0.187,0.024-0.373,0.048-0.56,0.073  c-0.445,0.06-0.892,0.12-1.336,0.186c-0.377,0.056-0.753,0.115-1.127,0.176c-0.438,0.07-0.873,0.142-1.31,0.217  c-0.188,0.032-0.376,0.067-0.565,0.101c-0.188,0.034-0.376,0.067-0.565,0.102c-0.431,0.08-0.86,0.164-1.287,0.247  c-0.377,0.074-0.753,0.152-1.129,0.231c-0.424,0.09-0.847,0.182-1.269,0.277c-0.375,0.084-0.747,0.17-1.119,0.256  c-0.421,0.1-0.842,0.203-1.261,0.307c-0.369,0.092-0.738,0.185-1.108,0.283c-0.417,0.109-0.833,0.222-1.246,0.336  c-0.367,0.104-0.735,0.203-1.101,0.306c-0.415,0.12-0.828,0.245-1.241,0.371c-0.36,0.109-0.719,0.216-1.079,0.326  c-0.209,0.068-0.416,0.136-0.622,0.205c-0.208,0.068-0.416,0.135-0.624,0.204c-0.174,0.058-0.349,0.115-0.524,0.173  c-0.175,0.058-0.35,0.114-0.525,0.173c-0.421,0.144-0.842,0.296-1.264,0.446c-0.336,0.117-0.673,0.234-1.007,0.357  c-0.44,0.162-0.877,0.334-1.316,0.502c-0.31,0.117-0.622,0.233-0.932,0.354c-0.635,0.252-1.267,0.513-1.897,0.776  c-0.358,0.15-0.713,0.305-1.069,0.459c-0.235,0.102-0.467,0.206-0.7,0.305c-0.234,0.103-0.469,0.203-0.703,0.306  c-0.337,0.152-0.672,0.312-1.008,0.468c-0.193,0.091-0.384,0.181-0.575,0.269c-0.195,0.089-0.387,0.178-0.578,0.269  c-0.34,0.163-0.674,0.333-1.01,0.499c-0.01,0.004-0.02,0.009-0.027,0.013c-0.001,0.001-0.003,0.001-0.004,0.002  c-0.364,0.179-0.732,0.359-1.094,0.543c-0.349,0.179-0.696,0.362-1.044,0.545c-0.353,0.185-0.708,0.37-1.063,0.56  c-0.348,0.189-0.695,0.382-1.04,0.573c-0.346,0.189-0.691,0.383-1.036,0.578c-0.344,0.197-0.688,0.398-1.031,0.598  c-0.338,0.199-0.678,0.399-1.016,0.601c-0.342,0.206-0.682,0.416-1.022,0.626c-0.331,0.205-0.663,0.409-0.993,0.619  c-0.339,0.212-0.677,0.432-1.012,0.65c-0.324,0.211-0.649,0.426-0.971,0.641c-0.336,0.222-0.667,0.445-1,0.673  c-0.319,0.217-0.633,0.437-0.95,0.661c-0.333,0.229-0.661,0.462-0.988,0.698c-0.311,0.223-0.621,0.452-0.934,0.68  c-0.322,0.24-0.647,0.478-0.967,0.72c-0.309,0.233-0.614,0.469-0.922,0.706c-0.315,0.244-0.631,0.488-0.945,0.736  c-0.306,0.245-0.612,0.491-0.916,0.738c-0.305,0.248-0.612,0.493-0.916,0.746c-0.153,0.127-0.303,0.256-0.454,0.386  c-0.152,0.129-0.305,0.256-0.456,0.386c-0.149,0.125-0.296,0.252-0.443,0.379c-0.149,0.126-0.296,0.251-0.444,0.379  c-0.31,0.27-0.616,0.546-0.924,0.821c-0.278,0.247-0.558,0.493-0.835,0.743c-0.023,0.022-0.047,0.043-0.069,0.063l-0.014,0.015  c-5.04,4.605-9.61,9.712-13.636,15.243c-1.342,1.843-2.622,3.734-3.841,5.668c-0.14,0.221-0.278,0.442-0.417,0.663  c-1.147,1.855-2.236,3.749-3.265,5.68c-0.123,0.233-0.246,0.464-0.368,0.697c-1.014,1.94-1.967,3.917-2.855,5.927  c-0.108,0.242-0.213,0.485-0.317,0.729c-0.874,2.017-1.683,4.069-2.427,6.151c-0.091,0.254-0.182,0.51-0.269,0.765  c-0.726,2.088-1.385,4.206-1.976,6.354c-0.073,0.265-0.146,0.528-0.217,0.795c-0.571,2.154-1.075,4.333-1.508,6.541  c-0.056,0.274-0.107,0.547-0.159,0.823c-0.415,2.212-0.758,4.448-1.025,6.707c-0.034,0.282-0.065,0.563-0.097,0.846  c-0.124,1.132-0.236,2.267-0.324,3.412c-0.088,1.144-0.148,2.292-0.198,3.444c-0.012,0.289-0.023,0.578-0.033,0.866  c-0.037,1.156-0.066,2.315-0.066,3.482c0,3.496,0.176,6.951,0.523,10.355c0.077,0.756,0.165,1.51,0.259,2.26  c0.115,0.94,0.242,1.876,0.384,2.807c0.641,4.191,1.538,8.297,2.676,12.301c0.337,1.184,0.701,2.355,1.079,3.522  c0.106,0.327,0.214,0.652,0.324,0.978c0.313,0.931,0.638,1.855,0.977,2.774c0.093,0.253,0.182,0.509,0.277,0.759  c0.383,1.012,0.776,2.018,1.189,3.014l0.033,0.055c3.991,9.605,9.424,18.456,16.021,26.3l0.069,0.114  c0.299,0.354,0.606,0.701,0.911,1.051c0.173,0.201,0.345,0.404,0.521,0.603c0.781,0.886,1.575,1.76,2.388,2.62  c0.148,0.159,0.299,0.311,0.449,0.467c0.707,0.741,1.427,1.468,2.156,2.186c0.189,0.187,0.377,0.375,0.569,0.561  c0.85,0.824,1.713,1.634,2.592,2.43c0.151,0.135,0.303,0.267,0.455,0.402c0.768,0.686,1.548,1.361,2.338,2.024  c0.209,0.175,0.416,0.351,0.625,0.524c0.914,0.755,1.841,1.498,2.781,2.221c0.15,0.114,0.301,0.225,0.451,0.339  c0.829,0.63,1.667,1.247,2.516,1.851c0.225,0.161,0.451,0.323,0.678,0.482c0.975,0.683,1.959,1.351,2.958,2.001  c0.144,0.093,0.291,0.183,0.435,0.276c0.887,0.569,1.784,1.122,2.689,1.665c0.244,0.147,0.487,0.293,0.732,0.436  c1.028,0.604,2.067,1.195,3.118,1.762c0.14,0.076,0.283,0.148,0.424,0.223c0.94,0.503,1.892,0.989,2.849,1.463  c0.26,0.128,0.52,0.258,0.781,0.385c1.08,0.522,2.167,1.029,3.267,1.515c0.132,0.058,0.267,0.113,0.399,0.17  c0.992,0.433,1.995,0.847,3.005,1.248c0.276,0.109,0.552,0.22,0.83,0.328c1.125,0.435,2.26,0.857,3.405,1.254  c0.117,0.04,0.235,0.077,0.352,0.116c1.049,0.359,2.107,0.698,3.172,1.023c0.29,0.09,0.579,0.177,0.87,0.263  c1.169,0.346,2.347,0.677,3.533,0.982c0.097,0.024,0.197,0.046,0.294,0.071c1.106,0.279,2.219,0.536,3.339,0.78  c0.301,0.066,0.603,0.13,0.906,0.193c1.209,0.252,2.424,0.487,3.649,0.696c0.07,0.012,0.141,0.021,0.21,0.033  c1.164,0.195,2.338,0.363,3.515,0.519c0.312,0.04,0.624,0.08,0.935,0.118c1.246,0.152,2.495,0.289,3.756,0.395  c0.036,0.002,0.073,0.004,0.111,0.008c1.225,0.102,2.458,0.174,3.696,0.232c0.321,0.015,0.642,0.03,0.963,0.04  c1.277,0.048,2.558,0.081,3.845,0.081h0.001h0.001c1.288,0,2.569-0.033,3.844-0.081c0.322-0.011,0.643-0.025,0.964-0.04  c1.237-0.058,2.47-0.13,3.696-0.232c0.036-0.003,0.073-0.005,0.11-0.008c1.259-0.107,2.51-0.244,3.756-0.395  c0.312-0.038,0.624-0.078,0.935-0.118c1.177-0.155,2.35-0.324,3.515-0.519c0.07-0.013,0.141-0.022,0.21-0.033  c1.224-0.208,2.439-0.443,3.649-0.696c0.303-0.062,0.605-0.127,0.906-0.193c1.119-0.244,2.233-0.501,3.339-0.78  c0.097-0.025,0.197-0.047,0.294-0.071c1.187-0.304,2.363-0.636,3.533-0.982c0.291-0.085,0.58-0.173,0.87-0.263  c1.064-0.325,2.123-0.663,3.172-1.023c0.117-0.039,0.235-0.076,0.352-0.116c1.145-0.397,2.279-0.818,3.405-1.254  c0.278-0.108,0.555-0.218,0.83-0.328c1.01-0.4,2.013-0.815,3.005-1.248c0.131-0.058,0.267-0.113,0.399-0.17  c1.099-0.485,2.187-0.993,3.267-1.515c0.261-0.126,0.521-0.256,0.781-0.385c0.957-0.474,1.908-0.959,2.848-1.463  c0.141-0.076,0.284-0.148,0.424-0.223c1.052-0.569,2.09-1.16,3.119-1.762c0.245-0.144,0.488-0.291,0.732-0.436  c0.905-0.543,1.803-1.097,2.689-1.665c0.144-0.093,0.291-0.183,0.435-0.276c0.999-0.65,1.983-1.318,2.958-2.001  c0.228-0.16,0.453-0.322,0.678-0.482c0.848-0.605,1.687-1.221,2.516-1.851c0.15-0.114,0.301-0.224,0.451-0.339  c0.94-0.723,1.866-1.466,2.781-2.221c0.209-0.173,0.417-0.349,0.625-0.524c0.79-0.662,1.57-1.338,2.338-2.024  c0.152-0.135,0.303-0.267,0.455-0.402c0.879-0.795,1.742-1.606,2.592-2.43c0.191-0.186,0.38-0.374,0.569-0.561  c0.73-0.718,1.448-1.445,2.156-2.186c0.15-0.156,0.301-0.309,0.449-0.467c0.812-0.859,1.607-1.733,2.388-2.62  c0.174-0.199,0.347-0.402,0.521-0.603c0.304-0.35,0.612-0.697,0.911-1.051l0.069-0.114c6.595-7.844,12.029-16.695,16.021-26.3  l0.033-0.055c0.414-0.996,0.806-2.002,1.189-3.014c0.095-0.252,0.184-0.507,0.277-0.759c0.338-0.919,0.663-1.845,0.976-2.774  c0.109-0.326,0.218-0.651,0.324-0.978c0.379-1.165,0.743-2.338,1.079-3.522c1.138-4.004,2.035-8.11,2.676-12.301  c0.142-0.932,0.268-1.867,0.384-2.807c0.094-0.75,0.183-1.504,0.259-2.26C317.343,262.952,317.52,259.497,317.52,256.001z"/>
<g>
	<path style="fill:#EDE21B;" d="M216.243,98.9c-4.833,0-8.752-3.919-8.752-8.752V48.509c0-4.833,3.919-8.752,8.752-8.752   c4.833,0,8.752,3.919,8.752,8.752v41.638C224.996,94.981,221.077,98.9,216.243,98.9z"/>
	<path style="fill:#EDE21B;" d="M216.243,472.243c-4.833,0-8.752-3.919-8.752-8.752v-41.637c0-4.833,3.919-8.752,8.752-8.752   c4.833,0,8.752,3.919,8.752,8.752v41.637C224.996,468.324,221.077,472.243,216.243,472.243z"/>
	<path style="fill:#EDE21B;" d="M133.327,121.121c-3.026,0-5.967-1.57-7.589-4.377L104.92,80.683   c-2.418-4.186-0.982-9.539,3.203-11.955c4.187-2.419,9.539-0.982,11.955,3.203l20.82,36.061c2.417,4.186,0.982,9.539-3.204,11.955   C136.317,120.743,134.811,121.121,133.327,121.121z"/>
	<path style="fill:#EDE21B;" d="M319.997,444.447c-3.026,0-5.967-1.57-7.588-4.377l-20.82-36.063   c-2.417-4.186-0.982-9.539,3.203-11.956c4.186-2.412,9.539-0.981,11.955,3.204l20.82,36.063c2.417,4.186,0.982,9.539-3.203,11.957   C322.986,444.069,321.481,444.447,319.997,444.447z"/>
	<path style="fill:#EDE21B;" d="M72.601,181.826c-1.485,0-2.989-0.379-4.367-1.174l-36.059-20.818   c-4.186-2.417-5.621-7.77-3.204-11.955c2.417-4.186,7.77-5.622,11.957-3.203l36.059,20.818c4.186,2.417,5.621,7.77,3.203,11.955   C78.568,180.257,75.627,181.826,72.601,181.826z"/>
	<path style="fill:#EDE21B;" d="M395.928,368.499c-1.485,0-2.989-0.379-4.367-1.173l-36.062-20.818   c-4.186-2.417-5.62-7.77-3.203-11.956c2.417-4.187,7.77-5.618,11.955-3.204l36.062,20.818c4.186,2.417,5.62,7.77,3.203,11.956   C401.896,366.93,398.954,368.499,395.928,368.499z"/>
	<path style="fill:#EDE21B;" d="M50.39,264.753H8.752c-4.833,0-8.752-3.919-8.752-8.752c0-4.833,3.919-8.752,8.752-8.752H50.39   c4.833,0,8.752,3.919,8.752,8.752C59.143,260.834,55.225,264.753,50.39,264.753z"/>
	<path style="fill:#EDE21B;" d="M423.735,264.753h-41.638c-4.834,0-8.752-3.919-8.752-8.752c0-4.833,3.918-8.752,8.752-8.752h41.638   c4.834,0,8.752,3.919,8.752,8.752C432.487,260.834,428.569,264.753,423.735,264.753z"/>
	<path style="fill:#EDE21B;" d="M36.56,368.499c-3.026,0-5.967-1.57-7.589-4.377c-2.417-4.186-0.981-9.539,3.204-11.955   l36.059-20.818c4.186-2.417,9.539-0.981,11.955,3.203c2.418,4.186,0.982,9.539-3.203,11.955l-36.059,20.818   C39.549,368.121,38.043,368.499,36.56,368.499z"/>
	<path style="fill:#EDE21B;" d="M359.883,181.826c-3.026,0-5.968-1.569-7.588-4.377c-2.417-4.187-0.982-9.54,3.203-11.957   l36.062-20.818c4.186-2.413,9.54-0.982,11.955,3.204c2.417,4.187,0.982,9.54-3.203,11.957l-36.062,20.818   C362.872,181.448,361.368,181.826,359.883,181.826z"/>
	<path style="fill:#EDE21B;" d="M112.488,444.447c-1.485,0-2.989-0.379-4.367-1.173c-4.186-2.417-5.621-7.771-3.203-11.957   l20.818-36.063c2.417-4.186,7.768-5.619,11.957-3.204c4.186,2.417,5.621,7.771,3.204,11.956l-20.82,36.063   C118.456,442.877,115.514,444.447,112.488,444.447z"/>
	<path style="fill:#EDE21B;" d="M299.159,121.121c-1.485,0-2.989-0.379-4.367-1.174c-4.186-2.417-5.62-7.77-3.203-11.955   l20.82-36.061c2.417-4.186,7.771-5.62,11.955-3.203c4.186,2.417,5.62,7.77,3.203,11.955l-20.82,36.061   C305.126,119.551,302.185,121.121,299.159,121.121z"/>
</g>
<path style="fill:#F29F26;" d="M317.423,251.652c-0.05-1.153-0.111-2.301-0.198-3.444c-0.088-1.145-0.2-2.28-0.324-3.412  c-0.032-0.283-0.063-0.565-0.097-0.846c-0.267-2.258-0.61-4.494-1.024-6.707c-0.05-0.276-0.103-0.549-0.159-0.823  c-0.432-2.208-0.935-4.387-1.508-6.541c-0.071-0.266-0.144-0.529-0.217-0.795c-0.591-2.148-1.249-4.264-1.976-6.354  c-0.087-0.255-0.178-0.511-0.269-0.765c-0.744-2.082-1.552-4.133-2.427-6.151c-0.104-0.244-0.21-0.487-0.317-0.729  c-0.888-2.011-1.842-3.988-2.855-5.927c-0.12-0.233-0.245-0.464-0.368-0.697c-1.028-1.932-2.118-3.825-3.265-5.68  c-0.139-0.221-0.277-0.442-0.417-0.663c-1.218-1.934-2.499-3.825-3.841-5.668c-4.026-5.531-8.597-10.638-13.636-15.243l-0.014-0.015  c-0.024-0.021-0.046-0.042-0.07-0.063c-0.277-0.249-0.557-0.496-0.835-0.743c-0.307-0.275-0.614-0.55-0.924-0.821  c-0.148-0.128-0.296-0.252-0.444-0.379c-0.148-0.126-0.294-0.253-0.443-0.379c-0.151-0.129-0.304-0.256-0.456-0.386  c-0.151-0.129-0.301-0.258-0.454-0.386c-0.304-0.252-0.611-0.498-0.916-0.746c-0.304-0.247-0.609-0.493-0.916-0.738  c-0.314-0.248-0.63-0.492-0.946-0.736c-0.306-0.236-0.613-0.473-0.921-0.706c-0.321-0.243-0.645-0.48-0.967-0.72  c-0.312-0.229-0.622-0.457-0.934-0.68c-0.328-0.236-0.659-0.469-0.988-0.698c-0.316-0.223-0.63-0.443-0.95-0.661  c-0.333-0.228-0.665-0.451-1-0.673c-0.323-0.216-0.648-0.43-0.971-0.641c-0.336-0.218-0.673-0.437-1.012-0.65  c-0.33-0.21-0.662-0.416-0.993-0.619c-0.339-0.21-0.679-0.421-1.022-0.626c-0.338-0.201-0.677-0.402-1.016-0.601  c-0.342-0.2-0.687-0.402-1.031-0.598c-0.345-0.196-0.69-0.388-1.036-0.578c-0.347-0.193-0.693-0.385-1.04-0.573  c-0.354-0.19-0.709-0.375-1.063-0.56c-0.348-0.183-0.695-0.365-1.044-0.545c-0.362-0.184-0.73-0.363-1.094-0.543  c0,0-0.003-0.001-0.004-0.002c-0.009-0.004-0.019-0.009-0.027-0.013c-0.336-0.166-0.67-0.336-1.01-0.499  c-0.191-0.091-0.385-0.181-0.578-0.269c-0.193-0.089-0.384-0.178-0.575-0.269c-0.337-0.156-0.671-0.316-1.009-0.468  c-0.233-0.104-0.469-0.205-0.702-0.306c-0.233-0.101-0.465-0.203-0.7-0.305c-0.356-0.154-0.711-0.31-1.07-0.459  c-0.632-0.263-1.262-0.524-1.897-0.776c-0.31-0.121-0.622-0.237-0.933-0.354c-0.439-0.168-0.876-0.34-1.316-0.502  c-0.334-0.123-0.671-0.24-1.008-0.357c-0.421-0.15-0.841-0.302-1.262-0.446c-0.175-0.06-0.35-0.115-0.525-0.173  c-0.175-0.058-0.35-0.115-0.524-0.173c-0.208-0.069-0.416-0.136-0.624-0.204c-0.208-0.069-0.415-0.137-0.622-0.205  c-0.361-0.109-0.719-0.217-1.079-0.326c-0.412-0.126-0.826-0.251-1.242-0.371c-0.365-0.104-0.733-0.203-1.099-0.306  c-0.414-0.114-0.829-0.226-1.246-0.336c-0.37-0.098-0.74-0.191-1.108-0.283c-0.421-0.105-0.84-0.208-1.261-0.307  c-0.372-0.086-0.746-0.172-1.12-0.256c-0.421-0.095-0.843-0.187-1.268-0.277c-0.377-0.079-0.753-0.156-1.129-0.231  c-0.428-0.083-0.856-0.166-1.287-0.247c-0.188-0.035-0.376-0.067-0.565-0.102c-0.188-0.033-0.376-0.069-0.565-0.101  c-0.438-0.074-0.873-0.147-1.31-0.217c-0.376-0.061-0.753-0.12-1.127-0.176c-0.443-0.066-0.889-0.126-1.336-0.186  c-0.187-0.025-0.373-0.049-0.56-0.073c-0.186-0.025-0.373-0.051-0.559-0.073c-0.456-0.057-0.911-0.107-1.369-0.156  c-0.369-0.04-0.737-0.083-1.107-0.12c-0.235-0.022-0.472-0.042-0.707-0.063c-0.235-0.02-0.47-0.042-0.706-0.062  c-0.36-0.028-0.719-0.062-1.079-0.089c-0.496-0.037-0.994-0.067-1.491-0.095c-0.338-0.021-0.676-0.045-1.015-0.062  c-0.37-0.018-0.742-0.028-1.113-0.042c-0.185-0.005-0.37-0.015-0.555-0.02c-0.288-0.009-0.571-0.023-0.857-0.03  c-0.839-0.022-1.68-0.032-2.524-0.033c-0.004,0-0.01,0-0.014,0h-0.001l0,0c-0.007,0-0.011,0-0.015,0  c-0.843,0.001-1.685,0.012-2.524,0.033c-0.286,0.007-0.57,0.022-0.857,0.03c-0.185,0.005-0.37,0.015-0.555,0.02  c-0.371,0.013-0.743,0.025-1.113,0.042c-0.339,0.018-0.677,0.042-1.015,0.062c-0.498,0.028-0.996,0.058-1.491,0.095  c-0.36,0.026-0.719,0.06-1.079,0.089c-0.235,0.021-0.47,0.043-0.706,0.062c-0.235,0.021-0.472,0.04-0.706,0.063  c-0.37,0.037-0.738,0.08-1.107,0.12c-0.457,0.049-0.912,0.1-1.369,0.156c-0.186,0.023-0.374,0.049-0.559,0.073  c-0.187,0.024-0.373,0.048-0.56,0.073c-0.445,0.06-0.892,0.12-1.336,0.186c-0.377,0.056-0.753,0.115-1.127,0.176  c-0.438,0.07-0.873,0.142-1.31,0.217c-0.188,0.032-0.376,0.067-0.565,0.101c-0.188,0.034-0.376,0.067-0.565,0.102  c-0.431,0.08-0.86,0.164-1.287,0.247c-0.377,0.074-0.753,0.152-1.129,0.231c-0.424,0.09-0.847,0.182-1.269,0.277  c-0.375,0.084-0.747,0.17-1.119,0.256c-0.421,0.1-0.842,0.203-1.261,0.307c-0.369,0.092-0.738,0.185-1.108,0.283  c-0.417,0.109-0.833,0.222-1.246,0.336c-0.367,0.104-0.735,0.203-1.101,0.306c-0.415,0.12-0.828,0.245-1.241,0.371  c-0.36,0.109-0.719,0.216-1.079,0.326c-0.209,0.068-0.416,0.136-0.622,0.205c-0.208,0.068-0.416,0.135-0.624,0.204  c-0.174,0.058-0.349,0.115-0.524,0.173c-0.175,0.058-0.35,0.114-0.525,0.173c-0.421,0.144-0.842,0.296-1.264,0.446  c-0.336,0.117-0.673,0.234-1.007,0.357c-0.44,0.162-0.877,0.334-1.316,0.502c-0.31,0.117-0.622,0.233-0.932,0.354  c-0.325,0.129-0.649,0.265-0.973,0.397c-14.905,21.457-23.648,47.516-23.648,75.621c0,52.015,29.927,97.032,73.498,118.795  c0.233-0.026,0.469-0.046,0.702-0.073c0.312-0.038,0.624-0.078,0.935-0.118c1.177-0.155,2.35-0.324,3.515-0.519  c0.07-0.013,0.141-0.022,0.21-0.033c1.224-0.208,2.439-0.443,3.649-0.696c0.303-0.062,0.605-0.127,0.906-0.193  c1.119-0.244,2.233-0.501,3.339-0.78c0.097-0.025,0.197-0.047,0.294-0.071c1.187-0.304,2.363-0.636,3.533-0.982  c0.291-0.085,0.58-0.173,0.87-0.263c1.064-0.325,2.123-0.663,3.172-1.023c0.117-0.039,0.235-0.076,0.352-0.116  c1.145-0.397,2.279-0.818,3.405-1.254c0.278-0.108,0.555-0.218,0.83-0.328c1.01-0.4,2.013-0.815,3.005-1.248  c0.131-0.058,0.267-0.113,0.399-0.17c1.099-0.485,2.187-0.993,3.267-1.515c0.261-0.126,0.521-0.256,0.781-0.385  c0.957-0.474,1.908-0.959,2.848-1.463c0.141-0.076,0.284-0.148,0.424-0.223c1.052-0.569,2.09-1.16,3.119-1.762  c0.245-0.144,0.488-0.291,0.732-0.436c0.905-0.543,1.803-1.097,2.689-1.665c0.144-0.093,0.291-0.183,0.435-0.276  c0.999-0.65,1.983-1.318,2.958-2.001c0.228-0.16,0.453-0.322,0.678-0.482c0.848-0.605,1.687-1.221,2.516-1.851  c0.15-0.114,0.301-0.224,0.451-0.339c0.94-0.723,1.866-1.466,2.781-2.221c0.209-0.173,0.417-0.349,0.625-0.524  c0.79-0.662,1.57-1.338,2.338-2.024c0.152-0.135,0.303-0.267,0.455-0.402c0.879-0.795,1.742-1.606,2.592-2.43  c0.191-0.186,0.38-0.374,0.569-0.561c0.73-0.718,1.448-1.445,2.156-2.186c0.15-0.156,0.301-0.309,0.449-0.467  c0.812-0.859,1.607-1.733,2.388-2.62c0.174-0.199,0.347-0.402,0.521-0.603c0.304-0.35,0.612-0.697,0.911-1.051l0.069-0.114  c6.595-7.844,12.029-16.695,16.021-26.3l0.033-0.055c0.414-0.996,0.806-2.002,1.189-3.014c0.095-0.252,0.184-0.507,0.277-0.759  c0.338-0.919,0.663-1.845,0.976-2.774c0.109-0.326,0.218-0.651,0.324-0.978c0.379-1.165,0.743-2.338,1.079-3.522  c1.138-4.004,2.035-8.11,2.676-12.301c0.142-0.932,0.268-1.867,0.384-2.807c0.094-0.75,0.183-1.504,0.259-2.26  c0.345-3.404,0.523-6.858,0.523-10.355c0-1.166-0.027-2.326-0.066-3.482C317.444,252.231,317.433,251.941,317.423,251.652z"/>
<path style="fill:#CCCCCC;" d="M511.609,245.683c-3.323-43.668-27.565-81.48-62.723-103.459l-0.059-0.047  c-0.144-0.09-0.292-0.172-0.434-0.261c-1.052-0.651-2.113-1.291-3.182-1.912c-0.12-0.07-0.241-0.144-0.362-0.213  c-1.189-0.687-2.393-1.352-3.605-2.004c-0.278-0.15-0.56-0.295-0.839-0.442c-0.987-0.522-1.982-1.029-2.984-1.527  c-0.281-0.139-0.558-0.28-0.839-0.417c-1.233-0.601-2.475-1.186-3.728-1.75c-0.178-0.08-0.359-0.156-0.538-0.235  c-1.086-0.482-2.181-0.951-3.283-1.406c-0.337-0.139-0.673-0.277-1.012-0.412c-1.165-0.472-2.339-0.929-3.522-1.366  c-0.117-0.044-0.234-0.091-0.352-0.133c-1.292-0.475-2.596-0.926-3.907-1.361c-0.336-0.113-0.673-0.219-1.01-0.328  c-1.056-0.342-2.116-0.67-3.181-0.986c-0.311-0.092-0.619-0.187-0.932-0.277c-1.325-0.383-2.658-0.746-4-1.087  c-0.252-0.065-0.507-0.123-0.76-0.186c-1.119-0.278-2.244-0.542-3.373-0.792c-0.379-0.083-0.756-0.166-1.136-0.247  c-1.293-0.275-2.592-0.534-3.899-0.77c-0.078-0.015-0.156-0.031-0.235-0.045c-1.38-0.248-2.768-0.467-4.163-0.672  c-0.38-0.056-0.761-0.107-1.142-0.16c-1.118-0.155-2.241-0.295-3.367-0.422c-0.325-0.036-0.649-0.077-0.975-0.112  c-1.4-0.148-2.807-0.274-4.222-0.377c-0.306-0.022-0.616-0.037-0.923-0.058c-1.153-0.077-2.308-0.139-3.468-0.186  c-0.401-0.016-0.803-0.033-1.206-0.046c-1.442-0.046-2.887-0.077-4.34-0.077s-2.897,0.031-4.34,0.077  c-0.402,0.013-0.803,0.03-1.206,0.046c-1.16,0.047-2.315,0.109-3.468,0.186c-0.307,0.021-0.616,0.036-0.923,0.058  c-1.415,0.104-2.821,0.23-4.222,0.377c-0.326,0.034-0.65,0.074-0.975,0.112c-1.127,0.127-2.249,0.267-3.367,0.422  c-0.381,0.053-0.763,0.104-1.142,0.16c-1.395,0.206-2.783,0.424-4.163,0.672c-0.079,0.014-0.158,0.03-0.235,0.045  c-1.306,0.236-2.606,0.496-3.898,0.77c-0.38,0.08-0.757,0.163-1.136,0.247c-1.131,0.251-2.256,0.514-3.375,0.793  c-0.252,0.062-0.507,0.12-0.758,0.185c-1.342,0.342-2.674,0.706-4,1.087c-0.312,0.09-0.62,0.185-0.932,0.277  c-1.067,0.316-2.126,0.644-3.181,0.986c-0.337,0.109-0.674,0.216-1.011,0.328c-1.31,0.435-2.615,0.886-3.906,1.361  c-0.118,0.043-0.235,0.09-0.352,0.133c-1.183,0.438-2.355,0.895-3.522,1.366c-0.339,0.136-0.675,0.274-1.012,0.412  c-1.102,0.455-2.197,0.923-3.283,1.406c-0.179,0.079-0.36,0.155-0.538,0.235c-1.254,0.565-2.495,1.15-3.728,1.75  c-0.281,0.137-0.559,0.278-0.839,0.417c-1.002,0.498-1.997,1.006-2.984,1.527c-0.28,0.148-0.562,0.293-0.84,0.442  c-1.212,0.652-2.416,1.317-3.605,2.004c-0.121,0.069-0.242,0.143-0.362,0.213c-1.07,0.621-2.13,1.261-3.182,1.912  c-0.143,0.09-0.291,0.172-0.434,0.261l-0.059,0.047c-35.158,21.98-59.401,59.791-62.723,103.459  c-0.259,3.405-0.391,6.846-0.391,10.318c0,6.943,0.527,13.763,1.545,20.421c9.834,64.365,65.433,113.673,132.548,113.673  c67.116,0,122.714-49.307,132.548-113.673c1.02-6.658,1.547-13.478,1.547-20.421C512,252.529,511.869,249.089,511.609,245.683z"/>
<g>
	<circle style="fill:#EAE6E1;" cx="309.585" cy="220.751" r="21.181"/>
	<circle style="fill:#EAE6E1;" cx="425.343" cy="322.112" r="15.731"/>
	<circle style="fill:#EAE6E1;" cx="425.343" cy="241.932" r="25.551"/>
</g>
<path style="fill:#BCBAB7;" d="M265.693,256.001c0-70.374,54.214-128.078,123.152-133.645c-3.608-0.292-7.255-0.446-10.939-0.446  c-74.057,0-134.093,60.034-134.093,134.091s60.035,134.094,134.093,134.094c3.684,0,7.329-0.155,10.938-0.446  C319.907,384.079,265.693,326.373,265.693,256.001z"/>
<path style="fill:#EAE6E1;" d="M364.535,339.46c-0.451-1.536-0.792-2.446-0.792-2.446c-6.337-17.848-23.371-30.629-43.394-30.629  c-22,0-40.385,15.438-44.938,36.069c18.959,22.454,45.154,38.594,74.998,44.814c3.135-2.708,5.621-5.939,7.78-9.451  C360.543,373.858,368.361,358.837,364.535,339.46z"/>
<path style="fill:#D8D1CA;" d="M284.182,323.966c-4.201,5.338-7.256,11.622-8.771,18.485c0.007,0.008,0.012,0.014,0.018,0.022  c3.546,4.198,7.345,8.176,11.373,11.908c0.009,0.007,0.016,0.015,0.024,0.022c5.361,4.965,11.128,9.496,17.246,13.538  c0.056,0.038,0.113,0.074,0.17,0.114c4.54,2.991,9.273,5.713,14.176,8.144c0.09,0.044,0.179,0.089,0.269,0.133  c1.598,0.789,3.214,1.547,4.849,2.272c0.066,0.028,0.132,0.058,0.199,0.086c3.316,1.468,6.705,2.804,10.158,4.003  c0.073,0.025,0.148,0.053,0.222,0.078c1.686,0.583,3.388,1.13,5.102,1.647c0.13,0.039,0.26,0.078,0.391,0.116  c3.541,1.054,7.143,1.969,10.801,2.732c1.703-1.471,3.203-3.107,4.575-4.849C325.08,371.82,300.058,350.911,284.182,323.966z"/>
<g>
</g>
<g>
</g>
<g>
</g>
<g>
</g>
<g>
</g>
<g>
</g>
<g>
</g>
<g>
</g>
<g>
</g>
<g>
</g>
<g>
</g>
<g>
</g>
<g>
</g>
<g>
</g>
<g>
</g>
</svg>
