<?xml version="1.0" encoding="iso-8859-1"?>
<!-- Generator: Adobe Illustrator 19.0.0, SVG Export Plug-In . SVG Version: 6.00 Build 0)  -->
<svg xmlns="http://www.w3.org/2000/svg" xmlns:xlink="http://www.w3.org/1999/xlink" version="1.1" id="Layer_1" x="0px" y="0px" viewBox="0 0 512 512" style="enable-background:new 0 0 512 512;" xml:space="preserve">
<path style="fill:#EAC71C;" d="M136.432,371.859h201.196c28.922-26.948,47.017-65.368,47.017-108.019  c0-81.525-66.089-147.615-147.614-147.615c-81.526,0-147.616,66.091-147.616,147.615C89.413,306.491,107.509,344.91,136.432,371.859  z"/>
<path style="fill:#EDE21B;" d="M237.029,116.225c-4.737,0-9.421,0.233-14.044,0.669c-35.311,27.265-58.062,70.009-58.062,118.073  c0,61.328,37.034,113.999,89.955,136.893h82.748c28.922-26.948,47.017-65.368,47.017-108.019  C384.644,182.316,318.555,116.225,237.029,116.225z"/>
<path style="fill:#EF8229;" d="M334.425,219.884c6.281,13.63,9.782,28.804,9.782,44.795c0,59.193-47.983,107.179-107.178,107.179  c-59.192,0-107.178-47.986-107.178-107.179c0-59.192,47.985-107.177,107.178-107.177c32.402,0,61.443,14.377,81.096,37.1"/>
<g>
	<path style="fill:#EDE21B;" d="M237.029,89.875c-4.757,0-8.613-3.856-8.613-8.613V35.423c0-4.757,3.856-8.613,8.613-8.613   s8.613,3.856,8.613,8.613v45.839C245.642,86.019,241.786,89.875,237.029,89.875z"/>
	<path style="fill:#EDE21B;" d="M145.749,114.336c-2.978,0-5.872-1.545-7.468-4.308l-22.92-39.697   c-2.378-4.119-0.967-9.387,3.152-11.765c4.119-2.379,9.387-0.966,11.765,3.152l22.92,39.696c2.378,4.119,0.967,9.387-3.152,11.765   C148.69,113.965,147.209,114.336,145.749,114.336z"/>
	<path style="fill:#EDE21B;" d="M78.903,181.165c-1.461,0-2.941-0.372-4.298-1.154l-39.697-22.919   c-4.119-2.379-5.532-7.647-3.152-11.767c2.377-4.119,7.645-5.53,11.765-3.153l39.697,22.918c4.119,2.379,5.532,7.646,3.152,11.767   C84.774,179.62,81.881,181.165,78.903,181.165z"/>
	<path style="fill:#EDE21B;" d="M54.45,272.454H8.613c-4.757,0-8.613-3.857-8.613-8.613s3.856-8.613,8.613-8.613H54.45   c4.757,0,8.613,3.856,8.613,8.613C63.063,268.596,59.206,272.454,54.45,272.454z"/>
	<path style="fill:#EDE21B;" d="M395.155,181.165c-2.978,0-5.872-1.545-7.468-4.308c-2.379-4.119-0.967-9.387,3.152-11.767   l39.697-22.918c4.12-2.377,9.388-0.966,11.765,3.153c2.379,4.119,0.967,9.387-3.152,11.767l-39.697,22.918   C398.098,180.792,396.616,181.165,395.155,181.165z"/>
	<path style="fill:#EDE21B;" d="M328.307,114.336c-1.461,0-2.941-0.373-4.298-1.155c-4.119-2.378-5.531-7.645-3.152-11.765   l22.92-39.697c2.378-4.12,7.644-5.532,11.765-3.152c4.119,2.378,5.531,7.646,3.152,11.765l-22.92,39.697   C334.179,112.792,331.285,114.336,328.307,114.336z"/>
</g>
<path style="fill:#F29F26;" d="M334.425,219.884l-16.299-25.28c-19.653-22.722-48.694-37.1-81.096-37.1  c-22.181,0-42.788,6.739-59.886,18.279c-7.856,18.146-12.22,38.154-12.22,59.185c0,60.36,35.871,112.341,87.459,135.792  c51.918-7.449,91.823-52.1,91.823-106.078C344.207,248.688,340.706,233.515,334.425,219.884z"/>
<g>
	<path style="fill:#C7E6F9;" d="M380.785,371.859c0-4.757-3.857-8.613-8.613-8.613H67.782c-4.757,0-8.613,3.857-8.613,8.613   s3.856,8.613,8.613,8.613h304.391C376.929,380.472,380.785,376.616,380.785,371.859z"/>
	<path style="fill:#C7E6F9;" d="M124.528,400.028h-18.645c-4.757,0-8.613,3.856-8.613,8.613s3.856,8.613,8.613,8.613h18.645   c4.757,0,8.613-3.857,8.613-8.613S129.284,400.028,124.528,400.028z"/>
	<path style="fill:#C7E6F9;" d="M252.012,400.028H150.226c-4.757,0-8.613,3.856-8.613,8.613s3.857,8.613,8.613,8.613h101.786   c13.979,0,25.354,11.374,25.354,25.355c0,13.632-10.817,24.782-24.317,25.328c-0.34-0.041-0.685-0.068-1.037-0.068   c-13.954,0-25.307-11.353-25.307-25.307c0-4.757-3.857-8.613-8.613-8.613s-8.613,3.857-8.613,8.613   c0,22.967,18.301,41.728,41.083,42.497c0.473,0.08,0.955,0.131,1.45,0.131c23.479,0,42.58-19.102,42.58-42.581   S275.491,400.028,252.012,400.028z"/>
	<path style="fill:#C7E6F9;" d="M382.917,400.028h-79.644c-4.757,0-8.613,3.856-8.613,8.613s3.856,8.613,8.613,8.613h79.644   c13.982,0,25.358,11.374,25.358,25.355c0,13.633-10.818,24.782-24.321,25.328c-0.34-0.041-0.685-0.068-1.037-0.068   c-13.953,0-25.305-11.353-25.305-25.307c0-4.757-3.856-8.613-8.613-8.613s-8.613,3.857-8.613,8.613   c0,22.967,18.3,41.728,41.081,42.497c0.473,0.08,0.955,0.131,1.45,0.131c23.481,0,42.584-19.102,42.584-42.581   S406.399,400.028,382.917,400.028z"/>
	<path style="fill:#C7E6F9;" d="M469.42,255.228c-0.499,0-0.983,0.052-1.458,0.132c-22.78,0.773-41.078,19.532-41.078,42.497   c0,4.757,3.856,8.613,8.613,8.613s8.613-3.857,8.613-8.613c0-13.954,11.354-25.307,25.309-25.307c0.353,0,0.7-0.028,1.042-0.069   c13.498,0.549,24.311,11.698,24.311,25.329c0,13.98-11.374,25.355-25.354,25.355h-64.388c-4.757,0-8.613,3.856-8.613,8.613   s3.857,8.613,8.613,8.613h64.388c23.479,0,42.58-19.102,42.58-42.581C512,274.329,492.898,255.228,469.42,255.228z"/>
	<path style="fill:#C7E6F9;" d="M417.597,363.246H398.89c-4.757,0-8.613,3.857-8.613,8.613s3.856,8.613,8.613,8.613h18.706   c4.757,0,8.613-3.856,8.613-8.613S422.353,363.246,417.597,363.246z"/>
</g>
<g>
</g>
<g>
</g>
<g>
</g>
<g>
</g>
<g>
</g>
<g>
</g>
<g>
</g>
<g>
</g>
<g>
</g>
<g>
</g>
<g>
</g>
<g>
</g>
<g>
</g>
<g>
</g>
<g>
</g>
</svg>
