<?xml version="1.0" encoding="iso-8859-1"?>
<!-- Generator: Adobe Illustrator 19.0.0, SVG Export Plug-In . SVG Version: 6.00 Build 0)  -->
<svg xmlns="http://www.w3.org/2000/svg" xmlns:xlink="http://www.w3.org/1999/xlink" version="1.1" id="Layer_1" x="0px" y="0px" viewBox="0 0 512 512" style="enable-background:new 0 0 512 512;" xml:space="preserve">
<g>
	<path style="fill:#CCCCCC;" d="M238.615,329.865v-60.737c-5.578,5.182-10.457,11.436-14.386,18.55   c-3.932-7.115-8.809-13.368-14.389-18.551v173.576h28.775v-75.415"/>
	<path style="fill:#CCCCCC;" d="M224.783,102.698h-0.821c-6.992,0-12.661,5.668-12.661,12.662v14.805v17.66v14.805   c4.316-0.321,8.675-0.491,13.073-0.491c4.397,0,8.756,0.171,13.072,0.491v-14.803v-17.66v-14.805   C237.446,108.366,231.776,102.698,224.783,102.698z"/>
</g>
<path style="fill:#ED5145;" d="M209.925,474.568c0,4.817-3.92,8.737-8.736,8.737c-4.817,0-8.736-3.919-8.736-8.737  c0-7.924-6.423-14.347-14.347-14.347c-7.924,0-14.348,6.423-14.348,14.347c0,20.641,16.793,37.432,37.432,37.432  c20.641,0,37.432-16.791,37.432-37.432v-46.105h-28.696v46.105H209.925z"/>
<path style="fill:#ACB7BC;" d="M249.153,415.691h-11.706c-4.836,0-8.757-3.921-8.757-8.757s3.921-8.757,8.757-8.757h11.706  c4.837,0,8.757,3.921,8.757,8.757S253.99,415.691,249.153,415.691z"/>
<g>
	<path style="fill:#9FDEF7;" d="M436.243,38.907c-1.831,0-3.676-0.57-5.254-1.756c-3.866-2.905-4.645-8.395-1.742-12.261   l16.071-21.392c2.905-3.867,8.395-4.648,12.262-1.743c3.866,2.905,4.645,8.395,1.742,12.261l-16.071,21.392   C441.53,37.699,438.902,38.907,436.243,38.907z"/>
	<path style="fill:#9FDEF7;" d="M399.411,87.932c-1.831,0-3.676-0.57-5.253-1.756c-3.866-2.904-4.647-8.395-1.743-12.261   l16.071-21.394c2.905-3.867,8.395-4.647,12.261-1.743c3.866,2.904,4.647,8.395,1.743,12.261l-16.071,21.394   C404.698,86.725,402.071,87.932,399.411,87.932z"/>
	<path style="fill:#9FDEF7;" d="M362.578,136.957c-1.831,0-3.677-0.57-5.254-1.756c-3.866-2.904-4.645-8.395-1.74-12.261   l16.073-21.393c2.906-3.865,8.396-4.647,12.262-1.74c3.866,2.904,4.646,8.395,1.739,12.261l-16.073,21.393   C367.865,135.751,365.236,136.957,362.578,136.957z"/>
	<path style="fill:#9FDEF7;" d="M365.75,38.907c-1.831,0-3.677-0.572-5.254-1.756c-3.866-2.904-4.645-8.395-1.74-12.261   l16.073-21.392c2.904-3.865,8.393-4.644,12.261-1.74c3.866,2.904,4.645,8.395,1.74,12.261l-16.072,21.392   C371.037,37.699,368.41,38.907,365.75,38.907z"/>
	<path style="fill:#9FDEF7;" d="M328.92,87.932c-1.831,0-3.677-0.57-5.253-1.756c-3.867-2.904-4.647-8.395-1.743-12.261   l16.071-21.394c2.905-3.867,8.393-4.647,12.261-1.743c3.867,2.904,4.647,8.395,1.743,12.261l-16.071,21.394   C334.207,86.725,331.58,87.932,328.92,87.932z"/>
	<path style="fill:#9FDEF7;" d="M292.086,136.957c-1.831,0-3.677-0.57-5.254-1.756c-3.866-2.905-4.645-8.395-1.743-12.261   l16.073-21.393c2.905-3.867,8.396-4.648,12.261-1.743c3.867,2.905,4.647,8.395,1.743,12.261l-16.073,21.393   C297.374,135.751,294.746,136.957,292.086,136.957z"/>
	<path style="fill:#9FDEF7;" d="M295.26,38.907c-1.831,0-3.677-0.57-5.254-1.756c-3.866-2.905-4.646-8.395-1.74-12.262   l16.071-21.392c2.905-3.865,8.393-4.647,12.262-1.742c3.866,2.905,4.645,8.395,1.742,12.262l-16.073,21.393   C300.546,37.699,297.919,38.907,295.26,38.907z"/>
	<path style="fill:#9FDEF7;" d="M258.426,87.932c-1.831,0-3.677-0.57-5.253-1.756c-3.867-2.905-4.647-8.395-1.743-12.262   l16.073-21.394c2.905-3.866,8.396-4.647,12.261-1.742c3.867,2.905,4.647,8.395,1.743,12.262l-16.073,21.394   C263.714,86.725,261.086,87.932,258.426,87.932z"/>
	<path style="fill:#9FDEF7;" d="M225.199,38.907c-1.831,0-3.677-0.57-5.254-1.756c-3.866-2.905-4.646-8.395-1.742-12.262   l16.073-21.392c2.904-3.865,8.393-4.647,12.261-1.742c3.866,2.905,4.646,8.395,1.74,12.262l-16.071,21.393   C230.486,37.699,227.859,38.907,225.199,38.907z"/>
	<path style="fill:#9FDEF7;" d="M188.368,87.932c-1.831,0-3.677-0.57-5.253-1.756c-3.867-2.904-4.647-8.395-1.743-12.261   l16.071-21.394c2.905-3.867,8.395-4.647,12.261-1.743c3.867,2.904,4.647,8.395,1.743,12.261l-16.071,21.395   C193.655,86.725,191.027,87.932,188.368,87.932z"/>
	<path style="fill:#9FDEF7;" d="M151.535,136.957c-1.831,0-3.677-0.57-5.254-1.756c-3.866-2.905-4.646-8.395-1.742-12.261   l16.072-21.393c2.905-3.867,8.395-4.648,12.261-1.743c3.867,2.905,4.647,8.395,1.743,12.261l-16.072,21.393   C156.822,135.751,154.195,136.957,151.535,136.957z"/>
	<path style="fill:#9FDEF7;" d="M154.388,38.907c-1.831,0-3.677-0.57-5.255-1.756c-3.865-2.905-4.644-8.395-1.74-12.262   l16.073-21.392c2.904-3.865,8.393-4.647,12.261-1.742c3.866,2.905,4.645,8.395,1.74,12.262l-16.071,21.393   C159.675,37.699,157.047,38.907,154.388,38.907z"/>
	<path style="fill:#9FDEF7;" d="M117.556,87.932c-1.831,0-3.677-0.57-5.253-1.756c-3.867-2.904-4.647-8.395-1.743-12.261   l16.071-21.394c2.905-3.867,8.395-4.647,12.261-1.743c3.867,2.904,4.647,8.395,1.743,12.261l-16.071,21.394   C122.843,86.725,120.216,87.932,117.556,87.932z"/>
	<path style="fill:#9FDEF7;" d="M80.724,136.957c-1.831,0-3.677-0.57-5.254-1.756c-3.866-2.905-4.646-8.395-1.742-12.261   L89.8,101.548c2.905-3.867,8.396-4.648,12.261-1.743c3.867,2.905,4.647,8.395,1.743,12.261l-16.072,21.393   C86.01,135.751,83.382,136.957,80.724,136.957z"/>
</g>
<path style="fill:#ED5145;" d="M178.62,291.555c0.986,0.056,1.965,0.134,2.938,0.236c0.037,0.002,0.073,0.008,0.109,0.012  c10.608,1.134,20.376,5.069,28.555,11.053c0.07,0.05,0.141,0.102,0.209,0.154c0.761,0.562,1.507,1.137,2.238,1.733  c0.115,0.094,0.229,0.19,0.344,0.285c0.709,0.589,1.41,1.187,2.092,1.805c0.092,0.083,0.181,0.171,0.273,0.254  c0.61,0.562,1.206,1.134,1.791,1.72c0.131,0.132,0.266,0.262,0.396,0.395c0.611,0.621,1.204,1.26,1.785,1.908  c0.084,0.093,0.175,0.182,0.261,0.277c1.206,1.362,2.941,2.142,4.763,2.142V147.827c-0.012,0-0.023,0-0.033,0  c-1.305,0.001-2.605,0.018-3.901,0.045c-80.877,1.825-151.738,59.678-169.365,138.91c-0.494,2.223,0.238,4.542,1.916,6.081  c1.659,1.518,3.995,2.044,6.144,1.393c3.564-1.137,7.274-1.943,11.094-2.391c0.092-0.011,0.184-0.021,0.276-0.031  c0.601-0.067,1.204-0.124,1.809-0.173c0.169-0.015,0.339-0.028,0.508-0.04c0.547-0.039,1.097-0.07,1.648-0.095  c0.182-0.008,0.363-0.019,0.545-0.026c0.709-0.024,1.422-0.04,2.136-0.04c0.98,0,1.951,0.032,2.918,0.078  c0.135,0.007,0.267,0.013,0.401,0.02c0.986,0.056,1.967,0.134,2.939,0.236c0.035,0.002,0.071,0.008,0.106,0.012  c10.608,1.134,20.376,5.069,28.556,11.052c0.07,0.051,0.142,0.104,0.212,0.155c0.759,0.562,1.506,1.136,2.235,1.731  c0.117,0.096,0.232,0.193,0.348,0.29c0.707,0.586,1.405,1.182,2.086,1.801c0.096,0.088,0.188,0.18,0.285,0.266  c0.603,0.555,1.194,1.123,1.773,1.703c0.136,0.137,0.275,0.269,0.409,0.407c0.608,0.618,1.197,1.253,1.775,1.897  c0.086,0.096,0.18,0.186,0.264,0.284c1.21,1.362,2.943,2.142,4.766,2.142c1.821,0,3.555-0.78,4.765-2.142  c0.084-0.095,0.174-0.184,0.258-0.277c0.582-0.648,1.176-1.287,1.784-1.907c0.132-0.135,0.268-0.264,0.4-0.396  c0.586-0.586,1.182-1.16,1.792-1.72c0.09-0.083,0.18-0.171,0.271-0.253c0.682-0.62,1.384-1.22,2.095-1.808  c0.114-0.093,0.224-0.188,0.338-0.279c0.733-0.599,1.482-1.177,2.243-1.739c0.068-0.049,0.137-0.1,0.205-0.15  c8.18-5.985,17.949-9.92,28.56-11.054c0.036-0.004,0.071-0.01,0.107-0.012c0.973-0.103,1.952-0.181,2.939-0.236  c0.134-0.007,0.268-0.013,0.402-0.02c0.968-0.046,1.937-0.078,2.917-0.078c0.979,0,1.949,0.032,2.916,0.078  C178.351,291.543,178.486,291.549,178.62,291.555z"/>
<path style="fill:#F9A83D;" d="M374.279,291.525c0.552,0.025,1.101,0.056,1.651,0.095c0.167,0.012,0.337,0.025,0.505,0.04  c0.607,0.049,1.212,0.107,1.813,0.173c0.091,0.011,0.182,0.02,0.271,0.031c3.822,0.447,7.533,1.253,11.098,2.391  c2.148,0.65,4.483,0.124,6.142-1.393c1.68-1.538,2.41-3.856,1.916-6.081c-17.63-79.232-88.488-137.085-169.363-138.91  c-1.309-0.027-2.622-0.045-3.938-0.045c0,0,0,0-0.001,0V313.53c0.001,0,0.001,0,0.001,0c1.821,0,3.556-0.78,4.764-2.142  c0.084-0.095,0.174-0.184,0.259-0.277c0.581-0.648,1.175-1.287,1.783-1.907c0.132-0.135,0.267-0.264,0.4-0.396  c0.586-0.586,1.182-1.16,1.792-1.72c0.09-0.083,0.18-0.171,0.27-0.253c0.683-0.62,1.385-1.22,2.096-1.808  c0.114-0.093,0.224-0.188,0.338-0.279c0.733-0.599,1.482-1.177,2.243-1.739c0.068-0.049,0.137-0.1,0.205-0.15  c8.18-5.985,17.949-9.92,28.56-11.054c0.035-0.004,0.07-0.01,0.107-0.012c0.973-0.103,1.952-0.181,2.939-0.236  c0.134-0.007,0.268-0.013,0.401-0.02c0.969-0.046,1.939-0.078,2.918-0.078s1.949,0.032,2.916,0.078  c0.136,0.007,0.269,0.013,0.403,0.02c0.986,0.056,1.966,0.134,2.938,0.236c0.036,0.002,0.072,0.008,0.109,0.012  c10.609,1.134,20.378,5.069,28.558,11.054c0.068,0.05,0.136,0.101,0.204,0.15c0.762,0.563,1.511,1.141,2.244,1.737  c0.114,0.093,0.224,0.187,0.338,0.28c0.711,0.589,1.413,1.189,2.097,1.809c0.09,0.082,0.177,0.17,0.268,0.252  c0.611,0.559,1.207,1.134,1.792,1.72c0.132,0.131,0.268,0.263,0.4,0.396c0.609,0.62,1.201,1.257,1.78,1.901  c0.086,0.096,0.177,0.185,0.263,0.281c1.21,1.364,2.944,2.144,4.766,2.144s3.555-0.78,4.765-2.144  c0.082-0.093,0.172-0.178,0.255-0.271c0.585-0.651,1.18-1.292,1.794-1.917c0.126-0.128,0.255-0.254,0.383-0.381  c0.594-0.593,1.199-1.176,1.817-1.745c0.083-0.078,0.164-0.158,0.25-0.233c0.689-0.626,1.395-1.231,2.113-1.825  c0.106-0.086,0.212-0.177,0.321-0.264c0.738-0.603,1.49-1.182,2.255-1.75c0.065-0.045,0.127-0.092,0.19-0.138  c8.182-5.987,17.954-9.925,28.566-11.059c0.036-0.004,0.071-0.01,0.108-0.012c0.973-0.103,1.952-0.181,2.937-0.236  c0.135-0.007,0.269-0.013,0.404-0.02c0.967-0.046,1.937-0.078,2.916-0.078c0.715,0,1.426,0.016,2.138,0.04  C373.916,291.506,374.097,291.517,374.279,291.525z"/>
<path style="fill:#F29F26;" d="M224.336,147.828c-0.738,0-1.473,0.02-2.208,0.055c-0.268,0.014-0.535,0.041-0.802,0.058  c-0.477,0.033-0.953,0.062-1.428,0.108c-0.319,0.03-0.634,0.076-0.949,0.115c-0.426,0.05-0.848,0.096-1.271,0.159  c-0.338,0.05-0.674,0.113-1.013,0.17c-0.397,0.067-0.797,0.131-1.194,0.209c-0.348,0.069-0.696,0.148-1.044,0.225  c-0.383,0.083-0.765,0.165-1.148,0.259c-0.355,0.086-0.708,0.184-1.063,0.279c-0.372,0.1-0.744,0.199-1.114,0.308  c-0.36,0.107-0.718,0.222-1.077,0.337c-0.362,0.115-0.724,0.231-1.085,0.355c-0.362,0.124-0.725,0.257-1.086,0.391  c-0.355,0.13-0.709,0.263-1.063,0.403c-0.365,0.142-0.728,0.294-1.09,0.445c-0.348,0.146-0.695,0.294-1.041,0.447  c-0.366,0.162-0.73,0.331-1.095,0.502c-0.342,0.16-0.681,0.323-1.022,0.49c-0.366,0.183-0.732,0.367-1.097,0.557  c-0.334,0.174-0.667,0.352-0.999,0.532c-0.369,0.202-0.737,0.404-1.102,0.616c-0.327,0.186-0.651,0.377-0.975,0.57  c-0.372,0.22-0.742,0.442-1.112,0.672c-0.315,0.199-0.632,0.403-0.947,0.606c-0.373,0.243-0.745,0.483-1.117,0.736  c-0.309,0.207-0.615,0.424-0.924,0.638c-0.375,0.263-0.75,0.525-1.123,0.796c-0.298,0.218-0.593,0.441-0.89,0.664  c-0.381,0.285-0.759,0.569-1.137,0.865c-0.285,0.222-0.567,0.453-0.849,0.68c-0.386,0.311-0.774,0.62-1.158,0.941  c-0.265,0.221-0.528,0.451-0.79,0.674c-0.401,0.343-0.802,0.685-1.201,1.038c-0.233,0.209-0.464,0.425-0.695,0.636  c-0.426,0.385-0.85,0.768-1.272,1.168c-0.163,0.154-0.325,0.315-0.487,0.471c-2.245,2.152-4.448,4.482-6.609,6.979  c-0.149,0.172-0.299,0.338-0.448,0.512c-0.426,0.499-0.848,1.013-1.272,1.525c-0.195,0.236-0.39,0.466-0.583,0.706  c-0.402,0.495-0.801,1.003-1.201,1.511c-0.21,0.266-0.421,0.528-0.632,0.799c-0.385,0.5-0.768,1.009-1.152,1.519  c-0.219,0.293-0.439,0.582-0.66,0.878c-0.373,0.507-0.744,1.022-1.117,1.539c-0.222,0.311-0.446,0.62-0.668,0.935  c-0.365,0.518-0.726,1.042-1.087,1.57c-0.227,0.328-0.451,0.657-0.675,0.988c-0.355,0.525-0.708,1.062-1.062,1.599  c-0.224,0.343-0.45,0.685-0.674,1.032c-0.348,0.541-0.696,1.088-1.041,1.64c-0.223,0.354-0.445,0.709-0.668,1.067  c-0.344,0.557-0.685,1.118-1.026,1.685c-0.22,0.366-0.438,0.73-0.657,1.099c-0.339,0.572-0.676,1.15-1.013,1.731  c-0.215,0.373-0.431,0.748-0.643,1.125c-0.336,0.589-0.669,1.182-1,1.781c-0.209,0.379-0.419,0.762-0.628,1.146  c-0.222,0.41-0.444,0.824-0.666,1.239l-10.113,21.651c-0.117,0.285-0.235,0.569-0.35,0.855c-0.512,1.268-1.02,2.546-1.518,3.841  c-0.126,0.323-0.252,0.649-0.377,0.976c-0.502,1.312-0.997,2.641-1.485,3.983c-0.185,0.505-0.368,1.013-0.552,1.523  c-0.444,1.239-0.883,2.485-1.317,3.745c-0.109,0.321-0.222,0.634-0.332,0.956c-0.513,1.507-1.016,3.033-1.514,4.569  c-0.166,0.518-0.333,1.037-0.498,1.558c-0.395,1.245-0.786,2.498-1.171,3.762c-0.121,0.401-0.247,0.798-0.368,1.203  c-0.476,1.578-0.94,3.174-1.399,4.779c-0.146,0.51-0.289,1.023-0.431,1.534c-0.361,1.288-0.718,2.584-1.067,3.888  c-0.122,0.454-0.246,0.903-0.366,1.358c-0.436,1.65-0.864,3.317-1.283,4.995c-0.122,0.488-0.242,0.981-0.361,1.472  c-0.331,1.345-0.655,2.7-0.975,4.063c-0.114,0.493-0.231,0.98-0.344,1.473c-0.397,1.728-0.785,3.467-1.164,5.219  c-0.095,0.438-0.187,0.883-0.279,1.323c-0.306,1.439-0.608,2.888-0.9,4.343c-0.103,0.509-0.206,1.018-0.305,1.528  c-0.358,1.807-0.705,3.623-1.043,5.453c-0.066,0.355-0.128,0.714-0.193,1.069c-0.285,1.567-0.56,3.14-0.831,4.722  c-0.089,0.52-0.176,1.038-0.264,1.559c-0.314,1.887-0.62,3.782-0.914,5.692c-0.033,0.217-0.066,0.436-0.097,0.656  c-0.265,1.74-0.52,3.493-0.765,5.253c-0.074,0.519-0.147,1.039-0.218,1.56c-0.107,0.782-0.205,1.572-0.308,2.353  c1.761-0.043,3.432-0.811,4.604-2.132c0.048-0.054,0.1-0.103,0.147-0.158c0.639-0.713,1.292-1.414,1.963-2.098  c0.06-0.059,0.119-0.117,0.18-0.177c0.693-0.697,1.402-1.381,2.129-2.044c0.008-0.007,0.015-0.015,0.023-0.021  c0.742-0.678,1.505-1.332,2.28-1.969c0.049-0.039,0.096-0.081,0.143-0.119c0.785-0.64,1.586-1.26,2.403-1.86  c0.011-0.008,0.02-0.016,0.03-0.022c8.204-6.025,18.014-9.984,28.669-11.12c0.023-0.003,0.049-0.007,0.073-0.008  c0.98-0.104,1.966-0.183,2.959-0.238c0.129-0.007,0.258-0.013,0.387-0.02c0.969-0.046,1.941-0.078,2.923-0.078c0,0,0.001,0,0.002,0  h0.002c0.98,0,1.949,0.032,2.916,0.078c0.135,0.007,0.269,0.013,0.403,0.02c0.986,0.056,1.966,0.134,2.939,0.236  c0.036,0.002,0.071,0.008,0.107,0.012c10.608,1.134,20.376,5.069,28.556,11.053c0.07,0.05,0.141,0.102,0.209,0.154  c0.761,0.562,1.507,1.137,2.241,1.734c0.114,0.093,0.227,0.188,0.342,0.284c0.71,0.587,1.411,1.187,2.093,1.806  c0.092,0.082,0.181,0.17,0.271,0.253c0.611,0.562,1.207,1.134,1.792,1.72c0.131,0.132,0.266,0.262,0.396,0.395  c0.612,0.621,1.205,1.26,1.787,1.909c0.083,0.093,0.174,0.181,0.258,0.276c1.208,1.362,2.942,2.142,4.764,2.142V147.827  c0,0,0,0-0.001,0C224.36,147.827,224.349,147.828,224.336,147.828z"/>
<path style="fill:#ED5145;" d="M224.373,313.53h0.001c1.821,0,3.556-0.78,4.764-2.142c0.091-0.103,0.188-0.198,0.279-0.3  c0.572-0.635,1.155-1.262,1.754-1.872c0.144-0.148,0.293-0.291,0.438-0.435c0.567-0.566,1.143-1.12,1.731-1.664  c0.106-0.096,0.208-0.197,0.315-0.296c0.672-0.61,1.363-1.2,2.063-1.779c0.124-0.105,0.248-0.208,0.374-0.31  c0.722-0.588,1.46-1.16,2.212-1.714c0.079-0.058,0.159-0.115,0.238-0.174c8.176-5.977,17.937-9.908,28.539-11.042  c0.038-0.004,0.077-0.01,0.114-0.012c0.972-0.103,1.948-0.181,2.935-0.235c0.135-0.008,0.269-0.014,0.405-0.021  c0.965-0.046,1.936-0.078,2.914-0.078h0.001l0,0l0,0c0.98,0,1.951,0.032,2.918,0.078c0.135,0.007,0.267,0.013,0.4,0.02  c0.987,0.056,1.968,0.134,2.941,0.236c0.034,0.002,0.069,0.008,0.103,0.012c10.617,1.134,20.396,5.074,28.579,11.065  c0.058,0.042,0.115,0.083,0.171,0.125c0.772,0.569,1.53,1.157,2.272,1.76c0.103,0.082,0.203,0.166,0.303,0.25  c0.722,0.599,1.436,1.208,2.129,1.839c0.074,0.07,0.15,0.141,0.224,0.209c0.63,0.58,1.248,1.173,1.852,1.78  c0.119,0.119,0.242,0.236,0.36,0.359c0.62,0.628,1.22,1.276,1.812,1.934c0.08,0.089,0.163,0.171,0.243,0.259  c1.173,1.322,2.842,2.09,4.603,2.134c-4.535-34.391-12.464-65.445-22.92-91.117l-10.248-21.936  c-17.645-32.897-40.216-52.641-64.818-52.641c-0.001,0-0.001,0-0.002,0h-0.001V313.53H224.373z"/>
<path style="fill:#F9A83D;" d="M224.374,266.592V147.827c0,0,0,0-0.001,0c-0.013,0-0.025,0.001-0.037,0.001  c-0.738,0-1.473,0.02-2.208,0.055c-0.268,0.014-0.535,0.041-0.802,0.058c-0.477,0.033-0.953,0.062-1.428,0.108  c-0.319,0.03-0.634,0.076-0.949,0.115c-0.426,0.05-0.848,0.096-1.271,0.159c-0.338,0.05-0.674,0.113-1.013,0.17  c-0.397,0.067-0.797,0.131-1.194,0.209c-0.348,0.069-0.696,0.148-1.044,0.225c-0.383,0.083-0.765,0.165-1.148,0.259  c-0.355,0.086-0.708,0.184-1.063,0.279c-0.372,0.1-0.744,0.199-1.114,0.308c-0.36,0.107-0.718,0.222-1.077,0.337  c-0.362,0.115-0.724,0.231-1.085,0.355c-0.362,0.124-0.725,0.257-1.086,0.391c-0.355,0.13-0.709,0.263-1.063,0.403  c-0.365,0.142-0.728,0.294-1.09,0.445c-0.348,0.146-0.695,0.294-1.041,0.447c-0.366,0.162-0.73,0.331-1.095,0.502  c-0.342,0.16-0.681,0.323-1.022,0.49c-0.366,0.183-0.732,0.367-1.097,0.557c-0.319,0.166-0.637,0.337-0.954,0.509  c-2.151,9.686-3.295,19.752-3.295,30.085C197.196,215.13,207.3,243.603,224.374,266.592z"/>
<path style="fill:#F75F57;" d="M289.194,200.467c-17.645-32.897-40.216-52.641-64.818-52.641c-0.001,0-0.001,0-0.002,0h-0.001  v118.765c8.057,10.85,17.667,20.479,28.502,28.555c4.503-1.669,9.261-2.813,14.206-3.343c0.038-0.004,0.077-0.01,0.114-0.012  c0.972-0.103,1.948-0.181,2.935-0.235c0.135-0.008,0.269-0.014,0.405-0.021c0.965-0.046,1.936-0.078,2.914-0.078h0.001l0,0  c0.98,0,1.951,0.032,2.918,0.078c0.135,0.007,0.267,0.013,0.4,0.02c0.987,0.056,1.968,0.134,2.941,0.236  c0.034,0.002,0.069,0.008,0.103,0.012c10.617,1.134,20.396,5.074,28.579,11.065c0.058,0.042,0.115,0.083,0.171,0.125  c0.772,0.569,1.53,1.157,2.272,1.76c0.103,0.082,0.203,0.166,0.303,0.25c0.722,0.599,1.436,1.208,2.129,1.839  c0.074,0.07,0.15,0.141,0.224,0.209c0.63,0.58,1.248,1.173,1.852,1.78c0.119,0.119,0.242,0.236,0.36,0.359  c0.62,0.628,1.22,1.276,1.812,1.934c0.08,0.089,0.163,0.171,0.243,0.259c1.173,1.322,2.842,2.09,4.603,2.134  c-4.535-34.391-12.464-65.445-22.92-91.117L289.194,200.467z"/>
<g>
</g>
<g>
</g>
<g>
</g>
<g>
</g>
<g>
</g>
<g>
</g>
<g>
</g>
<g>
</g>
<g>
</g>
<g>
</g>
<g>
</g>
<g>
</g>
<g>
</g>
<g>
</g>
<g>
</g>
</svg>
