<?xml version="1.0" encoding="iso-8859-1"?>
<!-- Generator: Adobe Illustrator 19.0.0, SVG Export Plug-In . SVG Version: 6.00 Build 0)  -->
<svg xmlns="http://www.w3.org/2000/svg" xmlns:xlink="http://www.w3.org/1999/xlink" version="1.1" id="Layer_1" x="0px" y="0px" viewBox="0 0 512.001 512.001" style="enable-background:new 0 0 512.001 512.001;" xml:space="preserve">
<g>
	<path style="fill:#CCCCCC;" d="M256.001,55.837c5.502,0,10.953,4.425,16.351,4.827V15.839c0-8.75-7.089-15.839-15.839-15.839   h-1.024c-8.749,0-15.839,7.089-15.839,15.839v44.359C245.047,59.796,250.5,55.837,256.001,55.837z"/>
	<path style="fill:#CCCCCC;" d="M273.929,266.477v-73.446c-6.949,7.02-13.029,15.492-17.928,25.13   c-4.899-9.639-10.978-18.11-17.928-25.131v235.139h35.856V308.806"/>
</g>
<path style="fill:#ED5145;" d="M199.948,231.918c1.207,0.068,2.407,0.164,3.599,0.29c0.045,0.004,0.089,0.01,0.134,0.014  c12.995,1.391,24.963,6.21,34.982,13.54c0.086,0.062,0.172,0.125,0.257,0.188c0.931,0.688,1.846,1.394,2.742,2.123  c0.142,0.116,0.281,0.234,0.421,0.35c0.869,0.72,1.727,1.454,2.562,2.211c0.113,0.103,0.222,0.21,0.333,0.312  c0.746,0.687,1.477,1.39,2.193,2.108c0.162,0.163,0.327,0.32,0.487,0.484c0.747,0.761,1.473,1.544,2.187,2.337  c0.104,0.116,0.214,0.223,0.318,0.34c1.48,1.67,3.604,2.625,5.836,2.625V55.837c-0.014,0-0.028,0-0.041,0  c-1.599,0.001-3.191,0.021-4.781,0.056c-99.08,2.236-185.891,73.111-207.486,170.178c-0.606,2.724,0.289,5.564,2.346,7.448  c2.033,1.861,4.894,2.504,7.527,1.707c4.366-1.393,8.91-2.382,13.591-2.927c0.113-0.014,0.226-0.025,0.338-0.038  c0.736-0.082,1.474-0.154,2.216-0.213c0.207-0.018,0.415-0.035,0.622-0.05c0.671-0.048,1.344-0.086,2.019-0.116  c0.223-0.01,0.445-0.023,0.668-0.031c0.869-0.03,1.742-0.05,2.619-0.05c1.199,0,2.388,0.038,3.574,0.096  c0.164,0.008,0.328,0.014,0.491,0.023c1.208,0.068,2.408,0.164,3.6,0.29c0.043,0.004,0.087,0.01,0.129,0.014  c12.996,1.39,24.964,6.21,34.984,13.539c0.087,0.064,0.174,0.127,0.261,0.191c0.929,0.687,1.843,1.392,2.739,2.121  c0.143,0.117,0.283,0.236,0.426,0.353c0.867,0.718,1.723,1.449,2.556,2.206c0.118,0.107,0.232,0.217,0.349,0.325  c0.739,0.68,1.462,1.376,2.173,2.086c0.166,0.166,0.337,0.33,0.5,0.498c0.743,0.758,1.467,1.535,2.177,2.325  c0.106,0.117,0.22,0.227,0.324,0.347c1.481,1.67,3.605,2.625,5.837,2.625s4.357-0.955,5.837-2.625  c0.103-0.117,0.214-0.224,0.318-0.34c0.713-0.792,1.439-1.575,2.186-2.336c0.162-0.164,0.328-0.323,0.489-0.486  c0.717-0.718,1.448-1.42,2.193-2.108c0.111-0.103,0.22-0.21,0.332-0.31c0.837-0.76,1.695-1.496,2.568-2.216  c0.138-0.115,0.275-0.231,0.415-0.343c0.898-0.731,1.814-1.44,2.747-2.129c0.084-0.061,0.167-0.123,0.252-0.184  c10.022-7.331,21.99-12.153,34.989-13.542c0.043-0.004,0.087-0.01,0.13-0.014c1.191-0.125,2.392-0.222,3.6-0.29  c0.164-0.009,0.328-0.016,0.491-0.023c1.185-0.058,2.375-0.096,3.574-0.096c1.199,0,2.389,0.038,3.574,0.096  C199.619,231.902,199.783,231.909,199.948,231.918z"/>
<path style="fill:#F9A83D;" d="M439.65,231.881c0.675,0.03,1.35,0.069,2.022,0.116c0.206,0.016,0.411,0.032,0.619,0.05  c0.744,0.06,1.485,0.13,2.22,0.213c0.111,0.013,0.222,0.023,0.333,0.037c4.682,0.546,9.229,1.535,13.596,2.928  c2.631,0.797,5.492,0.153,7.525-1.707c2.058-1.884,2.952-4.723,2.346-7.448C446.712,129.001,359.903,58.126,260.825,55.891  c-1.604-0.035-3.212-0.056-4.824-0.056H256v203.002h0.001c2.231,0,4.357-0.955,5.837-2.625c0.103-0.117,0.213-0.224,0.318-0.34  c0.713-0.792,1.439-1.575,2.186-2.336c0.16-0.164,0.327-0.323,0.489-0.486c0.717-0.718,1.448-1.42,2.193-2.108  c0.113-0.103,0.218-0.21,0.332-0.31c0.837-0.76,1.695-1.496,2.569-2.216c0.137-0.115,0.274-0.231,0.413-0.343  c0.898-0.731,1.816-1.44,2.747-2.129c0.085-0.061,0.167-0.123,0.253-0.184c10.019-7.331,21.989-12.153,34.989-13.542  c0.043-0.004,0.087-0.01,0.13-0.014c1.191-0.125,2.392-0.222,3.599-0.29c0.164-0.009,0.329-0.016,0.493-0.023  c1.185-0.058,2.375-0.096,3.574-0.096c1.198,0,2.389,0.038,3.573,0.096c0.165,0.008,0.329,0.014,0.494,0.023  c1.207,0.068,2.406,0.164,3.599,0.29c0.043,0.004,0.088,0.01,0.134,0.014c12.997,1.391,24.966,6.211,34.989,13.542  c0.082,0.061,0.165,0.121,0.249,0.183c0.934,0.689,1.85,1.398,2.75,2.129c0.138,0.114,0.275,0.228,0.413,0.343  c0.872,0.72,1.732,1.457,2.569,2.217c0.111,0.101,0.22,0.207,0.33,0.308c0.747,0.687,1.477,1.391,2.196,2.108  c0.163,0.163,0.329,0.322,0.489,0.487c0.744,0.76,1.469,1.539,2.181,2.33c0.105,0.117,0.217,0.226,0.322,0.346  c1.481,1.67,3.605,2.625,5.837,2.625c2.232,0,4.357-0.955,5.837-2.625c0.101-0.115,0.211-0.22,0.312-0.334  c0.717-0.797,1.447-1.583,2.198-2.348c0.155-0.158,0.313-0.31,0.469-0.466c0.727-0.727,1.468-1.441,2.226-2.138  c0.104-0.095,0.204-0.193,0.306-0.286c0.843-0.767,1.709-1.508,2.587-2.233c0.132-0.108,0.261-0.218,0.393-0.325  c0.903-0.737,1.827-1.449,2.764-2.142c0.078-0.057,0.155-0.114,0.233-0.169c10.022-7.335,21.994-12.158,34.995-13.549  c0.043-0.004,0.087-0.01,0.132-0.014c1.191-0.125,2.391-0.222,3.599-0.29c0.163-0.009,0.329-0.016,0.493-0.023  c1.186-0.058,2.374-0.096,3.573-0.096c0.877,0,1.749,0.02,2.619,0.05C439.205,231.858,439.427,231.871,439.65,231.881z"/>
<path style="fill:#F29F26;" d="M255.954,55.838c-0.905,0.001-1.807,0.023-2.705,0.068c-0.329,0.017-0.656,0.049-0.985,0.07  c-0.583,0.039-1.167,0.075-1.749,0.132c-0.389,0.038-0.777,0.093-1.164,0.139c-0.519,0.061-1.039,0.118-1.556,0.195  c-0.415,0.061-0.826,0.137-1.239,0.207c-0.488,0.082-0.976,0.163-1.463,0.257c-0.427,0.084-0.854,0.182-1.281,0.275  c-0.469,0.104-0.937,0.204-1.404,0.318c-0.436,0.107-0.869,0.226-1.303,0.344c-0.456,0.121-0.911,0.244-1.365,0.377  c-0.441,0.13-0.88,0.272-1.321,0.412c-0.444,0.142-0.887,0.283-1.328,0.436c-0.445,0.153-0.888,0.315-1.331,0.479  c-0.435,0.16-0.868,0.322-1.302,0.493c-0.446,0.175-0.892,0.359-1.336,0.546c-0.426,0.178-0.851,0.359-1.276,0.548  c-0.447,0.198-0.894,0.403-1.341,0.614c-0.418,0.196-0.835,0.396-1.252,0.602c-0.449,0.222-0.898,0.449-1.345,0.682  c-0.409,0.213-0.816,0.431-1.224,0.653c-0.451,0.246-0.902,0.495-1.351,0.752c-0.399,0.228-0.797,0.463-1.194,0.7  c-0.455,0.27-0.907,0.543-1.361,0.825c-0.388,0.243-0.775,0.492-1.161,0.742c-0.457,0.296-0.913,0.592-1.367,0.899  c-0.378,0.255-0.755,0.52-1.131,0.783c-0.46,0.321-0.919,0.642-1.376,0.975c-0.364,0.265-0.727,0.539-1.09,0.812  c-0.466,0.349-0.931,0.698-1.394,1.059c-0.349,0.272-0.694,0.555-1.041,0.834c-0.474,0.381-0.948,0.76-1.42,1.154  c-0.323,0.27-0.645,0.552-0.967,0.827c-0.49,0.42-0.982,0.838-1.469,1.272c-0.285,0.255-0.568,0.519-0.853,0.778  c-0.52,0.473-1.041,0.943-1.558,1.431c-0.199,0.188-0.398,0.387-0.596,0.578c-2.751,2.636-5.452,5.489-8.098,8.549  c-0.182,0.211-0.366,0.415-0.547,0.627c-0.522,0.612-1.04,1.24-1.558,1.868c-0.239,0.29-0.478,0.572-0.715,0.864  c-0.493,0.606-0.983,1.229-1.472,1.85c-0.256,0.327-0.515,0.649-0.771,0.98c-0.474,0.612-0.943,1.235-1.412,1.86  c-0.269,0.358-0.539,0.713-0.807,1.075c-0.458,0.621-0.913,1.253-1.368,1.886c-0.273,0.381-0.547,0.759-0.819,1.143  c-0.446,0.633-0.889,1.277-1.333,1.924c-0.275,0.401-0.552,0.802-0.826,1.209c-0.436,0.646-0.869,1.302-1.302,1.96  c-0.275,0.42-0.551,0.84-0.825,1.265c-0.428,0.664-0.854,1.334-1.277,2.009c-0.273,0.435-0.546,0.869-0.817,1.308  c-0.42,0.681-0.839,1.37-1.256,2.063c-0.27,0.447-0.537,0.896-0.805,1.347c-0.415,0.701-0.828,1.408-1.239,2.12  c-0.263,0.457-0.526,0.916-0.788,1.378c-0.41,0.721-0.818,1.449-1.224,2.181c-0.257,0.466-0.514,0.935-0.769,1.405  c-0.274,0.503-0.546,1.009-0.817,1.517l-12.391,26.525c-0.143,0.349-0.286,0.698-0.428,1.048c-0.627,1.554-1.248,3.119-1.861,4.705  c-0.154,0.397-0.306,0.796-0.459,1.195c-0.615,1.609-1.221,3.238-1.821,4.879c-0.226,0.62-0.451,1.242-0.674,1.866  c-0.545,1.517-1.082,3.045-1.614,4.588c-0.135,0.392-0.273,0.777-0.407,1.17c-0.629,1.847-1.245,3.716-1.855,5.597  c-0.205,0.633-0.407,1.271-0.61,1.907c-0.485,1.525-0.964,3.062-1.435,4.61c-0.15,0.49-0.303,0.979-0.451,1.472  c-0.583,1.934-1.152,3.888-1.714,5.857c-0.178,0.623-0.353,1.253-0.529,1.879c-0.442,1.577-0.878,3.165-1.306,4.762  c-0.148,0.554-0.3,1.104-0.448,1.662c-0.535,2.024-1.058,4.065-1.571,6.121c-0.149,0.597-0.295,1.201-0.442,1.802  c-0.405,1.649-0.802,3.31-1.194,4.98c-0.14,0.602-0.283,1.2-0.422,1.804c-0.486,2.115-0.962,4.246-1.425,6.393  c-0.117,0.537-0.228,1.082-0.343,1.623c-0.374,1.763-0.742,3.536-1.101,5.32c-0.126,0.624-0.253,1.246-0.376,1.871  c-0.438,2.213-0.865,4.439-1.277,6.683c-0.08,0.435-0.156,0.874-0.235,1.31c-0.349,1.919-0.687,3.847-1.018,5.785  c-0.108,0.635-0.216,1.272-0.323,1.909c-0.386,2.311-0.761,4.633-1.12,6.972c-0.041,0.266-0.079,0.536-0.119,0.804  c-0.324,2.133-0.636,4.28-0.938,6.434c-0.089,0.636-0.178,1.274-0.265,1.912c-0.132,0.956-0.253,1.924-0.379,2.884  c2.159-0.055,4.204-0.994,5.642-2.615c0.058-0.066,0.12-0.126,0.179-0.192c0.782-0.875,1.581-1.734,2.405-2.57  c0.072-0.074,0.146-0.145,0.218-0.217c0.849-0.856,1.719-1.693,2.609-2.505c0.009-0.009,0.018-0.018,0.027-0.026  c0.909-0.829,1.843-1.631,2.794-2.412c0.059-0.048,0.117-0.098,0.176-0.146c0.96-0.785,1.943-1.545,2.943-2.28  c0.012-0.009,0.023-0.018,0.036-0.027c10.051-7.38,22.068-12.232,35.124-13.623c0.029-0.003,0.059-0.007,0.089-0.01  c1.2-0.126,2.408-0.224,3.625-0.291c0.158-0.009,0.315-0.016,0.474-0.023c1.187-0.058,2.379-0.096,3.58-0.096  c0.001,0,0.001,0,0.002,0s0.002,0,0.002,0c1.199,0,2.389,0.038,3.574,0.096c0.164,0.008,0.329,0.014,0.493,0.023  c1.208,0.068,2.408,0.164,3.6,0.29c0.045,0.004,0.088,0.01,0.132,0.014c12.996,1.39,24.964,6.21,34.984,13.54  c0.086,0.062,0.172,0.125,0.257,0.188c0.932,0.688,1.847,1.395,2.744,2.124c0.14,0.115,0.279,0.232,0.418,0.347  c0.87,0.72,1.729,1.454,2.564,2.213c0.113,0.101,0.221,0.207,0.332,0.31c0.747,0.688,1.478,1.391,2.196,2.109  c0.162,0.163,0.327,0.32,0.487,0.484c0.748,0.762,1.474,1.545,2.188,2.339c0.104,0.115,0.214,0.222,0.317,0.338  c1.48,1.67,3.604,2.625,5.837,2.625V55.837c0,0-0.001,0-0.002,0C255.984,55.837,255.97,55.838,255.954,55.838z"/>
<g>
	<path style="fill:#ED5145;" d="M255.999,258.839c0.001,0,0.001,0,0.001,0c2.232,0,4.358-0.955,5.838-2.625   c0.111-0.125,0.23-0.242,0.342-0.366c0.701-0.779,1.414-1.547,2.148-2.295c0.177-0.181,0.358-0.354,0.536-0.534   c0.694-0.692,1.4-1.371,2.12-2.035c0.129-0.119,0.255-0.243,0.388-0.361c0.823-0.748,1.668-1.471,2.527-2.181   c0.154-0.126,0.304-0.255,0.458-0.379c0.886-0.722,1.79-1.421,2.712-2.101c0.097-0.071,0.194-0.143,0.291-0.213   c10.015-7.322,21.976-12.138,34.963-13.528c0.047-0.006,0.092-0.011,0.139-0.016c1.19-0.125,2.388-0.222,3.596-0.289   c0.164-0.01,0.331-0.017,0.496-0.023c1.182-0.058,2.372-0.096,3.569-0.096h0.002c0,0,0,0,0.001,0l0,0   c1.199,0,2.391,0.038,3.574,0.096c0.164,0.008,0.327,0.014,0.49,0.023c1.21,0.068,2.41,0.164,3.603,0.29   c0.042,0.004,0.082,0.01,0.125,0.014c13.008,1.39,24.987,6.217,35.013,13.557c0.07,0.051,0.139,0.103,0.211,0.154   c0.946,0.698,1.876,1.415,2.784,2.158c0.124,0.101,0.247,0.205,0.37,0.306c0.887,0.732,1.76,1.479,2.609,2.251   c0.094,0.085,0.184,0.172,0.276,0.256c0.772,0.71,1.528,1.437,2.268,2.179c0.148,0.147,0.298,0.291,0.442,0.439   c0.759,0.771,1.496,1.565,2.219,2.371c0.098,0.109,0.202,0.211,0.299,0.319c1.437,1.619,3.479,2.559,5.638,2.615   c-5.555-42.133-15.27-80.177-28.08-111.626l-12.555-26.875c-21.617-40.301-49.269-64.488-79.409-64.488c-0.001,0-0.001,0-0.002,0   c0,0-0.001,0-0.002,0V258.839z"/>
	<path style="fill:#ED5145;" d="M237.926,465.177c0,6.026-4.9,10.928-10.928,10.928c-6.026,0-10.929-4.9-10.929-10.928   c0-9.912-8.037-17.949-17.948-17.949c-9.912,0-17.948,8.038-17.948,17.949c0,25.819,21.007,46.824,46.825,46.824   c25.82,0,46.825-21.005,46.825-46.824v-57.675h-35.897V465.177z"/>
</g>
<path style="fill:#ACB7BC;" d="M286.999,389.488h-14.647c-4.923,0-8.916-3.992-8.916-8.916c0-4.924,3.993-8.916,8.916-8.916h14.647  c4.924,0,8.916,3.992,8.916,8.916C295.915,385.496,291.923,389.488,286.999,389.488z"/>
<path style="fill:#F9A83D;" d="M256.001,194.502V55.837c0,0-0.001,0-0.002,0c-0.016,0-0.029,0.001-0.045,0.001  c-0.905,0.001-1.807,0.023-2.705,0.068c-0.329,0.017-0.656,0.049-0.985,0.07c-0.583,0.039-1.167,0.075-1.749,0.132  c-0.389,0.038-0.777,0.093-1.164,0.139c-0.519,0.061-1.039,0.118-1.556,0.195c-0.415,0.061-0.826,0.137-1.239,0.207  c-0.488,0.082-0.976,0.163-1.463,0.257c-0.427,0.084-0.854,0.182-1.281,0.275c-0.469,0.104-0.937,0.204-1.404,0.318  c-0.436,0.107-0.869,0.226-1.303,0.344c-0.456,0.121-0.911,0.244-1.365,0.377c-0.441,0.13-0.88,0.272-1.321,0.412  c-0.444,0.142-0.887,0.283-1.328,0.436c-0.445,0.153-0.888,0.315-1.331,0.479c-0.435,0.16-0.868,0.322-1.302,0.493  c-0.446,0.175-0.892,0.359-1.336,0.546c-0.426,0.178-0.851,0.359-1.276,0.548c-0.447,0.198-0.894,0.403-1.341,0.614  c-0.418,0.196-0.835,0.396-1.252,0.602c-0.449,0.222-0.898,0.449-1.345,0.682c-0.409,0.213-0.816,0.431-1.224,0.653  c-0.003,0.001-0.006,0.003-0.008,0.004c-1.97,10.286-3.015,20.902-3.015,31.763C223.664,132.5,235.675,166.735,256.001,194.502z"/>
<path style="fill:#F75F57;" d="M335.411,120.325c-21.616-40.302-49.268-64.488-79.408-64.488c-0.001,0-0.001,0-0.002,0  c0,0-0.001,0-0.002,0v138.662c11.351,15.504,25.29,28.99,41.192,39.814c3.607-0.973,7.322-1.683,11.129-2.09  c0.047-0.006,0.092-0.011,0.139-0.016c1.19-0.125,2.388-0.222,3.596-0.289c0.164-0.01,0.331-0.017,0.496-0.023  c1.182-0.058,2.372-0.096,3.569-0.096h0.002c0,0,0,0,0.001,0l0,0c1.199,0,2.391,0.038,3.574,0.096  c0.164,0.008,0.327,0.014,0.49,0.023c1.21,0.068,2.41,0.164,3.603,0.29c0.042,0.004,0.082,0.01,0.125,0.014  c13.008,1.39,24.987,6.217,35.013,13.557c0.07,0.051,0.139,0.103,0.211,0.154c0.946,0.698,1.876,1.415,2.784,2.158  c0.124,0.101,0.247,0.205,0.37,0.306c0.887,0.732,1.76,1.479,2.609,2.251c0.094,0.085,0.184,0.172,0.276,0.256  c0.772,0.71,1.528,1.437,2.268,2.179c0.148,0.147,0.298,0.291,0.442,0.439c0.759,0.771,1.496,1.565,2.219,2.371  c0.098,0.109,0.202,0.211,0.299,0.319c1.437,1.619,3.479,2.559,5.638,2.615c-5.555-42.133-15.27-80.177-28.08-111.626  L335.411,120.325z"/>
<g>
</g>
<g>
</g>
<g>
</g>
<g>
</g>
<g>
</g>
<g>
</g>
<g>
</g>
<g>
</g>
<g>
</g>
<g>
</g>
<g>
</g>
<g>
</g>
<g>
</g>
<g>
</g>
<g>
</g>
</svg>
