<?xml version="1.0" encoding="UTF-8" standalone="no"?><!DOCTYPE svg PUBLIC "-//W3C//DTD SVG 1.1//EN" "http://www.w3.org/Graphics/SVG/1.1/DTD/svg11.dtd"><svg width="100%" height="100%" viewBox="0 0 512 512" version="1.1" xmlns="http://www.w3.org/2000/svg" xmlns:xlink="http://www.w3.org/1999/xlink" xml:space="preserve" xmlns:serif="http://www.serif.com/" style="fill-rule:evenodd;clip-rule:evenodd;stroke-linejoin:round;stroke-miterlimit:1.41421;"><g><path d="M463.532,330.262c-1.848,0 -3.711,-0.577 -5.302,-1.772c-3.902,-2.931 -4.688,-8.471 -1.757,-12.373l15.487,-20.611c2.932,-3.9 8.471,-4.687 12.374,-1.756c3.902,2.931 4.688,8.471 1.757,12.373l-15.487,20.611c-1.737,2.311 -4.388,3.528 -7.072,3.528Z" style="fill:#9fdef7;fill-rule:nonzero;"/><path d="M428.386,381.667c-1.848,0 -3.71,-0.577 -5.302,-1.772c-3.902,-2.931 -4.688,-8.471 -1.757,-12.373l15.487,-20.611c2.932,-3.9 8.471,-4.687 12.374,-1.756c3.902,2.931 4.688,8.471 1.757,12.373l-15.487,20.611c-1.737,2.31 -4.388,3.528 -7.072,3.528Z" style="fill:#9fdef7;fill-rule:nonzero;"/><path d="M392.897,428.903c-1.848,0 -3.71,-0.578 -5.302,-1.773c-3.902,-2.931 -4.688,-8.47 -1.757,-12.373l15.487,-20.613c2.932,-3.9 8.473,-4.687 12.373,-1.756c3.903,2.931 4.689,8.47 1.759,12.373l-15.487,20.613c-1.737,2.312 -4.388,3.529 -7.073,3.529Z" style="fill:#9fdef7;fill-rule:nonzero;"/><path d="M357.409,476.142c-1.848,0 -3.71,-0.577 -5.301,-1.772c-3.903,-2.932 -4.689,-8.471 -1.759,-12.373l15.485,-20.613c2.932,-3.903 8.471,-4.689 12.373,-1.759c3.903,2.932 4.689,8.471 1.759,12.373l-15.485,20.612c-1.736,2.315 -4.388,3.532 -7.072,3.532Z" style="fill:#9fdef7;fill-rule:nonzero;"/><path d="M301.694,327.516c-1.848,0 -3.71,-0.576 -5.302,-1.771c-3.902,-2.932 -4.688,-8.471 -1.758,-12.373l15.485,-20.611c2.932,-3.902 8.47,-4.689 12.373,-1.759c3.903,2.932 4.689,8.471 1.759,12.373l-15.485,20.611c-1.737,2.313 -4.388,3.53 -7.072,3.53Z" style="fill:#9fdef7;fill-rule:nonzero;"/><path d="M266.205,374.754c-1.848,0 -3.71,-0.576 -5.302,-1.771c-3.902,-2.932 -4.688,-8.471 -1.758,-12.373l15.484,-20.611c2.932,-3.903 8.471,-4.69 12.373,-1.759c3.903,2.932 4.689,8.471 1.759,12.373l-15.485,20.611c-1.735,2.312 -4.386,3.53 -7.071,3.53Z" style="fill:#9fdef7;fill-rule:nonzero;"/><path d="M230.715,421.99c-1.848,0 -3.71,-0.578 -5.302,-1.773c-3.902,-2.931 -4.688,-8.47 -1.757,-12.373l15.487,-20.613c2.932,-3.9 8.473,-4.688 12.374,-1.756c3.902,2.931 4.688,8.47 1.757,12.373l-15.487,20.613c-1.737,2.312 -4.388,3.529 -7.072,3.529Z" style="fill:#9fdef7;fill-rule:nonzero;"/><path d="M195.226,469.229c-1.848,0 -3.71,-0.578 -5.302,-1.773c-3.902,-2.931 -4.688,-8.47 -1.757,-12.373l15.487,-20.612c2.932,-3.9 8.473,-4.687 12.374,-1.756c3.902,2.931 4.688,8.47 1.757,12.373l-15.487,20.612c-1.737,2.312 -4.388,3.529 -7.072,3.529Z" style="fill:#9fdef7;fill-rule:nonzero;"/><path d="M83.441,370.754c-1.848,0 -3.71,-0.576 -5.301,-1.771c-3.903,-2.932 -4.689,-8.471 -1.759,-12.373l15.485,-20.611c2.932,-3.903 8.47,-4.69 12.373,-1.759c3.903,2.931 4.689,8.471 1.759,12.373l-15.485,20.611c-1.737,2.312 -4.388,3.53 -7.072,3.53Z" style="fill:#9fdef7;fill-rule:nonzero;"/><path d="M47.95,417.99c-1.848,0 -3.71,-0.578 -5.302,-1.773c-3.902,-2.931 -4.688,-8.47 -1.757,-12.373l15.487,-20.613c2.932,-3.9 8.473,-4.688 12.374,-1.756c3.902,2.931 4.688,8.47 1.757,12.373l-15.487,20.613c-1.737,2.312 -4.388,3.529 -7.072,3.529Z" style="fill:#9fdef7;fill-rule:nonzero;"/><path d="M12.461,465.229c-1.848,0 -3.71,-0.578 -5.302,-1.773c-3.902,-2.931 -4.688,-8.47 -1.757,-12.373l15.487,-20.612c2.932,-3.9 8.473,-4.687 12.374,-1.756c3.901,2.931 4.688,8.47 1.757,12.373l-15.487,20.612c-1.736,2.312 -4.387,3.529 -7.072,3.529Z" style="fill:#9fdef7;fill-rule:nonzero;"/><path d="M420.867,187.839l-111.368,0c-21.519,0 -38.965,-17.448 -38.965,-38.966c0,-21.518 17.446,-38.964 38.965,-38.964c3.386,0 6.668,0.434 9.8,1.243c4.113,-5.935 10.241,-10.363 17.396,-12.307c-11.812,-30.465 -41.383,-52.075 -76.019,-52.075c-38.825,0 -71.289,27.148 -79.503,63.489c-4.869,-1.625 -10.078,-2.517 -15.495,-2.517c-16.68,0 -31.403,8.352 -40.231,21.096c-4.928,-1.273 -10.095,-1.956 -15.422,-1.956c-33.868,0 -61.325,27.454 -61.325,61.323c0,9.827 2.325,19.109 6.436,27.342c7.202,-22.285 28.107,-38.408 52.792,-38.408c26.421,0 48.513,18.473 54.101,43.203c3.316,-1.105 6.859,-1.713 10.548,-1.713c11.348,0 21.368,5.684 27.376,14.356c3.353,-0.865 6.87,-1.331 10.494,-1.331c14.175,0 26.69,7.072 34.233,17.875l115.598,0c33.476,0 60.615,-27.136 60.615,-60.612c0.002,-0.364 -0.019,-0.72 -0.026,-1.078Z" style="fill:#9fdef7;fill-rule:nonzero;"/><path d="M146.289,373.147l9.327,0l-6.595,6.595c-3.371,3.371 -3.371,8.833 0,12.204c1.686,1.685 3.893,2.527 6.102,2.527c2.209,0 4.417,-0.842 6.102,-2.527l6.597,-6.597l0,9.328c0,4.766 3.864,8.629 8.629,8.629c4.766,0 8.629,-3.864 8.629,-8.629l0,-9.326l6.595,6.595c1.686,1.685 3.893,2.527 6.102,2.527c2.209,0 4.417,-0.842 6.102,-2.527c3.37,-3.371 3.37,-8.833 0,-12.204l-6.595,-6.595l9.327,0c4.766,0 8.629,-3.864 8.629,-8.629c0,-4.766 -3.864,-8.629 -8.629,-8.629l-9.328,0l6.597,-6.597c3.37,-3.371 3.37,-8.833 0,-12.204c-3.371,-3.369 -8.834,-3.369 -12.205,0l-6.595,6.595l0,-9.326c0,-4.766 -3.864,-8.629 -8.629,-8.629c-4.766,0 -8.629,3.864 -8.629,8.629l0,9.328l-6.597,-6.597c-3.371,-3.369 -8.834,-3.369 -12.205,0c-3.371,3.371 -3.371,8.833 0,12.204l6.597,6.597l-9.328,0c-4.766,0 -8.629,3.864 -8.629,8.629c0,4.765 3.864,8.629 8.629,8.629Z" style="fill:#9fdef7;fill-rule:nonzero;"/><path d="M99.941,456.552l9.327,0l-6.595,6.595c-3.371,3.371 -3.371,8.833 0,12.204c1.686,1.685 3.893,2.527 6.102,2.527c2.209,0 4.417,-0.842 6.102,-2.527l6.597,-6.597l0,9.328c0,4.766 3.864,8.629 8.629,8.629c4.766,0 8.629,-3.864 8.629,-8.629l0,-9.326l6.595,6.595c1.686,1.685 3.893,2.527 6.102,2.527c2.209,0 4.417,-0.842 6.102,-2.527c3.37,-3.371 3.37,-8.833 0,-12.204l-6.595,-6.595l9.327,0c4.766,0 8.629,-3.864 8.629,-8.629c0,-4.766 -3.864,-8.629 -8.629,-8.629l-9.328,0l6.597,-6.597c3.37,-3.371 3.37,-8.833 0,-12.204c-3.371,-3.369 -8.834,-3.369 -12.205,0l-6.595,6.595l0,-9.326c0,-4.766 -3.864,-8.629 -8.629,-8.629c-4.766,0 -8.629,3.864 -8.629,8.629l0,9.328l-6.597,-6.597c-3.371,-3.369 -8.834,-3.369 -12.205,0c-3.371,3.371 -3.371,8.833 0,12.204l6.597,6.597l-9.328,0c-4.766,0 -8.629,3.864 -8.629,8.629c0,4.765 3.864,8.629 8.629,8.629Z" style="fill:#9fdef7;fill-rule:nonzero;"/><path d="M318.759,372.6l9.327,0l-6.595,6.595c-3.371,3.371 -3.371,8.833 0,12.204c1.686,1.685 3.893,2.527 6.102,2.527c2.209,0 4.417,-0.842 6.102,-2.527l6.597,-6.597l0,9.328c0,4.766 3.864,8.629 8.629,8.629c4.766,0 8.629,-3.864 8.629,-8.629l0,-9.326l6.595,6.595c1.686,1.685 3.893,2.527 6.102,2.527c2.209,0 4.417,-0.842 6.102,-2.527c3.37,-3.371 3.37,-8.833 0,-12.204l-6.595,-6.595l9.327,0c4.766,0 8.629,-3.864 8.629,-8.629c0,-4.766 -3.864,-8.629 -8.629,-8.629l-9.328,0l6.597,-6.597c3.37,-3.371 3.37,-8.833 0,-12.204c-3.371,-3.369 -8.834,-3.369 -12.205,0l-6.595,6.595l0,-9.326c0,-4.766 -3.864,-8.629 -8.629,-8.629c-4.766,0 -8.629,3.864 -8.629,8.629l0,9.328l-6.597,-6.597c-3.371,-3.369 -8.834,-3.369 -12.205,0c-3.371,3.371 -3.371,8.833 0,12.204l6.597,6.597l-9.328,0c-4.766,0 -8.629,3.864 -8.629,8.629c0,4.765 3.864,8.629 8.629,8.629Z" style="fill:#9fdef7;fill-rule:nonzero;"/><path d="M258.531,458.628l9.327,0l-6.595,6.595c-3.371,3.371 -3.371,8.833 0,12.204c1.686,1.685 3.893,2.527 6.102,2.527c2.209,0 4.417,-0.842 6.102,-2.527l6.597,-6.597l0,9.328c0,4.766 3.864,8.629 8.629,8.629c4.766,0 8.629,-3.864 8.629,-8.629l0,-9.326l6.595,6.595c1.686,1.685 3.893,2.527 6.102,2.527c2.209,0 4.417,-0.842 6.102,-2.527c3.37,-3.371 3.37,-8.833 0,-12.204l-6.595,-6.595l9.327,0c4.766,0 8.629,-3.864 8.629,-8.629c0,-4.766 -3.864,-8.629 -8.629,-8.629l-9.328,0l6.597,-6.597c3.37,-3.371 3.37,-8.833 0,-12.204c-3.371,-3.369 -8.834,-3.369 -12.205,0l-6.595,6.595l0,-9.326c0,-4.766 -3.864,-8.629 -8.629,-8.629c-4.766,0 -8.629,3.864 -8.629,8.629l0,9.328l-6.597,-6.597c-3.371,-3.369 -8.834,-3.369 -12.205,0c-3.371,3.371 -3.371,8.833 0,12.204l6.597,6.597l-9.328,0c-4.766,0 -8.629,3.864 -8.629,8.629c0,4.765 3.864,8.629 8.629,8.629Z" style="fill:#9fdef7;fill-rule:nonzero;"/></g><path d="M472.182,109.304c-4.156,0 -8.159,0.638 -11.925,1.818c0.022,-0.602 0.046,-1.206 0.046,-1.818c0,-29.577 -23.978,-53.557 -53.558,-53.557c-25.506,0 -46.832,17.833 -52.226,41.707c-3.201,-1.066 -6.62,-1.653 -10.18,-1.653c-10.958,0 -20.628,5.487 -26.427,13.859c-3.239,-0.836 -6.631,-1.285 -10.133,-1.285c-22.248,0 -40.285,18.037 -40.285,40.284c0,22.247 18.036,40.286 40.285,40.286l164.402,0c21.989,0 39.818,-17.827 39.818,-39.818c0.001,-21.994 -17.828,-39.823 -39.817,-39.823Z" style="fill:#e4f2f9;fill-rule:nonzero;"/><path d="M175.392,108.717c-3.14,-0.636 -6.387,-0.977 -9.714,-0.977c-16.68,0 -31.403,8.352 -40.231,21.096c-4.928,-1.273 -10.095,-1.956 -15.422,-1.956c-33.868,0 -61.325,27.454 -61.325,61.323c0,9.827 2.325,19.109 6.436,27.342c7.202,-22.285 28.107,-38.408 52.792,-38.408c26.421,0 48.513,18.473 54.101,43.203c3.316,-1.105 6.859,-1.713 10.548,-1.713c11.348,0 21.368,5.684 27.376,14.356c3.353,-0.865 6.87,-1.331 10.494,-1.331c14.175,0 26.69,7.072 34.233,17.875l46.068,0c-63.644,-16.774 -111.3,-72.916 -115.356,-140.81Z" style="fill:#83d4ed;fill-rule:nonzero;"/><path d="M351.438,96.613c-2.285,-0.518 -4.655,-0.813 -7.097,-0.813c-10.958,0 -20.628,5.487 -26.427,13.859c-3.239,-0.836 -6.631,-1.285 -10.133,-1.285c-22.248,0 -40.285,18.036 -40.285,40.284c0,22.248 18.036,40.286 40.285,40.286l102.382,0c-34.617,-16.357 -58.594,-51.534 -58.725,-92.331Z" style="fill:#d7edf9;fill-rule:nonzero;"/><path d="M211.553,230.547c-3.624,0 -7.141,0.466 -10.494,1.331c-6.008,-8.671 -16.028,-14.356 -27.376,-14.356c-3.689,0 -7.232,0.609 -10.548,1.713c-5.588,-24.732 -27.681,-43.203 -54.101,-43.203c-30.643,0 -55.483,24.839 -55.483,55.48c0,0.632 0.025,1.258 0.048,1.883c-3.898,-1.221 -8.047,-1.883 -12.35,-1.883c-22.781,-0.001 -41.249,18.468 -41.249,41.251c0,22.781 18.468,41.247 41.249,41.247l170.304,0c23.048,0 41.731,-18.684 41.731,-41.73c0,-23.049 -18.682,-41.733 -41.731,-41.733Z" style="fill:#e4f2f9;fill-rule:nonzero;"/><path d="M68.463,193.685c-9.245,9.912 -14.911,23.204 -14.911,37.826c0,0.632 0.025,1.258 0.047,1.883c-3.898,-1.221 -8.047,-1.883 -12.35,-1.883c-22.781,0 -41.249,18.469 -41.249,41.252c0,22.781 18.468,41.247 41.249,41.247l112.762,0c-49.447,-17.821 -84.915,-64.885 -85.548,-120.325Z" style="fill:#d7edf9;fill-rule:nonzero;"/></svg>