<?xml version="1.0" encoding="iso-8859-1"?>
<!-- Generator: Adobe Illustrator 19.0.0, SVG Export Plug-In . SVG Version: 6.00 Build 0)  -->
<svg xmlns="http://www.w3.org/2000/svg" xmlns:xlink="http://www.w3.org/1999/xlink" version="1.1" id="Layer_1" x="0px" y="0px" viewBox="0 0 512 512" style="enable-background:new 0 0 512 512;" xml:space="preserve">
<path style="fill:#5ABCE2;" d="M511.925,250.081c-0.009-0.397-0.018-0.796-0.027-1.193c-0.052-1.907-0.124-3.809-0.217-5.705  c-0.018-0.344-0.038-0.686-0.057-1.028c-0.095-1.786-0.207-3.568-0.338-5.345c-0.018-0.23-0.031-0.462-0.049-0.692  c-0.146-1.899-0.317-3.791-0.504-5.679c-0.04-0.408-0.081-0.817-0.124-1.225c-0.197-1.885-0.409-3.768-0.646-5.641  c-0.027-0.219-0.059-0.44-0.087-0.659c-0.227-1.756-0.473-3.506-0.735-5.251c-0.05-0.331-0.098-0.662-0.148-0.993  c-0.285-1.842-0.589-3.677-0.913-5.505c-0.067-0.381-0.136-0.759-0.205-1.139c-0.342-1.879-0.696-3.751-1.076-5.615  c0-0.001-0.001-0.003-0.001-0.004c-0.383-1.868-0.791-3.725-1.214-5.577c-0.085-0.373-0.169-0.746-0.256-1.119  c-0.417-1.795-0.854-3.584-1.309-5.365c-0.08-0.313-0.165-0.627-0.246-0.939c-0.437-1.684-0.89-3.36-1.361-5.03  c-0.059-0.209-0.115-0.421-0.176-0.631c-0.506-1.78-1.036-3.549-1.581-5.313c-0.115-0.375-0.232-0.748-0.348-1.122  c-0.552-1.761-1.12-3.516-1.709-5.261c-0.067-0.196-0.135-0.39-0.203-0.584c-0.558-1.641-1.134-3.271-1.724-4.895  c-0.109-0.302-0.217-0.604-0.327-0.906c-0.628-1.707-1.276-3.407-1.938-5.097c-0.135-0.346-0.273-0.689-0.41-1.033  c-0.689-1.735-1.39-3.464-2.116-5.18v-0.001c-0.728-1.72-1.479-3.425-2.243-5.126c-0.151-0.337-0.302-0.673-0.454-1.01  c-0.749-1.648-1.514-3.289-2.296-4.92c-0.132-0.277-0.269-0.552-0.403-0.829c-0.749-1.544-1.51-3.079-2.288-4.605  c-0.096-0.187-0.189-0.375-0.285-0.562c-0.831-1.622-1.684-3.23-2.55-4.833c-0.178-0.332-0.358-0.662-0.539-0.993  c-0.874-1.601-1.761-3.193-2.667-4.774c-0.095-0.163-0.191-0.325-0.285-0.488c-0.862-1.491-1.74-2.973-2.628-4.446  c-0.16-0.263-0.317-0.529-0.477-0.791c-0.938-1.538-1.891-3.065-2.859-4.581c-0.193-0.301-0.386-0.6-0.579-0.899  c-2.006-3.111-4.075-6.175-6.21-9.193c-0.206-0.291-0.411-0.581-0.618-0.87c-1.045-1.466-2.107-2.921-3.182-4.363  c-0.174-0.235-0.352-0.466-0.528-0.7c-1.031-1.371-2.072-2.733-3.131-4.083c-0.121-0.156-0.242-0.313-0.363-0.469  c-1.123-1.426-2.263-2.838-3.415-4.24c-0.232-0.283-0.464-0.564-0.697-0.846c-1.161-1.4-2.333-2.79-3.523-4.165  c-0.114-0.131-0.229-0.26-0.343-0.392c-1.132-1.303-2.278-2.592-3.437-3.872c-0.201-0.223-0.401-0.446-0.603-0.669  c-1.212-1.329-2.438-2.646-3.676-3.949c-0.237-0.25-0.475-0.496-0.715-0.746c-2.557-2.67-5.171-5.285-7.841-7.841  c-0.25-0.239-0.498-0.48-0.749-0.718c-1.308-1.241-2.627-2.472-3.96-3.686c-0.209-0.189-0.419-0.376-0.627-0.565  c-1.28-1.159-2.571-2.305-3.873-3.438c-0.142-0.122-0.282-0.248-0.424-0.371c-1.378-1.192-2.77-2.367-4.175-3.531  c-0.272-0.225-0.545-0.45-0.818-0.675c-1.415-1.162-2.838-2.313-4.277-3.445c-0.119-0.093-0.239-0.186-0.358-0.278  c-1.378-1.082-2.769-2.146-4.172-3.199c-0.23-0.174-0.46-0.348-0.691-0.521c-1.455-1.085-2.919-2.154-4.398-3.208  c-0.265-0.189-0.533-0.377-0.8-0.567c-0.502-0.355-1.001-0.715-1.506-1.066l-0.277-0.169c-8.126-5.65-16.593-10.842-25.37-15.537  l-0.234-0.144c-1.23-0.656-2.466-1.3-3.708-1.936c-0.109-0.056-0.217-0.11-0.325-0.164c-1.614-0.825-3.24-1.632-4.875-2.423  c-0.228-0.111-0.455-0.223-0.685-0.334c-1.665-0.8-3.34-1.581-5.024-2.345c-0.294-0.132-0.587-0.264-0.88-0.396  c-3.437-1.545-6.914-3.016-10.43-4.412c-0.315-0.125-0.629-0.252-0.946-0.375c-1.713-0.672-3.433-1.327-5.163-1.963  c-0.272-0.1-0.545-0.197-0.818-0.296c-1.655-0.602-3.318-1.189-4.989-1.757c-0.178-0.06-0.355-0.122-0.534-0.184  c-1.758-0.593-3.526-1.164-5.301-1.721c-0.357-0.112-0.716-0.224-1.073-0.334c-1.778-0.549-3.56-1.082-5.354-1.593  c-0.188-0.053-0.376-0.105-0.564-0.157c-1.692-0.477-3.39-0.936-5.096-1.379c-0.304-0.079-0.609-0.161-0.915-0.239  c-1.786-0.457-3.582-0.895-5.384-1.315c-0.364-0.085-0.729-0.166-1.094-0.25c-3.706-0.846-7.445-1.611-11.212-2.294  c-0.377-0.069-0.755-0.138-1.133-0.206c-1.831-0.323-3.666-0.628-5.51-0.913c-0.328-0.05-0.657-0.097-0.984-0.146  c-1.746-0.262-3.498-0.509-5.256-0.736c-0.22-0.028-0.44-0.06-0.66-0.087c-1.874-0.237-3.755-0.449-5.641-0.646  c-0.407-0.042-0.816-0.083-1.225-0.124c-1.888-0.187-3.78-0.358-5.681-0.504c-0.227-0.018-0.455-0.031-0.682-0.048  c-1.779-0.132-3.562-0.245-5.352-0.339c-0.344-0.019-0.686-0.039-1.031-0.057c-1.896-0.093-3.797-0.165-5.703-0.216  c-0.397-0.011-0.797-0.02-1.195-0.028C259.95,0.03,257.978,0,256,0s-3.95,0.03-5.917,0.075c-0.398,0.009-0.798,0.018-1.195,0.028  c-1.907,0.051-3.808,0.122-5.703,0.216c-0.345,0.018-0.688,0.038-1.032,0.057c-1.788,0.095-3.572,0.206-5.35,0.339  c-0.227,0.017-0.455,0.03-0.682,0.048c-1.9,0.146-3.792,0.317-5.681,0.504c-0.408,0.04-0.817,0.081-1.225,0.124  c-1.885,0.197-3.768,0.408-5.641,0.646c-0.22,0.027-0.44,0.059-0.66,0.087c-1.757,0.227-3.508,0.474-5.256,0.736  c-0.327,0.049-0.656,0.096-0.984,0.146c-1.843,0.285-3.68,0.59-5.51,0.913c-0.378,0.068-0.756,0.137-1.133,0.206  c-3.768,0.682-7.505,1.448-11.212,2.294c-0.365,0.083-0.73,0.165-1.094,0.25c-1.802,0.42-3.597,0.857-5.384,1.315  c-0.306,0.078-0.611,0.16-0.915,0.239c-1.705,0.443-3.405,0.903-5.096,1.379c-0.188,0.052-0.376,0.104-0.564,0.157  c-1.793,0.511-3.576,1.044-5.354,1.593c-0.357,0.11-0.716,0.221-1.073,0.334c-1.775,0.557-3.544,1.128-5.301,1.721  c-0.178,0.061-0.355,0.124-0.533,0.184c-1.671,0.569-3.334,1.155-4.989,1.757c-0.273,0.099-0.546,0.196-0.818,0.296  c-1.731,0.636-3.452,1.291-5.163,1.963c-0.315,0.124-0.63,0.25-0.946,0.375c-3.515,1.396-6.993,2.867-10.43,4.412  c-0.294,0.131-0.587,0.263-0.88,0.396c-1.684,0.766-3.359,1.546-5.024,2.345c-0.229,0.111-0.456,0.223-0.685,0.334  c-1.635,0.791-3.261,1.598-4.875,2.423c-0.108,0.055-0.216,0.109-0.325,0.164c-1.241,0.636-2.479,1.28-3.708,1.936l-0.234,0.144  c-8.776,4.695-17.243,9.887-25.37,15.537l-0.277,0.169c-0.504,0.352-1.003,0.711-1.506,1.066c-0.267,0.189-0.534,0.377-0.8,0.567  c-1.478,1.054-2.944,2.123-4.398,3.208c-0.232,0.171-0.461,0.347-0.691,0.521c-1.402,1.053-2.794,2.117-4.172,3.199  c-0.119,0.092-0.24,0.185-0.358,0.278c-1.439,1.132-2.863,2.283-4.277,3.445c-0.273,0.225-0.547,0.45-0.818,0.675  c-1.405,1.163-2.798,2.339-4.175,3.531c-0.142,0.122-0.282,0.248-0.424,0.371c-1.303,1.133-2.595,2.28-3.873,3.438  c-0.209,0.189-0.419,0.376-0.627,0.565c-1.332,1.214-2.652,2.444-3.96,3.686c-0.252,0.238-0.499,0.479-0.749,0.718  c-2.669,2.557-5.285,5.171-7.841,7.841c-0.239,0.249-0.477,0.495-0.715,0.746c-1.238,1.303-2.464,2.62-3.676,3.949  c-0.203,0.221-0.402,0.445-0.603,0.669c-1.159,1.28-2.304,2.57-3.437,3.872c-0.114,0.13-0.229,0.259-0.343,0.392  c-1.19,1.375-2.362,2.765-3.523,4.165c-0.233,0.282-0.465,0.563-0.697,0.846c-1.152,1.401-2.293,2.813-3.415,4.24  c-0.121,0.156-0.242,0.313-0.363,0.469c-1.057,1.35-2.1,2.711-3.131,4.083c-0.175,0.234-0.353,0.465-0.528,0.7  c-1.076,1.443-2.137,2.897-3.182,4.363c-0.207,0.289-0.412,0.58-0.618,0.87c-2.135,3.017-4.204,6.082-6.21,9.193  c-0.194,0.299-0.387,0.599-0.58,0.899c-0.968,1.516-1.922,3.043-2.859,4.581c-0.159,0.263-0.317,0.529-0.477,0.791  c-0.889,1.473-1.768,2.954-2.628,4.445c-0.093,0.163-0.19,0.325-0.285,0.488c-0.906,1.581-1.793,3.173-2.667,4.774  c-0.18,0.331-0.361,0.661-0.539,0.993c-0.866,1.602-1.719,3.211-2.55,4.833c-0.096,0.187-0.189,0.375-0.285,0.562  c-0.778,1.526-1.539,3.061-2.287,4.605c-0.135,0.277-0.272,0.552-0.404,0.829c-0.782,1.631-1.548,3.27-2.296,4.92  c-0.154,0.336-0.304,0.673-0.454,1.008c-1.525,3.398-2.98,6.834-4.36,10.308c-0.136,0.345-0.274,0.688-0.408,1.033  c-0.663,1.691-1.31,3.389-1.938,5.097c-0.11,0.302-0.218,0.604-0.327,0.906c-0.59,1.625-1.166,3.256-1.724,4.895  c-0.068,0.195-0.137,0.39-0.203,0.584c-0.589,1.744-1.156,3.501-1.709,5.261c-0.116,0.374-0.233,0.747-0.348,1.122  c-0.544,1.763-1.074,3.534-1.581,5.313c-0.061,0.21-0.117,0.422-0.176,0.631c-0.471,1.67-0.924,3.346-1.361,5.03  c-0.081,0.313-0.165,0.627-0.246,0.939c-0.455,1.782-0.892,3.57-1.309,5.365c-0.087,0.373-0.171,0.746-0.256,1.119  c-0.423,1.852-0.833,3.71-1.214,5.577c0,0.001-0.001,0.003-0.001,0.004c-0.381,1.864-0.735,3.736-1.076,5.615  c-0.068,0.38-0.138,0.758-0.205,1.139c-0.324,1.829-0.629,3.663-0.913,5.505c-0.05,0.331-0.098,0.662-0.148,0.993  c-0.262,1.744-0.508,3.495-0.735,5.251c-0.028,0.219-0.06,0.44-0.087,0.659c-0.237,1.874-0.449,3.755-0.646,5.641  c-0.041,0.407-0.083,0.816-0.124,1.225c-0.187,1.887-0.358,3.78-0.504,5.679c-0.018,0.23-0.031,0.462-0.048,0.692  c-0.132,1.776-0.244,3.557-0.339,5.345c-0.019,0.343-0.039,0.685-0.057,1.028c-0.093,1.897-0.165,3.799-0.217,5.705  c-0.011,0.397-0.019,0.796-0.027,1.193C0.03,252.049,0,254.021,0,256c0,141.384,114.616,256,256,256s256-114.616,256-256  C512,254.021,511.97,252.049,511.925,250.081z"/>
<path style="fill:#B4E8F9;" d="M412.247,400.533c0.456-0.493,0.92-0.979,1.372-1.477c1.028-1.133,2.041-2.277,3.044-3.432  c0.454-0.522,0.9-1.053,1.35-1.579c0.722-0.848,1.448-1.693,2.157-2.552c0.471-0.57,0.928-1.15,1.392-1.725  c0.59-0.728,1.184-1.454,1.764-2.19c0.482-0.611,0.949-1.233,1.425-1.85c0.548-0.712,1.1-1.419,1.64-2.138  c0.48-0.639,0.947-1.288,1.418-1.932c0.52-0.71,1.044-1.416,1.555-2.131c0.47-0.658,0.926-1.325,1.389-1.988  c0.498-0.715,0.998-1.426,1.488-2.147c0.457-0.674,0.905-1.358,1.355-2.038c0.477-0.72,0.957-1.44,1.427-2.167  c0.444-0.69,0.879-1.388,1.317-2.084c0.457-0.729,0.918-1.457,1.368-2.193c0.43-0.702,0.849-1.411,1.271-2.119  c0.44-0.739,0.882-1.477,1.314-2.223c0.414-0.715,0.817-1.435,1.224-2.155c0.423-0.75,0.847-1.5,1.261-2.255  c0.397-0.725,0.787-1.456,1.176-2.186c0.404-0.761,0.81-1.52,1.205-2.287c0.382-0.737,0.755-1.478,1.128-2.219  c0.387-0.769,0.772-1.54,1.151-2.315c0.364-0.747,0.721-1.498,1.076-2.251c0.37-0.781,0.737-1.564,1.097-2.351  c0.346-0.755,0.685-1.512,1.021-2.271c0.352-0.794,0.702-1.588,1.045-2.385c0.327-0.765,0.65-1.53,0.968-2.298  c0.335-0.805,0.666-1.611,0.99-2.42c0.308-0.77,0.613-1.544,0.913-2.318c0.316-0.815,0.627-1.634,0.933-2.453  c0.292-0.778,0.578-1.558,0.858-2.342c0.298-0.828,0.59-1.658,0.878-2.491c0.27-0.784,0.539-1.569,0.801-2.357  c0.278-0.838,0.55-1.68,0.818-2.523c0.253-0.791,0.502-1.584,0.746-2.38c0.259-0.85,0.512-1.703,0.761-2.558  c0.233-0.797,0.464-1.594,0.687-2.393c0.242-0.863,0.473-1.73,0.703-2.597c0.211-0.799,0.425-1.598,0.627-2.402  c0.223-0.877,0.435-1.76,0.646-2.642c0.191-0.8,0.384-1.601,0.567-2.403c0.204-0.893,0.393-1.789,0.584-2.685  c0.17-0.804,0.345-1.605,0.508-2.411c0.181-0.906,0.349-1.814,0.521-2.723c0.151-0.806,0.305-1.609,0.447-2.42  c0.163-0.918,0.308-1.842,0.459-2.766c0.13-0.804,0.265-1.605,0.386-2.412c0.142-0.943,0.267-1.89,0.397-2.836  c0.109-0.796,0.221-1.589,0.322-2.387c0.12-0.966,0.225-1.938,0.333-2.908c0.087-0.785,0.181-1.566,0.26-2.353  c0.1-1.001,0.18-2.007,0.267-3.011c0.066-0.764,0.139-1.525,0.196-2.291c0.079-1.056,0.139-2.119,0.203-3.18  c0.043-0.718,0.096-1.436,0.132-2.157c0.059-1.18,0.095-2.364,0.135-3.548c0.02-0.609,0.051-1.214,0.067-1.824  c0.045-1.795,0.068-3.597,0.068-5.404c0-9.185-0.581-18.233-1.711-27.11C453.832,124.132,364.374,43.142,256,43.142l0,0  c-0.001,0-0.001,0-0.001,0c-108.375,0-197.831,80.992-211.149,185.748c-1.129,8.879-1.71,17.926-1.71,27.11  c0,1.806,0.023,3.607,0.069,5.404c0.016,0.61,0.047,1.215,0.068,1.824c0.039,1.183,0.076,2.369,0.135,3.548  c0.035,0.72,0.089,1.438,0.131,2.157c0.065,1.061,0.122,2.124,0.201,3.18c0.058,0.766,0.131,1.527,0.198,2.291  c0.085,1.004,0.167,2.01,0.267,3.011c0.078,0.787,0.171,1.568,0.258,2.353c0.109,0.971,0.213,1.942,0.333,2.908  c0.1,0.798,0.215,1.592,0.324,2.387c0.128,0.946,0.255,1.893,0.395,2.836c0.121,0.807,0.256,1.608,0.387,2.412  c0.15,0.923,0.297,1.847,0.459,2.766c0.141,0.811,0.298,1.617,0.449,2.426c0.169,0.906,0.338,1.811,0.52,2.714  c0.163,0.808,0.337,1.612,0.509,2.418c0.19,0.895,0.382,1.79,0.583,2.681c0.183,0.804,0.375,1.603,0.567,2.403  c0.211,0.883,0.423,1.765,0.644,2.642c0.205,0.804,0.416,1.603,0.628,2.402c0.23,0.867,0.461,1.734,0.702,2.597  c0.224,0.8,0.455,1.597,0.687,2.393c0.25,0.855,0.502,1.707,0.762,2.558c0.243,0.796,0.492,1.588,0.746,2.38  c0.268,0.844,0.54,1.685,0.818,2.523c0.262,0.788,0.531,1.574,0.803,2.357c0.287,0.833,0.579,1.663,0.876,2.491  c0.283,0.782,0.569,1.563,0.858,2.342c0.306,0.819,0.618,1.638,0.933,2.453c0.302,0.775,0.604,1.547,0.913,2.317  c0.326,0.811,0.657,1.618,0.992,2.425c0.318,0.766,0.639,1.53,0.966,2.292c0.344,0.8,0.692,1.596,1.045,2.391  c0.337,0.758,0.675,1.515,1.021,2.268c0.361,0.787,0.728,1.569,1.097,2.351c0.355,0.752,0.713,1.504,1.076,2.251  c0.378,0.775,0.765,1.546,1.15,2.315c0.374,0.741,0.747,1.483,1.129,2.219c0.395,0.766,0.801,1.526,1.207,2.287  c0.388,0.73,0.777,1.461,1.175,2.186c0.414,0.756,0.838,1.506,1.261,2.255c0.405,0.72,0.81,1.44,1.224,2.155  c0.432,0.746,0.874,1.484,1.315,2.223c0.422,0.709,0.841,1.417,1.271,2.119c0.449,0.733,0.908,1.461,1.367,2.188  c0.44,0.698,0.874,1.398,1.32,2.09c0.467,0.725,0.946,1.441,1.421,2.159c0.452,0.681,0.899,1.367,1.359,2.044  c0.489,0.72,0.991,1.432,1.488,2.147c0.462,0.664,0.92,1.33,1.39,1.988c0.511,0.716,1.034,1.421,1.554,2.132  c0.473,0.644,0.939,1.293,1.418,1.932c0.539,0.719,1.091,1.426,1.64,2.138c0.475,0.617,0.944,1.239,1.425,1.85  c0.58,0.737,1.175,1.461,1.764,2.19c0.465,0.575,0.922,1.155,1.392,1.725c0.71,0.859,1.435,1.704,2.157,2.552  c0.45,0.526,0.896,1.057,1.35,1.579c1.003,1.154,2.017,2.298,3.044,3.432c0.452,0.498,0.916,0.984,1.372,1.477  c0.65,0.703,1.296,1.411,1.956,2.106l0.024,0.023c7.52,7.907,15.648,15.229,24.298,21.907l0.137,0.124  c0.524,0.403,1.056,0.797,1.584,1.195c0.432,0.326,0.861,0.656,1.296,0.978c1.023,0.762,2.056,1.512,3.092,2.255  c0.249,0.178,0.494,0.362,0.745,0.539c1.286,0.913,2.583,1.812,3.89,2.697c0.365,0.247,0.735,0.489,1.102,0.732  c0.951,0.634,1.903,1.266,2.864,1.885c0.486,0.313,0.975,0.622,1.464,0.932c0.864,0.548,1.733,1.091,2.607,1.627  c0.509,0.313,1.02,0.624,1.533,0.934c0.897,0.539,1.799,1.071,2.704,1.598c0.476,0.277,0.951,0.557,1.428,0.83  c1.129,0.646,2.264,1.278,3.407,1.904c0.253,0.138,0.501,0.282,0.755,0.418c1.39,0.755,2.79,1.491,4.197,2.215  c0.421,0.215,0.846,0.424,1.268,0.637c1.002,0.506,2.007,1.008,3.017,1.5c0.532,0.258,1.065,0.51,1.598,0.765  c0.926,0.44,1.853,0.873,2.786,1.3c0.55,0.253,1.102,0.503,1.655,0.75c0.964,0.433,1.934,0.855,2.906,1.272  c0.506,0.217,1.011,0.439,1.518,0.652c1.244,0.523,2.495,1.033,3.751,1.533c0.235,0.094,0.465,0.191,0.7,0.284  c1.481,0.583,2.973,1.148,4.471,1.7c0.469,0.171,0.941,0.336,1.41,0.504c1.047,0.377,2.099,0.75,3.154,1.112  c0.569,0.194,1.139,0.383,1.71,0.573c0.981,0.326,1.965,0.646,2.951,0.957c0.583,0.185,1.168,0.368,1.753,0.549  c1.027,0.314,2.059,0.62,3.092,0.919c0.531,0.154,1.06,0.312,1.593,0.462c1.368,0.385,2.74,0.756,4.118,1.114  c0.194,0.05,0.385,0.106,0.579,0.156c1.566,0.402,3.14,0.784,4.719,1.151c0.496,0.116,0.996,0.223,1.496,0.335  c1.1,0.248,2.202,0.49,3.307,0.719c0.598,0.125,1.197,0.244,1.795,0.363c1.031,0.206,2.065,0.403,3.1,0.593  c0.61,0.114,1.22,0.224,1.832,0.331c1.087,0.19,2.177,0.368,3.27,0.542c0.543,0.086,1.086,0.177,1.631,0.258  c1.519,0.229,3.043,0.443,4.574,0.64c0.111,0.014,0.221,0.031,0.333,0.046c1.64,0.208,3.285,0.393,4.935,0.564  c0.525,0.055,1.052,0.099,1.578,0.15c1.14,0.109,2.282,0.213,3.426,0.304c0.619,0.049,1.238,0.092,1.858,0.137  c1.081,0.076,2.163,0.146,3.248,0.206c0.623,0.035,1.245,0.07,1.871,0.099c1.146,0.053,2.297,0.095,3.45,0.13  c0.543,0.018,1.087,0.039,1.633,0.052c1.687,0.039,3.379,0.065,5.077,0.065c0.002,0,0.004,0,0.006,0c0,0,0,0,0.001,0l0,0  c0.002,0,0.003,0,0.006,0c1.696,0,3.388-0.025,5.077-0.065c0.545-0.013,1.089-0.035,1.634-0.052c1.152-0.036,2.302-0.077,3.45-0.13  c0.624-0.029,1.247-0.065,1.87-0.099c1.085-0.06,2.167-0.129,3.248-0.206c0.62-0.045,1.239-0.088,1.857-0.137  c1.145-0.091,2.287-0.196,3.427-0.304c0.525-0.051,1.053-0.096,1.577-0.15c1.65-0.17,3.297-0.356,4.935-0.564  c0.112-0.014,0.221-0.031,0.334-0.046c1.529-0.197,3.054-0.411,4.573-0.64c0.544-0.081,1.087-0.173,1.631-0.258  c1.093-0.174,2.183-0.352,3.27-0.542c0.612-0.107,1.222-0.217,1.832-0.331c1.036-0.19,2.069-0.388,3.1-0.593  c0.599-0.119,1.198-0.238,1.795-0.363c1.105-0.229,2.206-0.472,3.307-0.719c0.498-0.112,0.998-0.218,1.496-0.335  c1.579-0.367,3.153-0.749,4.719-1.151c0.194-0.05,0.386-0.106,0.579-0.156c1.378-0.358,2.751-0.729,4.118-1.114  c0.532-0.15,1.062-0.308,1.593-0.462c1.034-0.301,2.065-0.605,3.092-0.919c0.584-0.18,1.17-0.364,1.752-0.549  c0.988-0.312,1.972-0.631,2.952-0.957c0.571-0.19,1.141-0.38,1.709-0.573c1.056-0.362,2.108-0.735,3.155-1.112  c0.47-0.168,0.943-0.333,1.41-0.504c1.498-0.552,2.988-1.116,4.471-1.7c0.234-0.092,0.465-0.191,0.7-0.284  c1.254-0.5,2.505-1.01,3.749-1.533c0.51-0.214,1.015-0.435,1.523-0.653c0.971-0.417,1.939-0.839,2.903-1.27  c0.553-0.248,1.105-0.499,1.655-0.751c0.933-0.427,1.861-0.86,2.785-1.3c0.534-0.255,1.067-0.506,1.598-0.765  c1.012-0.491,2.016-0.994,3.019-1.5c0.422-0.213,0.847-0.422,1.267-0.637c1.409-0.723,2.808-1.461,4.197-2.215  c0.253-0.137,0.502-0.281,0.755-0.419c1.141-0.627,2.278-1.259,3.407-1.904c0.479-0.274,0.952-0.553,1.428-0.83  c0.905-0.528,1.806-1.059,2.702-1.598c0.513-0.309,1.024-0.621,1.535-0.934c0.873-0.535,1.741-1.08,2.607-1.627  c0.488-0.309,0.977-0.619,1.463-0.932c0.961-0.621,1.914-1.251,2.865-1.885c0.366-0.245,0.736-0.485,1.101-0.732  c1.308-0.885,2.604-1.783,3.89-2.697c0.25-0.177,0.495-0.361,0.746-0.539c1.037-0.743,2.067-1.494,3.091-2.255  c0.434-0.323,0.864-0.652,1.296-0.978c0.529-0.398,1.06-0.792,1.584-1.195l0.137-0.124c8.649-6.678,16.777-13.999,24.298-21.907  l0.025-0.023C410.951,401.944,411.596,401.237,412.247,400.533z"/>
<path style="fill:#9FDEF7;" d="M266.224,468.513c-1.085-0.06-2.167-0.129-3.248-0.206c-0.62-0.045-1.239-0.088-1.858-0.137  c-1.144-0.091-2.286-0.196-3.426-0.304c-0.526-0.051-1.053-0.096-1.578-0.15c-1.65-0.17-3.296-0.356-4.935-0.564  c-0.111-0.014-0.221-0.031-0.333-0.046c-1.53-0.197-3.054-0.411-4.573-0.64c-0.544-0.081-1.087-0.173-1.631-0.258  c-1.093-0.174-2.183-0.352-3.27-0.542c-0.612-0.107-1.222-0.217-1.832-0.331c-1.036-0.19-2.069-0.388-3.1-0.593  c-0.599-0.119-1.198-0.238-1.795-0.363c-1.105-0.229-2.206-0.472-3.307-0.719c-0.499-0.112-0.998-0.218-1.496-0.335  c-1.579-0.367-3.153-0.749-4.719-1.151c-0.195-0.05-0.386-0.106-0.579-0.156c-1.378-0.358-2.751-0.729-4.118-1.114  c-0.533-0.15-1.062-0.308-1.593-0.462c-1.034-0.301-2.065-0.605-3.092-0.919c-0.585-0.18-1.17-0.364-1.753-0.549  c-0.987-0.312-1.971-0.631-2.951-0.957c-0.571-0.19-1.141-0.38-1.71-0.573c-1.055-0.362-2.107-0.735-3.154-1.112  c-0.47-0.168-0.942-0.333-1.41-0.504c-1.498-0.552-2.99-1.116-4.471-1.7c-0.235-0.092-0.465-0.19-0.7-0.284  c-1.256-0.5-2.507-1.01-3.751-1.533c-0.508-0.214-1.012-0.435-1.518-0.652c-0.972-0.417-1.942-0.839-2.906-1.272  c-0.553-0.247-1.105-0.498-1.655-0.75c-0.933-0.427-1.86-0.86-2.786-1.3c-0.533-0.255-1.066-0.506-1.598-0.765  c-1.011-0.491-2.016-0.994-3.017-1.5c-0.422-0.213-0.847-0.422-1.268-0.637c-1.407-0.723-2.806-1.461-4.197-2.215  c-0.254-0.137-0.502-0.28-0.755-0.418c-1.142-0.627-2.278-1.259-3.407-1.904c-0.479-0.274-0.952-0.553-1.428-0.83  c-0.905-0.528-1.806-1.058-2.704-1.598c-0.513-0.309-1.024-0.621-1.533-0.934c-0.874-0.535-1.742-1.08-2.607-1.627  c-0.489-0.309-0.978-0.619-1.464-0.932c-0.961-0.621-1.914-1.251-2.864-1.885c-0.367-0.245-0.737-0.485-1.102-0.732  c-1.307-0.885-2.605-1.783-3.89-2.697c-0.25-0.177-0.495-0.361-0.745-0.539c-1.037-0.744-2.069-1.494-3.092-2.255  c-0.434-0.323-0.864-0.652-1.296-0.978c-0.528-0.398-1.06-0.792-1.584-1.195l-0.137-0.124c-8.649-6.678-16.778-13.999-24.298-21.907  l-0.024-0.023c-0.66-0.695-1.306-1.402-1.956-2.106c-0.456-0.493-0.92-0.979-1.372-1.477c-1.028-1.133-2.041-2.277-3.044-3.432  c-0.454-0.522-0.899-1.053-1.35-1.579c-0.722-0.848-1.448-1.693-2.157-2.552c-0.471-0.57-0.927-1.15-1.392-1.725  c-0.589-0.728-1.183-1.454-1.764-2.19c-0.482-0.611-0.951-1.233-1.425-1.85c-0.548-0.712-1.1-1.419-1.64-2.138  c-0.48-0.639-0.946-1.288-1.418-1.932c-0.52-0.71-1.043-1.416-1.554-2.132c-0.47-0.658-0.928-1.325-1.39-1.988  c-0.498-0.715-0.998-1.426-1.488-2.147c-0.46-0.677-0.907-1.362-1.359-2.044c-0.476-0.718-0.954-1.435-1.421-2.159  c-0.445-0.692-0.88-1.392-1.32-2.09c-0.457-0.727-0.917-1.455-1.367-2.188c-0.43-0.702-0.849-1.411-1.271-2.119  c-0.441-0.739-0.883-1.477-1.315-2.223c-0.414-0.715-0.818-1.435-1.224-2.155c-0.423-0.75-0.847-1.5-1.261-2.255  c-0.397-0.725-0.787-1.456-1.175-2.186c-0.405-0.761-0.811-1.52-1.207-2.287c-0.382-0.737-0.755-1.478-1.129-2.219  c-0.386-0.769-0.771-1.54-1.15-2.315c-0.363-0.747-0.72-1.498-1.076-2.251c-0.37-0.781-0.737-1.564-1.097-2.351  c-0.346-0.754-0.683-1.51-1.021-2.268c-0.353-0.796-0.702-1.592-1.045-2.391c-0.327-0.761-0.648-1.526-0.966-2.292  c-0.335-0.807-0.666-1.614-0.992-2.425c-0.308-0.77-0.612-1.543-0.913-2.317c-0.315-0.815-0.627-1.634-0.933-2.453  c-0.291-0.778-0.575-1.558-0.858-2.342c-0.298-0.828-0.589-1.658-0.876-2.491c-0.272-0.784-0.54-1.569-0.803-2.357  c-0.278-0.838-0.55-1.68-0.818-2.523c-0.254-0.791-0.503-1.584-0.746-2.38c-0.259-0.85-0.512-1.703-0.762-2.558  c-0.232-0.797-0.463-1.594-0.687-2.393c-0.242-0.863-0.472-1.73-0.702-2.597c-0.211-0.799-0.424-1.598-0.628-2.402  c-0.221-0.877-0.433-1.76-0.644-2.642c-0.191-0.8-0.384-1.601-0.567-2.403c-0.203-0.892-0.394-1.786-0.583-2.681  c-0.171-0.806-0.345-1.609-0.509-2.418c-0.181-0.903-0.351-1.808-0.52-2.714c-0.151-0.809-0.307-1.615-0.449-2.426  c-0.163-0.919-0.308-1.843-0.459-2.766c-0.13-0.804-0.265-1.605-0.387-2.412c-0.141-0.943-0.267-1.89-0.395-2.836  c-0.109-0.796-0.224-1.589-0.324-2.387c-0.119-0.966-0.224-1.938-0.333-2.908c-0.087-0.785-0.18-1.566-0.258-2.353  c-0.1-1.001-0.183-2.007-0.267-3.011c-0.067-0.764-0.14-1.525-0.198-2.291c-0.078-1.056-0.137-2.119-0.201-3.18  c-0.042-0.718-0.097-1.436-0.131-2.157c-0.059-1.18-0.096-2.364-0.135-3.548c-0.021-0.609-0.052-1.214-0.068-1.824  c-0.045-1.795-0.069-3.597-0.069-5.404c0-9.185,0.581-18.233,1.71-27.11C79.97,127.743,163.814,48.76,267.13,43.437  c-3.688-0.19-7.396-0.296-11.13-0.296l0,0c-0.001,0-0.001,0-0.001,0c-108.375,0-197.831,80.992-211.149,185.748  c-1.129,8.879-1.71,17.926-1.71,27.11c0,1.806,0.023,3.607,0.069,5.404c0.016,0.61,0.047,1.215,0.068,1.824  c0.039,1.183,0.076,2.369,0.135,3.548c0.035,0.72,0.089,1.438,0.131,2.157c0.065,1.061,0.122,2.124,0.201,3.18  c0.058,0.766,0.131,1.527,0.198,2.291c0.085,1.004,0.167,2.01,0.267,3.011c0.078,0.787,0.171,1.568,0.258,2.353  c0.109,0.971,0.213,1.942,0.333,2.908c0.1,0.798,0.215,1.592,0.324,2.387c0.128,0.946,0.255,1.893,0.395,2.836  c0.121,0.807,0.256,1.608,0.387,2.412c0.15,0.923,0.297,1.847,0.459,2.766c0.141,0.811,0.298,1.617,0.449,2.426  c0.169,0.906,0.338,1.811,0.52,2.714c0.163,0.808,0.337,1.612,0.509,2.418c0.19,0.895,0.382,1.79,0.583,2.681  c0.183,0.804,0.375,1.603,0.567,2.403c0.211,0.883,0.423,1.765,0.644,2.642c0.205,0.804,0.416,1.603,0.628,2.402  c0.23,0.867,0.461,1.734,0.702,2.597c0.224,0.8,0.455,1.597,0.687,2.393c0.25,0.855,0.502,1.707,0.762,2.558  c0.243,0.796,0.492,1.588,0.746,2.38c0.268,0.844,0.54,1.685,0.818,2.523c0.262,0.788,0.531,1.574,0.803,2.357  c0.287,0.833,0.579,1.663,0.876,2.491c0.283,0.782,0.569,1.563,0.858,2.342c0.306,0.819,0.618,1.638,0.933,2.453  c0.302,0.775,0.604,1.547,0.913,2.317c0.326,0.811,0.657,1.618,0.992,2.425c0.318,0.766,0.639,1.53,0.966,2.292  c0.344,0.8,0.692,1.596,1.045,2.391c0.337,0.758,0.675,1.515,1.021,2.268c0.361,0.787,0.728,1.569,1.097,2.351  c0.355,0.752,0.713,1.504,1.076,2.251c0.378,0.775,0.765,1.546,1.15,2.315c0.374,0.741,0.747,1.483,1.129,2.219  c0.395,0.766,0.801,1.526,1.207,2.287c0.388,0.73,0.777,1.461,1.175,2.186c0.414,0.756,0.838,1.506,1.261,2.255  c0.405,0.72,0.81,1.44,1.224,2.155c0.432,0.746,0.874,1.484,1.315,2.223c0.422,0.709,0.841,1.417,1.271,2.119  c0.449,0.733,0.908,1.461,1.367,2.188c0.44,0.698,0.874,1.398,1.32,2.09c0.467,0.725,0.946,1.441,1.421,2.159  c0.452,0.681,0.899,1.367,1.359,2.044c0.489,0.72,0.991,1.432,1.488,2.147c0.462,0.664,0.92,1.33,1.39,1.988  c0.511,0.716,1.034,1.421,1.554,2.131c0.473,0.644,0.939,1.293,1.418,1.932c0.539,0.719,1.091,1.426,1.64,2.138  c0.475,0.617,0.944,1.239,1.425,1.85c0.58,0.737,1.175,1.461,1.764,2.19c0.465,0.575,0.922,1.155,1.392,1.725  c0.71,0.859,1.435,1.704,2.157,2.552c0.45,0.526,0.896,1.057,1.35,1.579c1.003,1.154,2.017,2.298,3.044,3.432  c0.452,0.498,0.916,0.984,1.372,1.477c0.65,0.703,1.296,1.411,1.956,2.106l0.024,0.023c7.52,7.907,15.648,15.229,24.298,21.907  l0.137,0.124c0.524,0.403,1.056,0.797,1.584,1.195c0.432,0.326,0.861,0.656,1.296,0.978c1.023,0.762,2.056,1.512,3.092,2.255  c0.249,0.178,0.494,0.362,0.745,0.539c1.286,0.913,2.583,1.812,3.89,2.697c0.365,0.247,0.735,0.489,1.102,0.732  c0.951,0.634,1.903,1.266,2.864,1.885c0.486,0.313,0.975,0.622,1.464,0.932c0.864,0.548,1.733,1.091,2.607,1.627  c0.509,0.313,1.02,0.624,1.533,0.934c0.897,0.539,1.799,1.071,2.704,1.598c0.476,0.277,0.951,0.557,1.428,0.83  c1.129,0.646,2.264,1.278,3.407,1.904c0.253,0.138,0.501,0.282,0.755,0.419c1.39,0.755,2.79,1.491,4.197,2.215  c0.421,0.215,0.846,0.424,1.268,0.637c1.002,0.506,2.007,1.008,3.017,1.5c0.532,0.258,1.065,0.51,1.598,0.765  c0.926,0.44,1.853,0.873,2.786,1.3c0.55,0.253,1.102,0.503,1.655,0.75c0.964,0.433,1.934,0.855,2.906,1.272  c0.506,0.217,1.011,0.439,1.518,0.652c1.244,0.523,2.495,1.033,3.751,1.533c0.235,0.094,0.465,0.191,0.7,0.284  c1.481,0.583,2.973,1.148,4.471,1.7c0.469,0.171,0.941,0.336,1.41,0.504c1.047,0.377,2.099,0.75,3.154,1.112  c0.569,0.194,1.139,0.383,1.71,0.573c0.981,0.326,1.965,0.646,2.951,0.957c0.583,0.185,1.168,0.368,1.753,0.549  c1.027,0.314,2.059,0.62,3.092,0.919c0.531,0.154,1.06,0.312,1.593,0.462c1.368,0.385,2.74,0.756,4.118,1.114  c0.194,0.05,0.385,0.106,0.579,0.156c1.566,0.402,3.14,0.784,4.719,1.151c0.496,0.116,0.996,0.223,1.496,0.335  c1.1,0.248,2.202,0.49,3.307,0.719c0.598,0.125,1.197,0.244,1.795,0.363c1.031,0.206,2.065,0.403,3.1,0.593  c0.61,0.113,1.22,0.224,1.832,0.331c1.087,0.19,2.177,0.368,3.27,0.542c0.543,0.086,1.086,0.177,1.631,0.258  c1.519,0.229,3.043,0.443,4.574,0.64c0.111,0.014,0.221,0.031,0.333,0.046c1.64,0.208,3.285,0.393,4.935,0.564  c0.525,0.055,1.052,0.099,1.578,0.15c1.14,0.109,2.282,0.213,3.426,0.304c0.619,0.049,1.238,0.092,1.858,0.137  c1.081,0.076,2.163,0.146,3.248,0.206c0.623,0.035,1.245,0.07,1.871,0.099c1.146,0.053,2.297,0.095,3.45,0.13  c0.543,0.018,1.087,0.039,1.633,0.052c1.687,0.039,3.379,0.065,5.077,0.065c0.002,0,0.004,0,0.006,0c0,0,0,0,0.001,0l0,0  c0.002,0,0.003,0,0.006,0c1.696,0,3.388-0.024,5.077-0.065c0.545-0.013,1.089-0.035,1.634-0.052c1.152-0.036,2.302-0.077,3.45-0.13  c0.322-0.016,0.643-0.033,0.965-0.051C266.829,468.545,266.526,468.53,266.224,468.513z"/>
<g>
	<path style="fill:#F5F5F5;" d="M210.834,389.748V162.155h149.377v19.876H233.272v83.664h107.064v18.592H233.272v105.462h-22.438   V389.748z"/>
	<path style="fill:#F5F5F5;" d="M150.962,204.8c-19.167,0-34.759-15.594-34.759-34.76s15.594-34.758,34.759-34.758   s34.76,15.593,34.76,34.758S170.129,204.8,150.962,204.8z M150.962,153.09c-9.346,0-16.951,7.603-16.951,16.949   c0,9.347,7.604,16.952,16.951,16.952c9.346,0,16.952-7.604,16.952-16.952C167.913,160.693,160.308,153.09,150.962,153.09z"/>
</g>
<g>
</g>
<g>
</g>
<g>
</g>
<g>
</g>
<g>
</g>
<g>
</g>
<g>
</g>
<g>
</g>
<g>
</g>
<g>
</g>
<g>
</g>
<g>
</g>
<g>
</g>
<g>
</g>
<g>
</g>
</svg>
